<?xml version="1.0" encoding="UTF-8"?>
<!--Generator: Apple Native CoreSVG 129-->
<!DOCTYPE svg
PUBLIC "-//W3C//DTD SVG 1.1//EN"
       "http://www.w3.org/Graphics/SVG/1.1/DTD/svg11.dtd">
<svg version="1.1" xmlns="http://www.w3.org/2000/svg" xmlns:xlink="http://www.w3.org/1999/xlink" width="3300" height="2200">
 <!--glyph: "uni1002C3.medium", point size: 100.000000, font version: "Version 16.0d9e1", template writer version: "8"-->
 <g id="Notes">
  <rect height="2200" id="artboard" style="fill:white;opacity:1" width="3300" x="0" y="0"/>
  <line id="" style="fill:none;stroke:black;opacity:1;stroke-width:0.5;" x1="263" x2="3036" y1="292" y2="292"/>
  <text style="stroke:none;fill:black;font-family:-apple-system,&quot;SF Pro Display&quot;,&quot;SF Pro Text&quot;,Helvetica,sans-serif;font-weight:bold;" transform="matrix(1 0 0 1 263 322)">Weight/Scale Variations</text>
  <text style="stroke:none;fill:black;font-family:-apple-system,&quot;SF Pro Display&quot;,&quot;SF Pro Text&quot;,Helvetica,sans-serif;text-anchor:middle;" transform="matrix(1 0 0 1 559.711 322)">Ultralight</text>
  <text style="stroke:none;fill:black;font-family:-apple-system,&quot;SF Pro Display&quot;,&quot;SF Pro Text&quot;,Helvetica,sans-serif;text-anchor:middle;" transform="matrix(1 0 0 1 856.422 322)">Thin</text>
  <text style="stroke:none;fill:black;font-family:-apple-system,&quot;SF Pro Display&quot;,&quot;SF Pro Text&quot;,Helvetica,sans-serif;text-anchor:middle;" transform="matrix(1 0 0 1 1153.13 322)">Light</text>
  <text style="stroke:none;fill:black;font-family:-apple-system,&quot;SF Pro Display&quot;,&quot;SF Pro Text&quot;,Helvetica,sans-serif;text-anchor:middle;" transform="matrix(1 0 0 1 1449.84 322)">Regular</text>
  <text style="stroke:none;fill:black;font-family:-apple-system,&quot;SF Pro Display&quot;,&quot;SF Pro Text&quot;,Helvetica,sans-serif;text-anchor:middle;" transform="matrix(1 0 0 1 1746.56 322)">Medium</text>
  <text style="stroke:none;fill:black;font-family:-apple-system,&quot;SF Pro Display&quot;,&quot;SF Pro Text&quot;,Helvetica,sans-serif;text-anchor:middle;" transform="matrix(1 0 0 1 2043.27 322)">Semibold</text>
  <text style="stroke:none;fill:black;font-family:-apple-system,&quot;SF Pro Display&quot;,&quot;SF Pro Text&quot;,Helvetica,sans-serif;text-anchor:middle;" transform="matrix(1 0 0 1 2339.98 322)">Bold</text>
  <text style="stroke:none;fill:black;font-family:-apple-system,&quot;SF Pro Display&quot;,&quot;SF Pro Text&quot;,Helvetica,sans-serif;text-anchor:middle;" transform="matrix(1 0 0 1 2636.69 322)">Heavy</text>
  <text style="stroke:none;fill:black;font-family:-apple-system,&quot;SF Pro Display&quot;,&quot;SF Pro Text&quot;,Helvetica,sans-serif;text-anchor:middle;" transform="matrix(1 0 0 1 2933.4 322)">Black</text>
  <line id="" style="fill:none;stroke:black;opacity:1;stroke-width:0.5;" x1="263" x2="3036" y1="1903" y2="1903"/>
  <g id="" transform="matrix(1 0 0 1 263 1933)">
   <path d="M 9.24805 0.830078 C 13.5547 0.830078 17.1387 -2.74414 17.1387 -7.05078 C 17.1387 -11.3574 13.5449 -14.9316 9.23828 -14.9316 C 4.94141 -14.9316 1.36719 -11.3574 1.36719 -7.05078 C 1.36719 -2.74414 4.95117 0.830078 9.24805 0.830078 Z M 9.24805 -0.654297 C 5.70312 -0.654297 2.87109 -3.49609 2.87109 -7.05078 C 2.87109 -10.6055 5.69336 -13.4473 9.23828 -13.4473 C 12.793 -13.4473 15.6348 -10.6055 15.6445 -7.05078 C 15.6543 -3.49609 12.8027 -0.654297 9.24805 -0.654297 Z M 9.22852 -3.62305 C 9.69727 -3.62305 9.9707 -3.93555 9.9707 -4.45312 L 9.9707 -6.31836 L 12.002 -6.31836 C 12.5 -6.31836 12.832 -6.57227 12.832 -7.04102 C 12.832 -7.51953 12.5195 -7.7832 12.002 -7.7832 L 9.9707 -7.7832 L 9.9707 -9.81445 C 9.9707 -10.332 9.69727 -10.6543 9.22852 -10.6543 C 8.75977 -10.6543 8.50586 -10.3125 8.50586 -9.81445 L 8.50586 -7.7832 L 6.49414 -7.7832 C 5.97656 -7.7832 5.64453 -7.51953 5.64453 -7.04102 C 5.64453 -6.57227 5.99609 -6.31836 6.49414 -6.31836 L 8.50586 -6.31836 L 8.50586 -4.45312 C 8.50586 -3.95508 8.75977 -3.62305 9.22852 -3.62305 Z"/>
  </g>
  <g id="" transform="matrix(1 0 0 1 281.506 1933)">
   <path d="M 11.709 2.91016 C 17.1582 2.91016 21.6699 -1.61133 21.6699 -7.05078 C 21.6699 -12.5 17.1484 -17.0117 11.6992 -17.0117 C 6.25977 -17.0117 1.74805 -12.5 1.74805 -7.05078 C 1.74805 -1.61133 6.26953 2.91016 11.709 2.91016 Z M 11.709 1.25 C 7.09961 1.25 3.41797 -2.44141 3.41797 -7.05078 C 3.41797 -11.6602 7.08984 -15.3516 11.6992 -15.3516 C 16.3086 -15.3516 20 -11.6602 20.0098 -7.05078 C 20.0195 -2.44141 16.3184 1.25 11.709 1.25 Z M 11.6797 -2.66602 C 12.207 -2.66602 12.5098 -3.01758 12.5098 -3.59375 L 12.5098 -6.23047 L 15.3223 -6.23047 C 15.8691 -6.23047 16.25 -6.51367 16.25 -7.03125 C 16.25 -7.55859 15.8887 -7.86133 15.3223 -7.86133 L 12.5098 -7.86133 L 12.5098 -10.6836 C 12.5098 -11.25 12.207 -11.6113 11.6797 -11.6113 C 11.1621 -11.6113 10.8789 -11.2305 10.8789 -10.6836 L 10.8789 -7.86133 L 8.07617 -7.86133 C 7.50977 -7.86133 7.13867 -7.55859 7.13867 -7.03125 C 7.13867 -6.51367 7.5293 -6.23047 8.07617 -6.23047 L 10.8789 -6.23047 L 10.8789 -3.59375 C 10.8789 -3.03711 11.1621 -2.66602 11.6797 -2.66602 Z"/>
  </g>
  <g id="" transform="matrix(1 0 0 1 304.924 1933)">
   <path d="M 14.9707 5.66406 C 21.9336 5.66406 27.6953 -0.0976562 27.6953 -7.05078 C 27.6953 -14.0137 21.9238 -19.7754 14.9609 -19.7754 C 8.00781 -19.7754 2.25586 -14.0137 2.25586 -7.05078 C 2.25586 -0.0976562 8.01758 5.66406 14.9707 5.66406 Z M 14.9707 3.84766 C 8.93555 3.84766 4.08203 -1.01562 4.08203 -7.05078 C 4.08203 -13.0957 8.92578 -17.9492 14.9609 -17.9492 C 21.0059 -17.9492 25.8594 -13.0957 25.8691 -7.05078 C 25.8789 -1.01562 21.0156 3.84766 14.9707 3.84766 Z M 14.9414 -1.38672 C 15.5176 -1.38672 15.8594 -1.77734 15.8594 -2.38281 L 15.8594 -6.13281 L 19.7754 -6.13281 C 20.3711 -6.13281 20.7812 -6.46484 20.7812 -7.02148 C 20.7812 -7.59766 20.3906 -7.93945 19.7754 -7.93945 L 15.8594 -7.93945 L 15.8594 -11.8652 C 15.8594 -12.4805 15.5176 -12.8711 14.9414 -12.8711 C 14.375 -12.8711 14.0527 -12.4609 14.0527 -11.8652 L 14.0527 -7.93945 L 10.1465 -7.93945 C 9.53125 -7.93945 9.13086 -7.59766 9.13086 -7.02148 C 9.13086 -6.46484 9.55078 -6.13281 10.1465 -6.13281 L 14.0527 -6.13281 L 14.0527 -2.38281 C 14.0527 -1.79688 14.375 -1.38672 14.9414 -1.38672 Z"/>
  </g>
  <text style="stroke:none;fill:black;font-family:-apple-system,&quot;SF Pro Display&quot;,&quot;SF Pro Text&quot;,Helvetica,sans-serif;font-weight:bold;" transform="matrix(1 0 0 1 263 1953)">Design Variations</text>
  <text style="stroke:none;fill:black;font-family:-apple-system,&quot;SF Pro Display&quot;,&quot;SF Pro Text&quot;,Helvetica,sans-serif;" transform="matrix(1 0 0 1 263 1971)">Symbols are supported in up to nine weights and three scales.</text>
  <text style="stroke:none;fill:black;font-family:-apple-system,&quot;SF Pro Display&quot;,&quot;SF Pro Text&quot;,Helvetica,sans-serif;" transform="matrix(1 0 0 1 263 1989)">For optimal layout with text and other symbols, vertically align</text>
  <text style="stroke:none;fill:black;font-family:-apple-system,&quot;SF Pro Display&quot;,&quot;SF Pro Text&quot;,Helvetica,sans-serif;" transform="matrix(1 0 0 1 263 2007)">symbols with the adjacent text.</text>
  <line id="" style="fill:none;stroke:#00AEEF;stroke-width:0.5;opacity:1.0;" x1="776" x2="776" y1="1919" y2="1933"/>
  <g id="" transform="matrix(1 0 0 1 776 1933)">
   <path d="M 3.31055 0.126953 C 3.82812 0.126953 4.08203 -0.0683594 4.26758 -0.605469 L 5.52734 -4.0625 L 11.2891 -4.0625 L 12.5488 -0.605469 C 12.7344 -0.0683594 12.9883 0.126953 13.4961 0.126953 C 14.0137 0.126953 14.3457 -0.185547 14.3457 -0.673828 C 14.3457 -0.839844 14.3164 -0.986328 14.2383 -1.20117 L 9.6582 -13.3887 C 9.43359 -13.9941 9.0332 -14.2871 8.4082 -14.2871 C 7.80273 -14.2871 7.39258 -13.9941 7.17773 -13.3984 L 2.59766 -1.19141 C 2.51953 -0.976562 2.49023 -0.830078 2.49023 -0.664062 C 2.49023 -0.175781 2.80273 0.126953 3.31055 0.126953 Z M 6.00586 -5.53711 L 8.37891 -12.1094 L 8.42773 -12.1094 L 10.8008 -5.53711 Z"/>
  </g>
  <line id="" style="fill:none;stroke:#00AEEF;stroke-width:0.5;opacity:1.0;" x1="792.836" x2="792.836" y1="1919" y2="1933"/>
  <text style="stroke:none;fill:black;font-family:-apple-system,&quot;SF Pro Display&quot;,&quot;SF Pro Text&quot;,Helvetica,sans-serif;font-weight:bold;" transform="matrix(1 0 0 1 776 1953)">Margins</text>
  <text style="stroke:none;fill:black;font-family:-apple-system,&quot;SF Pro Display&quot;,&quot;SF Pro Text&quot;,Helvetica,sans-serif;" transform="matrix(1 0 0 1 776 1971)">Leading and trailing margins on the left and right side of each symbol</text>
  <text style="stroke:none;fill:black;font-family:-apple-system,&quot;SF Pro Display&quot;,&quot;SF Pro Text&quot;,Helvetica,sans-serif;" transform="matrix(1 0 0 1 776 1989)">can be adjusted by modifying the x-location of the margin guidelines.</text>
  <text style="stroke:none;fill:black;font-family:-apple-system,&quot;SF Pro Display&quot;,&quot;SF Pro Text&quot;,Helvetica,sans-serif;" transform="matrix(1 0 0 1 776 2007)">Modifications are automatically applied proportionally to all</text>
  <text style="stroke:none;fill:black;font-family:-apple-system,&quot;SF Pro Display&quot;,&quot;SF Pro Text&quot;,Helvetica,sans-serif;" transform="matrix(1 0 0 1 776 2025)">scales and weights.</text>
  <g id="" transform="matrix(1 0 0 1 1289 1933)">
   <path d="M 2.8418 1.86523 L 4.54102 3.57422 C 5.40039 4.44336 6.38672 4.38477 7.31445 3.35938 L 17.4902 -7.85156 C 17.7539 -7.76367 18.0273 -7.7832 18.3398 -7.8418 L 19.4043 -8.03711 L 20.0684 -7.36328 L 20.0293 -6.80664 C 19.9902 -6.30859 20.1172 -5.92773 20.6055 -5.44922 L 21.3672 -4.70703 C 21.8457 -4.22852 22.4609 -4.19922 22.9297 -4.66797 L 25.8398 -7.58789 C 26.3086 -8.05664 26.2891 -8.65234 25.8105 -9.13086 L 25.0391 -9.89258 C 24.5605 -10.3711 24.1895 -10.5273 23.7109 -10.4883 L 23.1348 -10.4395 L 22.4902 -11.0742 L 22.7344 -12.1973 C 22.8613 -12.7637 22.7051 -13.2031 22.1191 -13.7891 L 19.9219 -15.9766 C 16.582 -19.2969 12.1484 -19.2188 9.25781 -16.3281 C 8.83789 -15.918 8.80859 -15.3418 9.04297 -14.9512 C 9.27734 -14.5898 9.73633 -14.3555 10.3809 -14.5215 C 11.8457 -14.8633 13.3691 -14.9219 14.7949 -13.9844 L 14.209 -12.5293 C 14.0137 -12.0508 13.9844 -11.6504 14.1113 -11.2891 L 3.04688 -0.898438 C 2.06055 0.0195312 1.98242 0.996094 2.8418 1.86523 Z M 10.752 -15.957 C 13.1836 -17.7344 16.4746 -17.4316 18.7012 -15.2051 L 21.1328 -12.793 C 21.3672 -12.5586 21.4062 -12.373 21.3379 -12.0312 L 21.0156 -10.5469 L 22.5195 -9.0625 L 23.5059 -9.12109 C 23.7598 -9.13086 23.8379 -9.11133 24.0332 -8.91602 L 24.6094 -8.33984 L 22.168 -5.89844 L 21.5918 -6.47461 C 21.3965 -6.66992 21.3672 -6.74805 21.377 -7.01172 L 21.4453 -7.98828 L 19.9512 -9.47266 L 18.4277 -9.21875 C 18.1055 -9.15039 17.959 -9.17969 17.7148 -9.41406 L 15.7129 -11.416 C 15.459 -11.6504 15.4297 -11.8164 15.5859 -12.1875 L 16.4648 -14.2773 C 14.9023 -15.7324 12.8711 -16.3574 10.8398 -15.7617 C 10.6836 -15.7227 10.625 -15.8496 10.752 -15.957 Z M 5.27344 2.30469 L 4.10156 1.14258 C 3.63281 0.683594 3.74023 0.341797 4.14062 -0.0195312 L 14.9512 -10.1953 L 16.416 -8.71094 L 6.42578 2.27539 C 6.07422 2.67578 5.74219 2.77344 5.27344 2.30469 Z"/>
  </g>
  <text style="stroke:none;fill:black;font-family:-apple-system,&quot;SF Pro Display&quot;,&quot;SF Pro Text&quot;,Helvetica,sans-serif;font-weight:bold;" transform="matrix(1 0 0 1 1289 1953)">Exporting</text>
  <text style="stroke:none;fill:black;font-family:-apple-system,&quot;SF Pro Display&quot;,&quot;SF Pro Text&quot;,Helvetica,sans-serif;" transform="matrix(1 0 0 1 1289 1971)">Symbols should be outlined when exporting to ensure the</text>
  <text style="stroke:none;fill:black;font-family:-apple-system,&quot;SF Pro Display&quot;,&quot;SF Pro Text&quot;,Helvetica,sans-serif;" transform="matrix(1 0 0 1 1289 1989)">design is preserved when submitting to Xcode.</text>
  <text id="template-version" style="stroke:none;fill:black;font-family:-apple-system,&quot;SF Pro Display&quot;,&quot;SF Pro Text&quot;,Helvetica,sans-serif;text-anchor:end;" transform="matrix(1 0 0 1 3036 1933)">Template v.2.0</text>
  <text style="stroke:none;fill:black;font-family:-apple-system,&quot;SF Pro Display&quot;,&quot;SF Pro Text&quot;,Helvetica,sans-serif;text-anchor:end;" transform="matrix(1 0 0 1 3036 1951)">Requires Xcode 12 or greater</text>
  <text style="stroke:none;fill:black;font-family:-apple-system,&quot;SF Pro Display&quot;,&quot;SF Pro Text&quot;,Helvetica,sans-serif;text-anchor:end;" transform="matrix(1 0 0 1 3036 1969)">Generated from star.fill</text>
  <text style="stroke:none;fill:black;font-family:-apple-system,&quot;SF Pro Display&quot;,&quot;SF Pro Text&quot;,Helvetica,sans-serif;text-anchor:end;" transform="matrix(1 0 0 1 3036 1987)">Typeset at 100 points</text>
  <text style="stroke:none;fill:black;font-family:-apple-system,&quot;SF Pro Display&quot;,&quot;SF Pro Text&quot;,Helvetica,sans-serif;" transform="matrix(1 0 0 1 263 726)">Small</text>
  <text style="stroke:none;fill:black;font-family:-apple-system,&quot;SF Pro Display&quot;,&quot;SF Pro Text&quot;,Helvetica,sans-serif;" transform="matrix(1 0 0 1 263 1156)">Medium</text>
  <text style="stroke:none;fill:black;font-family:-apple-system,&quot;SF Pro Display&quot;,&quot;SF Pro Text&quot;,Helvetica,sans-serif;" transform="matrix(1 0 0 1 263 1586)">Large</text>
 </g>
 <g id="Guides">
  <g id="H-reference" style="fill:#27AAE1;stroke:none;" transform="matrix(1 0 0 1 339 696)">
   <path d="M 0.976562 0 L 3.66211 0 L 12.9883 -24.4629 L 45.7031 -24.4629 L 55.0781 0 L 57.7148 0 L 30.6152 -70.459 L 28.125 -70.459 Z M 29.2969 -67.1387 L 29.3945 -67.1387 L 44.873 -26.709 L 13.8672 -26.709 Z"/>
  </g>
  <line id="Baseline-S" style="fill:none;stroke:#27AAE1;opacity:1;stroke-width:0.5;" x1="263" x2="3036" y1="696" y2="696"/>
  <line id="Capline-S" style="fill:none;stroke:#27AAE1;opacity:1;stroke-width:0.5;" x1="263" x2="3036" y1="625.541" y2="625.541"/>
  <g id="H-reference" style="fill:#27AAE1;stroke:none;" transform="matrix(1 0 0 1 339 1126)">
   <path d="M 0.976562 0 L 3.66211 0 L 12.9883 -24.4629 L 45.7031 -24.4629 L 55.0781 0 L 57.7148 0 L 30.6152 -70.459 L 28.125 -70.459 Z M 29.2969 -67.1387 L 29.3945 -67.1387 L 44.873 -26.709 L 13.8672 -26.709 Z"/>
  </g>
  <line id="Baseline-M" style="fill:none;stroke:#27AAE1;opacity:1;stroke-width:0.5;" x1="263" x2="3036" y1="1126" y2="1126"/>
  <line id="Capline-M" style="fill:none;stroke:#27AAE1;opacity:1;stroke-width:0.5;" x1="263" x2="3036" y1="1055.54" y2="1055.54"/>
  <g id="H-reference" style="fill:#27AAE1;stroke:none;" transform="matrix(1 0 0 1 339 1556)">
   <path d="M 0.976562 0 L 3.66211 0 L 12.9883 -24.4629 L 45.7031 -24.4629 L 55.0781 0 L 57.7148 0 L 30.6152 -70.459 L 28.125 -70.459 Z M 29.2969 -67.1387 L 29.3945 -67.1387 L 44.873 -26.709 L 13.8672 -26.709 Z"/>
  </g>
  <line id="Baseline-L" style="fill:none;stroke:#27AAE1;opacity:1;stroke-width:0.5;" x1="263" x2="3036" y1="1556" y2="1556"/>
  <line id="Capline-L" style="fill:none;stroke:#27AAE1;opacity:1;stroke-width:0.5;" x1="263" x2="3036" y1="1485.54" y2="1485.54"/>
  <line id="left-margin" style="fill:none;stroke:#00AEEF;stroke-width:0.5;opacity:1.0;" x1="1385.66" x2="1385.66" y1="1030.79" y2="1150.12"/>
  <line id="right-margin" style="fill:none;stroke:#00AEEF;stroke-width:0.5;opacity:1.0;" x1="1514.03" x2="1514.03" y1="1030.79" y2="1150.12"/>
 </g>
 <g id="Symbols">
  <g id="Black-L" transform="matrix(1 0 0 1 2846.24 1556)">
   <path d="M 41.4062 28.418 C 45.7031 31.6895 50.9277 30.7617 56.4941 26.6602 L 87.1582 4.10156 L 117.822 26.6602 C 123.438 30.7617 128.662 31.6895 132.959 28.418 C 137.158 25.2441 137.988 19.9219 135.84 13.623 L 123.633 -22.3633 L 154.59 -44.5312 C 160.107 -48.4863 162.646 -53.2227 160.889 -58.3008 C 159.18 -63.3301 154.443 -65.7227 147.656 -65.6738 L 109.766 -65.332 L 98.2422 -101.611 C 96.1426 -108.154 92.4805 -111.914 87.1582 -111.914 C 81.8848 -111.914 78.2227 -108.154 76.123 -101.611 L 64.5996 -65.332 L 26.6113 -65.6738 C 19.9219 -65.7227 15.1855 -63.3301 13.4766 -58.3496 C 11.6699 -53.2227 14.2578 -48.4863 19.7754 -44.5312 L 50.7324 -22.3633 L 38.5254 13.623 C 36.377 19.9219 37.207 25.2441 41.4062 28.418 Z"/>
  </g>
  <g id="Heavy-L" transform="matrix(1 0 0 1 2550.75 1556)">
   <path d="M 40.918 27.6855 C 44.7754 30.6152 49.4141 29.7852 54.4922 26.0254 L 85.9375 2.92969 L 117.383 26.0254 C 122.461 29.7852 127.148 30.6152 130.957 27.6855 C 134.717 24.8535 135.498 20.166 133.496 14.3555 L 121.045 -22.5586 L 152.783 -45.3125 C 157.812 -48.9258 160.059 -53.125 158.545 -57.666 C 156.982 -62.1582 152.783 -64.3066 146.582 -64.209 L 107.715 -63.916 L 95.8984 -101.123 C 93.9453 -107.08 90.6738 -110.449 85.9375 -110.449 C 81.25 -110.449 77.9297 -107.08 76.0254 -101.123 L 64.209 -63.916 L 25.293 -64.209 C 19.1406 -64.3066 14.8926 -62.1582 13.3789 -57.7148 C 11.8164 -53.125 14.0625 -48.9258 19.1406 -45.3125 L 50.8789 -22.5586 L 38.4277 14.3555 C 36.4258 20.166 37.207 24.8535 40.918 27.6855 Z"/>
  </g>
  <g id="Bold-L" transform="matrix(1 0 0 1 2255.41 1556)">
   <path d="M 40.3809 26.9043 C 43.7012 29.3945 47.7539 28.6621 52.2461 25.3418 L 84.5703 1.61133 L 116.895 25.3418 C 121.436 28.6621 125.488 29.3945 128.76 26.9043 C 131.982 24.4629 132.666 20.4102 130.908 15.1855 L 118.164 -22.8027 L 150.732 -46.1914 C 155.273 -49.4141 157.178 -53.0762 155.859 -56.9336 C 154.541 -60.791 150.928 -62.6953 145.361 -62.6465 L 105.371 -62.3535 L 93.2129 -100.537 C 91.5039 -105.908 88.6719 -108.789 84.5703 -108.789 C 80.5176 -108.789 77.6367 -105.908 75.9277 -100.537 L 63.7695 -62.3535 L 23.7793 -62.6465 C 18.2617 -62.6953 14.5996 -60.791 13.2812 -56.9824 C 11.9629 -53.0762 13.916 -49.4141 18.4082 -46.1914 L 51.0254 -22.8027 L 38.2324 15.1855 C 36.4746 20.4102 37.1582 24.4629 40.3809 26.9043 Z"/>
  </g>
  <g id="Semibold-L" transform="matrix(1 0 0 1 1959.65 1556)">
   <path d="M 39.9902 26.3184 C 42.9688 28.5645 46.582 27.8809 50.6836 24.8535 L 83.6426 0.683594 L 116.553 24.8535 C 120.703 27.8809 124.316 28.5645 127.246 26.3184 C 130.127 24.1699 130.762 20.5566 129.102 15.7227 L 116.162 -22.9492 L 149.365 -46.7773 C 153.467 -49.707 155.176 -52.9785 154.053 -56.4453 C 152.881 -59.9121 149.609 -61.5723 144.482 -61.5234 L 103.809 -61.2793 L 91.4062 -100.146 C 89.7949 -105.078 87.2559 -107.666 83.6426 -107.666 C 79.9805 -107.666 77.4414 -105.078 75.8789 -100.146 L 63.4766 -61.2793 L 22.7539 -61.5234 C 17.627 -61.5723 14.4043 -59.9121 13.2324 -56.4941 C 12.0605 -52.9785 13.7695 -49.707 17.9199 -46.7773 L 51.123 -22.9492 L 38.1348 15.7227 C 36.4746 20.5566 37.1094 24.1699 39.9902 26.3184 Z"/>
  </g>
  <g id="Medium-L" transform="matrix(1 0 0 1 1663.65 1556)">
   <path d="M 39.7461 25.9277 C 42.3828 27.9297 45.6543 27.3438 49.5117 24.5117 L 82.9102 0 L 116.26 24.5117 C 120.166 27.3438 123.438 27.9297 126.074 25.9277 C 128.711 23.9746 129.297 20.7031 127.734 16.1621 L 114.648 -23.0469 L 148.291 -47.2168 C 152.148 -49.9512 153.711 -52.9297 152.637 -56.1035 C 151.611 -59.1797 148.633 -60.7422 143.848 -60.6934 L 102.588 -60.4492 L 89.9902 -99.8535 C 88.5254 -104.443 86.1816 -106.787 82.9102 -106.787 C 79.6387 -106.787 77.2949 -104.443 75.8301 -99.8535 L 63.2324 -60.4492 L 21.9238 -60.6934 C 17.1875 -60.7422 14.209 -59.1797 13.1836 -56.1035 C 12.1094 -52.9297 13.6719 -49.9512 17.5293 -47.2168 L 51.1719 -23.0469 L 38.0371 16.1621 C 36.5234 20.7031 37.1094 23.9746 39.7461 25.9277 Z"/>
  </g>
  <g id="Regular-L" transform="matrix(1 0 0 1 1367.86 1556)">
   <path d="M 39.3555 25.3906 C 41.6504 27.0996 44.5312 26.5625 47.998 24.0234 L 81.9824 -0.878906 L 115.918 24.0234 C 119.434 26.5625 122.266 27.0996 124.609 25.3906 C 126.855 23.6816 127.393 20.8496 125.977 16.748 L 112.646 -23.1934 L 146.875 -47.8027 C 150.391 -50.293 151.709 -52.8809 150.83 -55.6152 C 149.951 -58.3008 147.363 -59.668 143.018 -59.6191 L 100.977 -59.375 L 88.1836 -99.5117 C 86.8164 -103.613 84.8145 -105.664 81.9824 -105.664 C 79.1016 -105.664 77.0996 -103.613 75.7812 -99.5117 L 62.9395 -59.375 L 20.8984 -59.6191 C 16.5527 -59.668 14.0137 -58.3008 13.1348 -55.6152 C 12.207 -52.8809 13.5742 -50.293 17.041 -47.8027 L 51.2695 -23.1934 L 37.9395 16.748 C 36.5723 20.8496 37.1094 23.6816 39.3555 25.3906 Z"/>
  </g>
  <g id="Light-L" transform="matrix(1 0 0 1 1072.27 1556)">
   <path d="M 38.9648 24.5605 C 40.8203 25.9277 43.1152 25.5859 46.0449 23.4863 L 80.8594 -2.00195 L 115.625 23.4863 C 118.604 25.5859 120.898 25.9277 122.754 24.5605 C 124.561 23.1934 125.098 20.9473 123.926 17.4316 L 110.4 -23.4863 L 145.41 -48.7305 C 148.34 -50.8301 149.316 -52.9297 148.633 -55.127 C 147.9 -57.2754 145.898 -58.4961 142.188 -58.4473 L 99.1211 -58.252 L 85.9863 -99.3164 C 84.8145 -102.832 83.1543 -104.395 80.8594 -104.395 C 78.5645 -104.395 76.8555 -102.832 75.7324 -99.3164 L 62.5488 -58.252 L 19.4824 -58.4473 C 15.8203 -58.4961 13.7695 -57.2754 13.0859 -55.127 C 12.3535 -52.9297 13.3789 -50.8301 16.3086 -48.7305 L 51.3184 -23.4863 L 37.793 17.4316 C 36.6211 20.9473 37.1094 23.1934 38.9648 24.5605 Z"/>
  </g>
  <g id="Thin-L" transform="matrix(1 0 0 1 777.052 1556)">
   <path d="M 38.4277 23.4863 C 39.6973 24.4141 41.2598 24.3164 43.457 22.7539 L 79.3457 -3.51562 L 115.283 22.7539 C 117.48 24.3164 119.043 24.4141 120.312 23.4863 C 121.582 22.5586 122.07 21.0938 121.191 18.3594 L 107.373 -23.8281 L 143.408 -49.9023 C 145.605 -51.5137 146.143 -53.0273 145.703 -54.4922 C 145.215 -55.957 143.896 -56.9336 141.113 -56.8848 L 96.6797 -56.7871 L 83.0566 -99.1211 C 82.1777 -101.758 80.9082 -102.686 79.3457 -102.686 C 77.7832 -102.686 76.5625 -101.758 75.6836 -99.1211 L 62.0605 -56.7871 L 17.627 -56.8848 C 14.7949 -56.9336 13.5254 -55.957 13.0371 -54.4922 C 12.5488 -53.0273 13.0859 -51.5137 15.2832 -49.9023 L 51.3672 -23.8281 L 37.5488 18.3594 C 36.6699 21.0938 37.1582 22.5586 38.4277 23.4863 Z"/>
  </g>
  <g id="Ultralight-L" transform="matrix(1 0 0 1 481.122 1556)">
   <path d="M 38.1348 22.9492 C 39.1113 23.6328 40.332 23.6816 42.1387 22.3633 L 78.6133 -4.29688 L 115.039 22.3633 C 116.895 23.6816 118.066 23.6328 119.043 22.9492 C 120.02 22.2168 120.508 21.1426 119.775 18.8477 L 105.811 -24.0234 L 142.432 -50.5371 C 144.238 -51.8555 144.531 -53.0762 144.189 -54.1504 C 143.848 -55.2734 142.92 -56.1035 140.527 -56.1035 L 95.4102 -56.0547 L 81.543 -98.9746 C 80.8105 -101.172 79.7852 -101.855 78.6133 -101.855 C 77.3926 -101.855 76.416 -101.172 75.6836 -98.9746 L 61.8164 -56.0547 L 16.6504 -56.1035 C 14.3066 -56.1035 13.3301 -55.2734 12.9883 -54.1504 C 12.6953 -53.0762 12.9395 -51.8555 14.7949 -50.5371 L 51.416 -24.0234 L 37.4023 18.8477 C 36.6699 21.1426 37.1582 22.2168 38.1348 22.9492 Z"/>
  </g>
  <g id="Black-M" transform="matrix(1 0 0 1 2864.85 1126)">
   <path d="M 32.5195 14.6484 C 36.1816 17.4805 40.7227 16.6992 45.3613 13.2812 L 68.5547 -3.75977 L 91.6992 13.2812 C 96.3867 16.6992 100.928 17.4805 104.639 14.6484 C 108.301 11.8652 109.033 7.27539 107.227 2.00195 L 98.0469 -25.1465 L 121.387 -41.8945 C 126.025 -45.2148 128.174 -49.3164 126.66 -53.7109 C 125.146 -58.1055 121.094 -60.1562 115.43 -60.1074 L 86.8164 -59.8633 L 78.125 -87.3047 C 76.3672 -92.7246 73.1445 -95.9473 68.5547 -95.9473 C 63.9648 -95.9473 60.791 -92.7246 59.0332 -87.3047 L 50.293 -59.8633 L 21.6309 -60.1074 C 16.0645 -60.1562 11.9629 -58.1055 10.4492 -53.7598 C 8.88672 -49.3164 11.084 -45.2148 15.7227 -41.8945 L 39.1113 -25.1465 L 29.9316 2.00195 C 28.0762 7.27539 28.8574 11.8652 32.5195 14.6484 Z"/>
  </g>
  <g id="Heavy-M" transform="matrix(1 0 0 1 2569.16 1126)">
   <path d="M 32.0801 14.0625 C 35.4004 16.6016 39.4531 15.8691 43.7012 12.7441 L 67.5293 -4.78516 L 91.3086 12.7441 C 95.6055 15.8691 99.6582 16.6016 102.979 14.0625 C 106.25 11.6211 106.934 7.51953 105.225 2.63672 L 95.8008 -25.293 L 119.824 -42.4805 C 124.072 -45.5566 126.025 -49.2188 124.658 -53.125 C 123.34 -57.0312 119.678 -58.9355 114.453 -58.8379 L 85.0586 -58.5938 L 76.123 -86.7676 C 74.5117 -91.7969 71.6309 -94.6777 67.5293 -94.6777 C 63.4277 -94.6777 60.5469 -91.7969 58.9355 -86.7676 L 50 -58.5938 L 20.5566 -58.8379 C 15.4297 -58.9355 11.7676 -57.0312 10.4004 -53.1738 C 9.0332 -49.2188 10.9863 -45.5566 15.2344 -42.4805 L 39.2578 -25.293 L 29.834 2.63672 C 28.125 7.51953 28.8086 11.6211 32.0801 14.0625 Z"/>
  </g>
  <g id="Bold-M" transform="matrix(1 0 0 1 2273.6 1126)">
   <path d="M 31.6406 13.4277 C 34.4727 15.625 38.0371 14.9902 41.8457 12.1582 L 66.3574 -5.85938 L 90.8691 12.1582 C 94.7266 14.9902 98.2422 15.625 101.123 13.4277 C 103.955 11.2793 104.541 7.71484 103.027 3.32031 L 93.3105 -25.4395 L 118.066 -43.1641 C 121.875 -45.8984 123.584 -49.0723 122.412 -52.4902 C 121.289 -55.8594 118.066 -57.5195 113.379 -57.4707 L 83.1055 -57.2266 L 73.877 -86.1816 C 72.4121 -90.7227 69.9219 -93.2617 66.3574 -93.2617 C 62.8418 -93.2617 60.3516 -90.7227 58.8867 -86.1816 L 49.6582 -57.2266 L 19.3359 -57.4707 C 14.6484 -57.5195 11.4746 -55.8594 10.3516 -52.5391 C 9.13086 -49.0723 10.8398 -45.8984 14.6973 -43.1641 L 39.4043 -25.4395 L 29.7363 3.32031 C 28.2227 7.71484 28.8086 11.2793 31.6406 13.4277 Z"/>
  </g>
  <g id="Semibold-M" transform="matrix(1 0 0 1 1977.69 1126)">
   <path d="M 31.2988 12.9883 C 33.8867 14.9414 37.0117 14.3066 40.5762 11.7188 L 65.5762 -6.64062 L 90.5762 11.7188 C 94.1406 14.3066 97.2656 14.9414 99.8535 12.9883 C 102.393 11.084 102.881 7.91016 101.514 3.80859 L 91.6016 -25.5371 L 116.846 -43.6523 C 120.361 -46.1426 121.875 -49.0234 120.85 -52.0508 C 119.824 -55.0781 116.992 -56.543 112.646 -56.4941 L 81.7383 -56.25 L 72.3145 -85.791 C 70.9961 -89.9902 68.75 -92.2852 65.5762 -92.2852 C 62.4023 -92.2852 60.2051 -89.9902 58.8379 -85.791 L 49.4141 -56.25 L 18.5059 -56.4941 C 14.1602 -56.543 11.3281 -55.0781 10.3027 -52.0996 C 9.22852 -49.0234 10.791 -46.1426 14.3066 -43.6523 L 39.5508 -25.5371 L 29.6387 3.80859 C 28.2715 7.91016 28.7598 11.084 31.2988 12.9883 Z"/>
  </g>
  <g id="Medium-M" transform="matrix(1 0 0 1 1681.59 1126)">
   <path d="M 31.0547 12.6465 C 33.3984 14.4043 36.2793 13.8184 39.5996 11.4258 L 64.9902 -7.22656 L 90.332 11.4258 C 93.6523 13.8184 96.5332 14.4043 98.877 12.6465 C 101.172 10.8887 101.66 8.00781 100.342 4.15039 L 90.332 -25.6348 L 115.918 -43.9941 C 119.238 -46.3379 120.605 -48.9746 119.678 -51.709 C 118.75 -54.4434 116.162 -55.8105 112.061 -55.7617 L 80.7129 -55.5176 L 71.1426 -85.498 C 69.873 -89.4043 67.8711 -91.5039 64.9902 -91.5039 C 62.0605 -91.5039 60.0586 -89.4043 58.7891 -85.498 L 49.2676 -55.5176 L 17.8711 -55.7617 C 13.7695 -55.8105 11.1816 -54.4434 10.2539 -51.7578 C 9.32617 -48.9746 10.7422 -46.3379 14.0137 -43.9941 L 39.5996 -25.6348 L 29.5898 4.15039 C 28.2715 8.00781 28.7598 10.8887 31.0547 12.6465 Z"/>
  </g>
  <g id="Regular-M" transform="matrix(1 0 0 1 1385.66 1126)">
   <path d="M 30.7617 12.207 C 32.7637 13.7695 35.3027 13.2324 38.3301 11.0352 L 64.1602 -7.95898 L 90.0391 11.0352 C 93.0664 13.2324 95.5566 13.7695 97.6074 12.207 C 99.6094 10.6934 100.049 8.20312 98.8281 4.63867 L 88.623 -25.7324 L 114.697 -44.4824 C 117.725 -46.6309 118.945 -48.877 118.164 -51.3184 C 117.383 -53.6621 115.088 -54.834 111.328 -54.7852 L 79.3457 -54.5898 L 69.6289 -85.1074 C 68.457 -88.7207 66.6992 -90.5273 64.1602 -90.5273 C 61.6699 -90.5273 59.9121 -88.7207 58.7402 -85.1074 L 49.0234 -54.5898 L 17.041 -54.7852 C 13.2812 -54.834 10.9863 -53.6621 10.2051 -51.3184 C 9.375 -48.877 10.6445 -46.6309 13.6719 -44.4824 L 39.7461 -25.7324 L 29.541 4.63867 C 28.3203 8.20312 28.7598 10.6934 30.7617 12.207 Z"/>
  </g>
  <g id="Light-M" transform="matrix(1 0 0 1 1089.95 1126)">
   <path d="M 30.3711 11.4746 C 32.0312 12.6953 34.0332 12.3535 36.5723 10.498 L 63.1836 -8.98438 L 89.7949 10.498 C 92.2852 12.3535 94.3359 12.6953 95.9473 11.4746 C 97.6074 10.2539 97.998 8.25195 96.9727 5.27344 L 86.5723 -25.9766 L 113.379 -45.2637 C 115.918 -47.0703 116.797 -48.9258 116.162 -50.8789 C 115.527 -52.7832 113.721 -53.7598 110.596 -53.7598 L 77.6855 -53.5645 L 67.627 -84.9609 C 66.6504 -87.9883 65.1855 -89.4043 63.1836 -89.4043 C 61.1328 -89.4043 59.7168 -87.9883 58.7402 -84.9609 L 48.6816 -53.5645 L 15.7715 -53.7598 C 12.5977 -53.7598 10.791 -52.7832 10.1562 -50.8789 C 9.52148 -48.9258 10.4492 -47.0703 12.9883 -45.2637 L 39.7461 -25.9766 L 29.3945 5.27344 C 28.3691 8.25195 28.7598 10.2539 30.3711 11.4746 Z"/>
  </g>
  <g id="Thin-M" transform="matrix(1 0 0 1 794.581 1126)">
   <path d="M 29.9316 10.498 C 31.0059 11.3281 32.373 11.2305 34.2773 9.86328 L 61.8652 -10.3027 L 89.4043 9.86328 C 91.3086 11.2305 92.6758 11.3281 93.7988 10.498 C 94.873 9.7168 95.2637 8.39844 94.5312 6.10352 L 83.8867 -26.3184 L 111.621 -46.3379 C 113.477 -47.7051 113.965 -49.0234 113.574 -50.293 C 113.135 -51.5625 111.963 -52.3926 109.619 -52.3438 L 75.4883 -52.2949 L 64.9902 -84.7656 C 64.2578 -87.0117 63.2324 -87.8906 61.8652 -87.8906 C 60.498 -87.8906 59.4238 -87.0117 58.6914 -84.7656 L 48.2422 -52.2949 L 14.0625 -52.3438 C 11.7188 -52.3926 10.5469 -51.5625 10.1562 -50.293 C 9.7168 -49.0234 10.2051 -47.7051 12.1094 -46.3379 L 39.8438 -26.3184 L 29.1504 6.10352 C 28.418 8.39844 28.8086 9.7168 29.9316 10.498 Z"/>
  </g>
  <g id="Ultralight-M" transform="matrix(1 0 0 1 498.554 1126)">
   <path d="M 29.6875 10.0098 C 30.5176 10.5957 31.543 10.6445 33.0566 9.52148 L 61.1816 -10.9863 L 89.2578 9.52148 C 90.7715 10.6445 91.7969 10.5957 92.6758 10.0098 C 93.5059 9.42383 93.8965 8.44727 93.2617 6.54297 L 82.4707 -26.4648 L 110.693 -46.875 C 112.207 -47.998 112.5 -49.0234 112.207 -50 C 111.914 -50.9766 111.084 -51.6602 109.131 -51.6602 L 74.3652 -51.6113 L 63.6719 -84.668 C 63.0371 -86.5234 62.207 -87.1094 61.1816 -87.1094 C 60.1562 -87.1094 59.2773 -86.5234 58.6426 -84.668 L 47.998 -51.6113 L 13.2324 -51.6602 C 11.2793 -51.6602 10.4004 -50.9766 10.1074 -50 C 9.81445 -49.0234 10.1074 -47.998 11.6211 -46.875 L 39.8438 -26.4648 L 29.0527 6.54297 C 28.418 8.44727 28.8086 9.42383 29.6875 10.0098 Z"/>
  </g>
  <g id="Black-S" transform="matrix(1 0 0 1 2879.74 696)">
   <path d="M 25.4395 3.80859 C 28.3203 6.00586 31.8359 5.41992 35.4492 2.73438 L 53.6621 -10.6445 L 71.8262 2.73438 C 75.4883 5.41992 79.0039 6.00586 81.8848 3.80859 C 84.7168 1.66016 85.3027 -1.9043 83.8867 -6.00586 L 76.6602 -27.3438 L 95.0195 -40.4785 C 98.6328 -43.0664 100.293 -46.2402 99.1211 -49.6582 C 97.9492 -53.0762 94.7754 -54.6875 90.3809 -54.6387 L 67.9199 -54.4434 L 61.084 -75.9766 C 59.7168 -80.2246 57.2266 -82.7148 53.6621 -82.7148 C 50.0977 -82.7148 47.6074 -80.2246 46.2402 -75.9766 L 39.4043 -54.4434 L 16.8945 -54.6387 C 12.5488 -54.6875 9.375 -53.0762 8.20312 -49.707 C 6.98242 -46.2402 8.69141 -43.0664 12.3047 -40.4785 L 30.6641 -27.3438 L 23.4375 -6.00586 C 22.0215 -1.9043 22.6074 1.66016 25.4395 3.80859 Z"/>
  </g>
  <g id="Heavy-S" transform="matrix(1 0 0 1 2583.71 696)">
   <path d="M 25.1465 3.4668 C 27.7832 5.46875 31.0059 4.88281 34.375 2.39258 L 52.9785 -11.2793 L 71.5332 2.39258 C 74.9512 4.88281 78.1738 5.46875 80.8105 3.4668 C 83.3984 1.51367 83.8867 -1.75781 82.5684 -5.61523 L 75.1953 -27.4414 L 93.9453 -40.8691 C 97.3145 -43.2617 98.877 -46.1426 97.8027 -49.2676 C 96.7285 -52.3926 93.8477 -53.8574 89.7461 -53.8086 L 66.748 -53.6133 L 59.7656 -75.5859 C 58.4961 -79.5898 56.25 -81.8848 52.9785 -81.8848 C 49.7559 -81.8848 47.4609 -79.5898 46.1914 -75.5859 L 39.209 -53.6133 L 16.2109 -53.8086 C 12.1094 -53.8574 9.22852 -52.3926 8.1543 -49.3164 C 7.08008 -46.1426 8.64258 -43.2617 12.0117 -40.8691 L 30.7617 -27.4414 L 23.3887 -5.61523 C 22.0703 -1.75781 22.6074 1.51367 25.1465 3.4668 Z"/>
  </g>
  <g id="Bold-S" transform="matrix(1 0 0 1 2287.76 696)">
   <path d="M 24.8535 3.02734 C 27.1973 4.83398 30.0781 4.29688 33.1543 2.00195 L 52.2461 -12.0117 L 71.2402 2.00195 C 74.3652 4.29688 77.2461 4.83398 79.5898 3.02734 C 81.8848 1.31836 82.3242 -1.5625 81.1035 -5.17578 L 73.5352 -27.4902 L 92.7734 -41.2598 C 95.8984 -43.5059 97.2656 -46.0938 96.3379 -48.8281 C 95.4102 -51.6113 92.8223 -52.8809 88.9648 -52.832 L 65.4785 -52.6367 L 58.3008 -75.1953 C 57.1289 -78.8574 55.127 -80.9082 52.2461 -80.9082 C 49.3164 -80.9082 47.3145 -78.8574 46.1426 -75.1953 L 39.0137 -52.6367 L 15.4297 -52.832 C 11.6699 -52.8809 9.0332 -51.6113 8.10547 -48.877 C 7.12891 -46.0938 8.54492 -43.5059 11.6699 -41.2598 L 30.9082 -27.4902 L 23.3398 -5.17578 C 22.1191 -1.5625 22.5586 1.31836 24.8535 3.02734 Z"/>
  </g>
  <g id="Semibold-S" transform="matrix(1 0 0 1 1991.56 696)">
   <path d="M 24.6582 2.7832 C 26.8066 4.39453 29.3945 3.85742 32.3242 1.70898 L 51.709 -12.5 L 71.0449 1.70898 C 73.9746 3.85742 76.6113 4.39453 78.7598 2.7832 C 80.8594 1.17188 81.25 -1.46484 80.127 -4.83398 L 72.4121 -27.5879 L 91.9434 -41.5527 C 94.873 -43.6523 96.1914 -45.9961 95.3125 -48.5352 C 94.4824 -51.0742 92.0898 -52.2461 88.4766 -52.1973 L 64.5508 -52.002 L 57.2754 -74.9023 C 56.1523 -78.3691 54.3457 -80.2734 51.709 -80.2734 C 49.0723 -80.2734 47.2168 -78.3691 46.0938 -74.9023 L 38.8672 -52.002 L 14.8926 -52.1973 C 11.3281 -52.2461 8.93555 -51.0742 8.05664 -48.584 C 7.22656 -45.9961 8.49609 -43.6523 11.4258 -41.5527 L 30.957 -27.5879 L 23.291 -4.83398 C 22.1191 -1.46484 22.5586 1.17188 24.6582 2.7832 Z"/>
  </g>
  <g id="Medium-S" transform="matrix(1 0 0 1 1695.26 696)">
   <path d="M 24.4629 2.53906 C 26.4648 4.05273 28.9062 3.56445 31.7383 1.51367 L 51.3184 -12.8906 L 70.8984 1.51367 C 73.6816 3.56445 76.123 4.05273 78.125 2.53906 C 80.0781 1.07422 80.4688 -1.36719 79.3457 -4.58984 L 71.582 -27.6367 L 91.3574 -41.7969 C 94.1406 -43.75 95.3613 -45.9473 94.5801 -48.3398 C 93.75 -50.6348 91.5527 -51.7578 88.0859 -51.709 L 63.8672 -51.5137 L 56.543 -74.6582 C 55.4688 -77.9785 53.7598 -79.7852 51.3184 -79.7852 C 48.8281 -79.7852 47.168 -77.9785 46.0938 -74.6582 L 38.7207 -51.5137 L 14.502 -51.709 C 11.084 -51.7578 8.83789 -50.6348 8.05664 -48.3398 C 7.27539 -45.9473 8.49609 -43.75 11.2793 -41.7969 L 31.0547 -27.6367 L 23.291 -4.58984 C 22.168 -1.36719 22.5586 1.07422 24.4629 2.53906 Z"/>
  </g>
  <g id="Regular-S" transform="matrix(1 0 0 1 1399.06 696)">
   <path d="M 24.2676 2.29492 C 26.0742 3.66211 28.2715 3.125 30.9082 1.2207 L 50.7812 -13.3789 L 70.7031 1.2207 C 73.291 3.125 75.4883 3.66211 77.2949 2.29492 C 79.0527 0.976562 79.3945 -1.26953 78.3203 -4.29688 L 70.459 -27.6855 L 90.5273 -42.0898 C 93.1641 -43.8965 94.2871 -45.8984 93.5547 -48.0469 C 92.8711 -50.0977 90.8203 -51.123 87.5977 -51.0742 L 62.9883 -50.8789 L 55.5176 -74.4141 C 54.541 -77.4902 53.0273 -79.1016 50.7812 -79.1016 C 48.584 -79.1016 47.0703 -77.4902 46.0449 -74.4141 L 38.5742 -50.8789 L 13.9648 -51.0742 C 10.7422 -51.123 8.74023 -50.0977 8.00781 -48.0469 C 7.32422 -45.8984 8.44727 -43.8965 11.0352 -42.0898 L 31.1035 -27.6855 L 23.2422 -4.29688 C 22.168 -1.26953 22.5098 0.976562 24.2676 2.29492 Z"/>
  </g>
  <g id="Light-S" transform="matrix(1 0 0 1 1103.26 696)">
   <path d="M 23.9258 1.61133 C 25.3906 2.73438 27.1484 2.39258 29.3457 0.78125 L 49.9023 -14.3066 L 70.459 0.78125 C 72.6074 2.39258 74.3652 2.73438 75.8301 1.61133 C 77.2461 0.585938 77.5391 -1.17188 76.709 -3.75977 L 68.6035 -27.8809 L 89.3555 -42.7734 C 91.5039 -44.3359 92.334 -45.9473 91.7969 -47.6562 C 91.2109 -49.3164 89.6484 -50.1465 86.9141 -50.1465 L 61.5234 -50 L 53.7598 -74.2676 C 52.9297 -76.8066 51.6602 -78.125 49.9023 -78.125 C 48.0957 -78.125 46.875 -76.8066 45.9961 -74.2676 L 38.2812 -50 L 12.8418 -50.1465 C 10.1562 -50.1465 8.54492 -49.3164 7.95898 -47.6562 C 7.42188 -45.9473 8.25195 -44.3359 10.4492 -42.7734 L 31.1523 -27.8809 L 23.0957 -3.75977 C 22.2168 -1.17188 22.5586 0.585938 23.9258 1.61133 Z"/>
  </g>
  <g id="Thin-S" transform="matrix(1 0 0 1 807.741 696)">
   <path d="M 23.4863 0.78125 C 24.4629 1.51367 25.6836 1.36719 27.2461 0.244141 L 48.6816 -15.4785 L 70.1172 0.244141 C 71.6797 1.36719 72.9004 1.51367 73.877 0.78125 C 74.8535 0.0976562 75.1465 -1.07422 74.5117 -3.02734 L 66.2109 -28.1738 L 87.7441 -43.75 C 89.3555 -44.873 89.7949 -45.9961 89.4531 -47.168 C 89.0625 -48.291 88.0371 -48.9258 86.0352 -48.9258 L 59.5215 -48.8281 L 51.416 -74.0723 C 50.7812 -75.9766 49.9023 -76.7578 48.6816 -76.7578 C 47.5098 -76.7578 46.582 -75.9766 45.9473 -74.0723 L 37.8418 -48.8281 L 11.3281 -48.9258 C 9.32617 -48.9258 8.30078 -48.291 7.91016 -47.168 C 7.56836 -45.9961 8.05664 -44.873 9.61914 -43.75 L 31.1523 -28.1738 L 22.8516 -3.02734 C 22.2168 -1.07422 22.5586 0.0976562 23.4863 0.78125 Z"/>
  </g>
  <g id="Ultralight-S" transform="matrix(1 0 0 1 511.64 696)">
   <path d="M 23.291 0.341797 C 24.0234 0.878906 24.9023 0.830078 26.2207 -0.0976562 L 48.0957 -16.0645 L 69.9707 -0.0976562 C 71.2402 0.830078 72.1191 0.878906 72.8516 0.341797 C 73.6328 -0.195312 73.9258 -1.02539 73.3887 -2.63672 L 64.9902 -28.3203 L 86.9629 -44.2383 C 88.2324 -45.166 88.5254 -46.0449 88.2324 -46.875 C 87.9883 -47.7539 87.2559 -48.291 85.5957 -48.291 L 58.4961 -48.2422 L 50.1953 -73.9746 C 49.707 -75.5371 48.9746 -76.0742 48.0957 -76.0742 C 47.168 -76.0742 46.4355 -75.5371 45.9473 -73.9746 L 37.6465 -48.2422 L 10.5469 -48.291 C 8.93555 -48.291 8.1543 -47.7539 7.91016 -46.875 C 7.61719 -46.0449 7.91016 -45.166 9.22852 -44.2383 L 31.2012 -28.3203 L 22.7539 -2.63672 C 22.2656 -1.02539 22.5586 -0.195312 23.291 0.341797 Z"/>
  </g>
 </g>
</svg>
