<?xml version="1.0" encoding="UTF-8"?>
<!--Generator: Apple Native CoreSVG 129-->
<!DOCTYPE svg
PUBLIC "-//W3C//DTD SVG 1.1//EN"
       "http://www.w3.org/Graphics/SVG/1.1/DTD/svg11.dtd">
<svg version="1.1" xmlns="http://www.w3.org/2000/svg" xmlns:xlink="http://www.w3.org/1999/xlink" width="3300" height="2200">
 <!--glyph: "uni100189.medium", point size: 100.000000, font version: "Version 16.0d9e1", template writer version: "8"-->
 <g id="Notes">
  <rect height="2200" id="artboard" style="fill:white;opacity:1" width="3300" x="0" y="0"/>
  <line id="" style="fill:none;stroke:black;opacity:1;stroke-width:0.5;" x1="263" x2="3036" y1="292" y2="292"/>
  <text style="stroke:none;fill:black;font-family:-apple-system,&quot;SF Pro Display&quot;,&quot;SF Pro Text&quot;,Helvetica,sans-serif;font-weight:bold;" transform="matrix(1 0 0 1 263 322)">Weight/Scale Variations</text>
  <text style="stroke:none;fill:black;font-family:-apple-system,&quot;SF Pro Display&quot;,&quot;SF Pro Text&quot;,Helvetica,sans-serif;text-anchor:middle;" transform="matrix(1 0 0 1 559.711 322)">Ultralight</text>
  <text style="stroke:none;fill:black;font-family:-apple-system,&quot;SF Pro Display&quot;,&quot;SF Pro Text&quot;,Helvetica,sans-serif;text-anchor:middle;" transform="matrix(1 0 0 1 856.422 322)">Thin</text>
  <text style="stroke:none;fill:black;font-family:-apple-system,&quot;SF Pro Display&quot;,&quot;SF Pro Text&quot;,Helvetica,sans-serif;text-anchor:middle;" transform="matrix(1 0 0 1 1153.13 322)">Light</text>
  <text style="stroke:none;fill:black;font-family:-apple-system,&quot;SF Pro Display&quot;,&quot;SF Pro Text&quot;,Helvetica,sans-serif;text-anchor:middle;" transform="matrix(1 0 0 1 1449.84 322)">Regular</text>
  <text style="stroke:none;fill:black;font-family:-apple-system,&quot;SF Pro Display&quot;,&quot;SF Pro Text&quot;,Helvetica,sans-serif;text-anchor:middle;" transform="matrix(1 0 0 1 1746.56 322)">Medium</text>
  <text style="stroke:none;fill:black;font-family:-apple-system,&quot;SF Pro Display&quot;,&quot;SF Pro Text&quot;,Helvetica,sans-serif;text-anchor:middle;" transform="matrix(1 0 0 1 2043.27 322)">Semibold</text>
  <text style="stroke:none;fill:black;font-family:-apple-system,&quot;SF Pro Display&quot;,&quot;SF Pro Text&quot;,Helvetica,sans-serif;text-anchor:middle;" transform="matrix(1 0 0 1 2339.98 322)">Bold</text>
  <text style="stroke:none;fill:black;font-family:-apple-system,&quot;SF Pro Display&quot;,&quot;SF Pro Text&quot;,Helvetica,sans-serif;text-anchor:middle;" transform="matrix(1 0 0 1 2636.69 322)">Heavy</text>
  <text style="stroke:none;fill:black;font-family:-apple-system,&quot;SF Pro Display&quot;,&quot;SF Pro Text&quot;,Helvetica,sans-serif;text-anchor:middle;" transform="matrix(1 0 0 1 2933.4 322)">Black</text>
  <line id="" style="fill:none;stroke:black;opacity:1;stroke-width:0.5;" x1="263" x2="3036" y1="1903" y2="1903"/>
  <g id="" transform="matrix(1 0 0 1 263 1933)">
   <path d="M 9.24805 0.830078 C 13.5547 0.830078 17.1387 -2.74414 17.1387 -7.05078 C 17.1387 -11.3574 13.5449 -14.9316 9.23828 -14.9316 C 4.94141 -14.9316 1.36719 -11.3574 1.36719 -7.05078 C 1.36719 -2.74414 4.95117 0.830078 9.24805 0.830078 Z M 9.24805 -0.654297 C 5.70312 -0.654297 2.87109 -3.49609 2.87109 -7.05078 C 2.87109 -10.6055 5.69336 -13.4473 9.23828 -13.4473 C 12.793 -13.4473 15.6348 -10.6055 15.6445 -7.05078 C 15.6543 -3.49609 12.8027 -0.654297 9.24805 -0.654297 Z M 9.22852 -3.62305 C 9.69727 -3.62305 9.9707 -3.93555 9.9707 -4.45312 L 9.9707 -6.31836 L 12.002 -6.31836 C 12.5 -6.31836 12.832 -6.57227 12.832 -7.04102 C 12.832 -7.51953 12.5195 -7.7832 12.002 -7.7832 L 9.9707 -7.7832 L 9.9707 -9.81445 C 9.9707 -10.332 9.69727 -10.6543 9.22852 -10.6543 C 8.75977 -10.6543 8.50586 -10.3125 8.50586 -9.81445 L 8.50586 -7.7832 L 6.49414 -7.7832 C 5.97656 -7.7832 5.64453 -7.51953 5.64453 -7.04102 C 5.64453 -6.57227 5.99609 -6.31836 6.49414 -6.31836 L 8.50586 -6.31836 L 8.50586 -4.45312 C 8.50586 -3.95508 8.75977 -3.62305 9.22852 -3.62305 Z"/>
  </g>
  <g id="" transform="matrix(1 0 0 1 281.506 1933)">
   <path d="M 11.709 2.91016 C 17.1582 2.91016 21.6699 -1.61133 21.6699 -7.05078 C 21.6699 -12.5 17.1484 -17.0117 11.6992 -17.0117 C 6.25977 -17.0117 1.74805 -12.5 1.74805 -7.05078 C 1.74805 -1.61133 6.26953 2.91016 11.709 2.91016 Z M 11.709 1.25 C 7.09961 1.25 3.41797 -2.44141 3.41797 -7.05078 C 3.41797 -11.6602 7.08984 -15.3516 11.6992 -15.3516 C 16.3086 -15.3516 20 -11.6602 20.0098 -7.05078 C 20.0195 -2.44141 16.3184 1.25 11.709 1.25 Z M 11.6797 -2.66602 C 12.207 -2.66602 12.5098 -3.01758 12.5098 -3.59375 L 12.5098 -6.23047 L 15.3223 -6.23047 C 15.8691 -6.23047 16.25 -6.51367 16.25 -7.03125 C 16.25 -7.55859 15.8887 -7.86133 15.3223 -7.86133 L 12.5098 -7.86133 L 12.5098 -10.6836 C 12.5098 -11.25 12.207 -11.6113 11.6797 -11.6113 C 11.1621 -11.6113 10.8789 -11.2305 10.8789 -10.6836 L 10.8789 -7.86133 L 8.07617 -7.86133 C 7.50977 -7.86133 7.13867 -7.55859 7.13867 -7.03125 C 7.13867 -6.51367 7.5293 -6.23047 8.07617 -6.23047 L 10.8789 -6.23047 L 10.8789 -3.59375 C 10.8789 -3.03711 11.1621 -2.66602 11.6797 -2.66602 Z"/>
  </g>
  <g id="" transform="matrix(1 0 0 1 304.924 1933)">
   <path d="M 14.9707 5.66406 C 21.9336 5.66406 27.6953 -0.0976562 27.6953 -7.05078 C 27.6953 -14.0137 21.9238 -19.7754 14.9609 -19.7754 C 8.00781 -19.7754 2.25586 -14.0137 2.25586 -7.05078 C 2.25586 -0.0976562 8.01758 5.66406 14.9707 5.66406 Z M 14.9707 3.84766 C 8.93555 3.84766 4.08203 -1.01562 4.08203 -7.05078 C 4.08203 -13.0957 8.92578 -17.9492 14.9609 -17.9492 C 21.0059 -17.9492 25.8594 -13.0957 25.8691 -7.05078 C 25.8789 -1.01562 21.0156 3.84766 14.9707 3.84766 Z M 14.9414 -1.38672 C 15.5176 -1.38672 15.8594 -1.77734 15.8594 -2.38281 L 15.8594 -6.13281 L 19.7754 -6.13281 C 20.3711 -6.13281 20.7812 -6.46484 20.7812 -7.02148 C 20.7812 -7.59766 20.3906 -7.93945 19.7754 -7.93945 L 15.8594 -7.93945 L 15.8594 -11.8652 C 15.8594 -12.4805 15.5176 -12.8711 14.9414 -12.8711 C 14.375 -12.8711 14.0527 -12.4609 14.0527 -11.8652 L 14.0527 -7.93945 L 10.1465 -7.93945 C 9.53125 -7.93945 9.13086 -7.59766 9.13086 -7.02148 C 9.13086 -6.46484 9.55078 -6.13281 10.1465 -6.13281 L 14.0527 -6.13281 L 14.0527 -2.38281 C 14.0527 -1.79688 14.375 -1.38672 14.9414 -1.38672 Z"/>
  </g>
  <text style="stroke:none;fill:black;font-family:-apple-system,&quot;SF Pro Display&quot;,&quot;SF Pro Text&quot;,Helvetica,sans-serif;font-weight:bold;" transform="matrix(1 0 0 1 263 1953)">Design Variations</text>
  <text style="stroke:none;fill:black;font-family:-apple-system,&quot;SF Pro Display&quot;,&quot;SF Pro Text&quot;,Helvetica,sans-serif;" transform="matrix(1 0 0 1 263 1971)">Symbols are supported in up to nine weights and three scales.</text>
  <text style="stroke:none;fill:black;font-family:-apple-system,&quot;SF Pro Display&quot;,&quot;SF Pro Text&quot;,Helvetica,sans-serif;" transform="matrix(1 0 0 1 263 1989)">For optimal layout with text and other symbols, vertically align</text>
  <text style="stroke:none;fill:black;font-family:-apple-system,&quot;SF Pro Display&quot;,&quot;SF Pro Text&quot;,Helvetica,sans-serif;" transform="matrix(1 0 0 1 263 2007)">symbols with the adjacent text.</text>
  <line id="" style="fill:none;stroke:#00AEEF;stroke-width:0.5;opacity:1.0;" x1="776" x2="776" y1="1919" y2="1933"/>
  <g id="" transform="matrix(1 0 0 1 776 1933)">
   <path d="M 3.31055 0.126953 C 3.82812 0.126953 4.08203 -0.0683594 4.26758 -0.605469 L 5.52734 -4.0625 L 11.2891 -4.0625 L 12.5488 -0.605469 C 12.7344 -0.0683594 12.9883 0.126953 13.4961 0.126953 C 14.0137 0.126953 14.3457 -0.185547 14.3457 -0.673828 C 14.3457 -0.839844 14.3164 -0.986328 14.2383 -1.20117 L 9.6582 -13.3887 C 9.43359 -13.9941 9.0332 -14.2871 8.4082 -14.2871 C 7.80273 -14.2871 7.39258 -13.9941 7.17773 -13.3984 L 2.59766 -1.19141 C 2.51953 -0.976562 2.49023 -0.830078 2.49023 -0.664062 C 2.49023 -0.175781 2.80273 0.126953 3.31055 0.126953 Z M 6.00586 -5.53711 L 8.37891 -12.1094 L 8.42773 -12.1094 L 10.8008 -5.53711 Z"/>
  </g>
  <line id="" style="fill:none;stroke:#00AEEF;stroke-width:0.5;opacity:1.0;" x1="792.836" x2="792.836" y1="1919" y2="1933"/>
  <text style="stroke:none;fill:black;font-family:-apple-system,&quot;SF Pro Display&quot;,&quot;SF Pro Text&quot;,Helvetica,sans-serif;font-weight:bold;" transform="matrix(1 0 0 1 776 1953)">Margins</text>
  <text style="stroke:none;fill:black;font-family:-apple-system,&quot;SF Pro Display&quot;,&quot;SF Pro Text&quot;,Helvetica,sans-serif;" transform="matrix(1 0 0 1 776 1971)">Leading and trailing margins on the left and right side of each symbol</text>
  <text style="stroke:none;fill:black;font-family:-apple-system,&quot;SF Pro Display&quot;,&quot;SF Pro Text&quot;,Helvetica,sans-serif;" transform="matrix(1 0 0 1 776 1989)">can be adjusted by modifying the x-location of the margin guidelines.</text>
  <text style="stroke:none;fill:black;font-family:-apple-system,&quot;SF Pro Display&quot;,&quot;SF Pro Text&quot;,Helvetica,sans-serif;" transform="matrix(1 0 0 1 776 2007)">Modifications are automatically applied proportionally to all</text>
  <text style="stroke:none;fill:black;font-family:-apple-system,&quot;SF Pro Display&quot;,&quot;SF Pro Text&quot;,Helvetica,sans-serif;" transform="matrix(1 0 0 1 776 2025)">scales and weights.</text>
  <g id="" transform="matrix(1 0 0 1 1289 1933)">
   <path d="M 2.8418 1.86523 L 4.54102 3.57422 C 5.40039 4.44336 6.38672 4.38477 7.31445 3.35938 L 17.4902 -7.85156 C 17.7539 -7.76367 18.0273 -7.7832 18.3398 -7.8418 L 19.4043 -8.03711 L 20.0684 -7.36328 L 20.0293 -6.80664 C 19.9902 -6.30859 20.1172 -5.92773 20.6055 -5.44922 L 21.3672 -4.70703 C 21.8457 -4.22852 22.4609 -4.19922 22.9297 -4.66797 L 25.8398 -7.58789 C 26.3086 -8.05664 26.2891 -8.65234 25.8105 -9.13086 L 25.0391 -9.89258 C 24.5605 -10.3711 24.1895 -10.5273 23.7109 -10.4883 L 23.1348 -10.4395 L 22.4902 -11.0742 L 22.7344 -12.1973 C 22.8613 -12.7637 22.7051 -13.2031 22.1191 -13.7891 L 19.9219 -15.9766 C 16.582 -19.2969 12.1484 -19.2188 9.25781 -16.3281 C 8.83789 -15.918 8.80859 -15.3418 9.04297 -14.9512 C 9.27734 -14.5898 9.73633 -14.3555 10.3809 -14.5215 C 11.8457 -14.8633 13.3691 -14.9219 14.7949 -13.9844 L 14.209 -12.5293 C 14.0137 -12.0508 13.9844 -11.6504 14.1113 -11.2891 L 3.04688 -0.898438 C 2.06055 0.0195312 1.98242 0.996094 2.8418 1.86523 Z M 10.752 -15.957 C 13.1836 -17.7344 16.4746 -17.4316 18.7012 -15.2051 L 21.1328 -12.793 C 21.3672 -12.5586 21.4062 -12.373 21.3379 -12.0312 L 21.0156 -10.5469 L 22.5195 -9.0625 L 23.5059 -9.12109 C 23.7598 -9.13086 23.8379 -9.11133 24.0332 -8.91602 L 24.6094 -8.33984 L 22.168 -5.89844 L 21.5918 -6.47461 C 21.3965 -6.66992 21.3672 -6.74805 21.377 -7.01172 L 21.4453 -7.98828 L 19.9512 -9.47266 L 18.4277 -9.21875 C 18.1055 -9.15039 17.959 -9.17969 17.7148 -9.41406 L 15.7129 -11.416 C 15.459 -11.6504 15.4297 -11.8164 15.5859 -12.1875 L 16.4648 -14.2773 C 14.9023 -15.7324 12.8711 -16.3574 10.8398 -15.7617 C 10.6836 -15.7227 10.625 -15.8496 10.752 -15.957 Z M 5.27344 2.30469 L 4.10156 1.14258 C 3.63281 0.683594 3.74023 0.341797 4.14062 -0.0195312 L 14.9512 -10.1953 L 16.416 -8.71094 L 6.42578 2.27539 C 6.07422 2.67578 5.74219 2.77344 5.27344 2.30469 Z"/>
  </g>
  <text style="stroke:none;fill:black;font-family:-apple-system,&quot;SF Pro Display&quot;,&quot;SF Pro Text&quot;,Helvetica,sans-serif;font-weight:bold;" transform="matrix(1 0 0 1 1289 1953)">Exporting</text>
  <text style="stroke:none;fill:black;font-family:-apple-system,&quot;SF Pro Display&quot;,&quot;SF Pro Text&quot;,Helvetica,sans-serif;" transform="matrix(1 0 0 1 1289 1971)">Symbols should be outlined when exporting to ensure the</text>
  <text style="stroke:none;fill:black;font-family:-apple-system,&quot;SF Pro Display&quot;,&quot;SF Pro Text&quot;,Helvetica,sans-serif;" transform="matrix(1 0 0 1 1289 1989)">design is preserved when submitting to Xcode.</text>
  <text id="template-version" style="stroke:none;fill:black;font-family:-apple-system,&quot;SF Pro Display&quot;,&quot;SF Pro Text&quot;,Helvetica,sans-serif;text-anchor:end;" transform="matrix(1 0 0 1 3036 1933)">Template v.2.0</text>
  <text style="stroke:none;fill:black;font-family:-apple-system,&quot;SF Pro Display&quot;,&quot;SF Pro Text&quot;,Helvetica,sans-serif;text-anchor:end;" transform="matrix(1 0 0 1 3036 1951)">Requires Xcode 12 or greater</text>
  <text style="stroke:none;fill:black;font-family:-apple-system,&quot;SF Pro Display&quot;,&quot;SF Pro Text&quot;,Helvetica,sans-serif;text-anchor:end;" transform="matrix(1 0 0 1 3036 1969)">Generated from chevron.left</text>
  <text style="stroke:none;fill:black;font-family:-apple-system,&quot;SF Pro Display&quot;,&quot;SF Pro Text&quot;,Helvetica,sans-serif;text-anchor:end;" transform="matrix(1 0 0 1 3036 1987)">Typeset at 100 points</text>
  <text style="stroke:none;fill:black;font-family:-apple-system,&quot;SF Pro Display&quot;,&quot;SF Pro Text&quot;,Helvetica,sans-serif;" transform="matrix(1 0 0 1 263 726)">Small</text>
  <text style="stroke:none;fill:black;font-family:-apple-system,&quot;SF Pro Display&quot;,&quot;SF Pro Text&quot;,Helvetica,sans-serif;" transform="matrix(1 0 0 1 263 1156)">Medium</text>
  <text style="stroke:none;fill:black;font-family:-apple-system,&quot;SF Pro Display&quot;,&quot;SF Pro Text&quot;,Helvetica,sans-serif;" transform="matrix(1 0 0 1 263 1586)">Large</text>
 </g>
 <g id="Guides">
  <g id="H-reference" style="fill:#27AAE1;stroke:none;" transform="matrix(1 0 0 1 339 696)">
   <path d="M 0.976562 0 L 3.66211 0 L 12.9883 -24.4629 L 45.7031 -24.4629 L 55.0781 0 L 57.7148 0 L 30.6152 -70.459 L 28.125 -70.459 Z M 29.2969 -67.1387 L 29.3945 -67.1387 L 44.873 -26.709 L 13.8672 -26.709 Z"/>
  </g>
  <line id="Baseline-S" style="fill:none;stroke:#27AAE1;opacity:1;stroke-width:0.5;" x1="263" x2="3036" y1="696" y2="696"/>
  <line id="Capline-S" style="fill:none;stroke:#27AAE1;opacity:1;stroke-width:0.5;" x1="263" x2="3036" y1="625.541" y2="625.541"/>
  <g id="H-reference" style="fill:#27AAE1;stroke:none;" transform="matrix(1 0 0 1 339 1126)">
   <path d="M 0.976562 0 L 3.66211 0 L 12.9883 -24.4629 L 45.7031 -24.4629 L 55.0781 0 L 57.7148 0 L 30.6152 -70.459 L 28.125 -70.459 Z M 29.2969 -67.1387 L 29.3945 -67.1387 L 44.873 -26.709 L 13.8672 -26.709 Z"/>
  </g>
  <line id="Baseline-M" style="fill:none;stroke:#27AAE1;opacity:1;stroke-width:0.5;" x1="263" x2="3036" y1="1126" y2="1126"/>
  <line id="Capline-M" style="fill:none;stroke:#27AAE1;opacity:1;stroke-width:0.5;" x1="263" x2="3036" y1="1055.54" y2="1055.54"/>
  <g id="H-reference" style="fill:#27AAE1;stroke:none;" transform="matrix(1 0 0 1 339 1556)">
   <path d="M 0.976562 0 L 3.66211 0 L 12.9883 -24.4629 L 45.7031 -24.4629 L 55.0781 0 L 57.7148 0 L 30.6152 -70.459 L 28.125 -70.459 Z M 29.2969 -67.1387 L 29.3945 -67.1387 L 44.873 -26.709 L 13.8672 -26.709 Z"/>
  </g>
  <line id="Baseline-L" style="fill:none;stroke:#27AAE1;opacity:1;stroke-width:0.5;" x1="263" x2="3036" y1="1556" y2="1556"/>
  <line id="Capline-L" style="fill:none;stroke:#27AAE1;opacity:1;stroke-width:0.5;" x1="263" x2="3036" y1="1485.54" y2="1485.54"/>
  <line id="left-margin" style="fill:none;stroke:#00AEEF;stroke-width:0.5;opacity:1.0;" x1="1413.52" x2="1413.52" y1="1030.79" y2="1150.12"/>
  <line id="right-margin" style="fill:none;stroke:#00AEEF;stroke-width:0.5;opacity:1.0;" x1="1486.17" x2="1486.17" y1="1030.79" y2="1150.12"/>
 </g>
 <g id="Symbols">
  <g id="Black-L" transform="matrix(1 0 0 1 2880.86 1556)">
   <path d="M 67.2363 20.9961 L 20.9473 -24.5117 C 17.5293 -27.9297 16.0645 -31.2012 16.0645 -35.2539 C 16.1133 -39.4043 17.627 -42.627 20.9473 -45.9961 L 67.2363 -91.5039 C 69.7266 -93.9453 72.5586 -95.0684 76.0742 -95.0684 C 83.1543 -95.0684 89.0137 -89.3066 89.0137 -82.3242 C 89.0137 -78.8574 87.5488 -75.5371 84.7656 -72.8516 L 45.9961 -35.3516 L 84.7656 2.29492 C 87.5 5.0293 89.0137 8.25195 89.0137 11.8164 C 89.0137 18.7988 83.1543 24.6094 76.0742 24.6094 C 72.6074 24.6094 69.7754 23.3887 67.2363 20.9961 Z"/>
  </g>
  <g id="Heavy-L" transform="matrix(1 0 0 1 2585.66 1556)">
   <path d="M 67.3828 19.9707 L 20.2148 -26.1719 C 17.334 -29.0527 16.0645 -31.8359 16.0645 -35.2539 C 16.1133 -38.7695 17.3828 -41.5527 20.2148 -44.3359 L 67.3828 -90.4785 C 69.4824 -92.5781 71.9727 -93.5547 74.9512 -93.5547 C 81.0059 -93.5547 85.9863 -88.623 85.9863 -82.666 C 85.9863 -79.6875 84.7656 -76.8555 82.4219 -74.6094 L 41.748 -35.3516 L 82.4219 4.05273 C 84.7168 6.34766 85.9863 9.13086 85.9863 12.1582 C 85.9863 18.1152 81.0059 23.0469 74.9512 23.0469 C 71.9727 23.0469 69.5312 22.0215 67.3828 19.9707 Z"/>
  </g>
  <g id="Bold-L" transform="matrix(1 0 0 1 2290.64 1556)">
   <path d="M 67.5781 18.7988 L 19.3359 -28.0273 C 17.0898 -30.2734 16.0645 -32.5195 16.0645 -35.2539 C 16.1133 -38.0371 17.1387 -40.332 19.3359 -42.5293 L 67.5781 -89.3066 C 69.2871 -91.0156 71.2891 -91.8457 73.7305 -91.8457 C 78.6133 -91.8457 82.6172 -87.8906 82.6172 -83.0078 C 82.6172 -80.6641 81.6406 -78.3691 79.7852 -76.5625 L 37.0117 -35.3027 L 79.7852 6.00586 C 81.5918 7.8125 82.6172 10.0586 82.6172 12.5 C 82.6172 17.3828 78.6133 21.3379 73.7305 21.3379 C 71.2891 21.3379 69.2871 20.459 67.5781 18.7988 Z"/>
  </g>
  <g id="Semibold-L" transform="matrix(1 0 0 1 1995.1 1556)">
   <path d="M 67.6758 17.9688 L 18.75 -29.3457 C 16.9434 -31.1523 16.0645 -33.0078 16.0645 -35.2539 C 16.0645 -37.5488 16.9922 -39.502 18.75 -41.2109 L 67.6758 -88.5254 C 69.1406 -89.9414 70.8008 -90.6738 72.8516 -90.6738 C 77.002 -90.6738 80.2734 -87.4023 80.2734 -83.3008 C 80.2734 -81.2988 79.4434 -79.3945 77.9785 -77.9297 L 33.7402 -35.3027 L 77.9785 7.37305 C 79.4434 8.83789 80.2734 10.6934 80.2734 12.7441 C 80.2734 16.8457 77.002 20.1172 72.8516 20.1172 C 70.8008 20.1172 69.0918 19.3359 67.6758 17.9688 Z"/>
  </g>
  <g id="Medium-L" transform="matrix(1 0 0 1 1699.27 1556)">
   <path d="M 67.7734 17.334 L 18.3105 -30.3223 C 16.8457 -31.7871 16.0645 -33.3984 16.0645 -35.2539 C 16.0645 -37.1582 16.8457 -38.8672 18.3105 -40.2832 L 67.7734 -87.9395 C 68.9941 -89.1113 70.459 -89.7949 72.2168 -89.7949 C 75.7324 -89.7949 78.5156 -87.0117 78.5156 -83.4961 C 78.5156 -81.7871 77.832 -80.1758 76.6113 -78.9062 L 31.25 -35.3027 L 76.6113 8.39844 C 77.832 9.61914 78.5156 11.1816 78.5156 12.9395 C 78.5156 16.4551 75.7324 19.2383 72.2168 19.2383 C 70.459 19.2383 68.9941 18.5547 67.7734 17.334 Z"/>
  </g>
  <g id="Regular-L" transform="matrix(1 0 0 1 1403.7 1556)">
   <path d="M 67.8711 16.5527 L 17.7246 -31.5918 C 16.6504 -32.6172 16.0645 -33.8379 16.0645 -35.2539 C 16.0645 -36.6699 16.6992 -38.0371 17.7734 -39.0137 L 67.9199 -87.1582 C 68.8477 -88.0859 69.9707 -88.623 71.3379 -88.623 C 74.1211 -88.623 76.2207 -86.5234 76.2207 -83.7402 C 76.2207 -82.4707 75.6836 -81.2012 74.8047 -80.2734 L 28.0273 -35.3027 L 74.8047 9.7168 C 75.6836 10.5957 76.2207 11.8164 76.2207 13.1836 C 76.2207 15.918 74.1211 18.0176 71.3379 18.0176 C 69.9707 18.0176 68.7988 17.4805 67.8711 16.5527 Z"/>
  </g>
  <g id="Light-L" transform="matrix(1 0 0 1 1107.99 1556)">
   <path d="M 67.9199 14.9414 L 17.4805 -32.2754 C 16.6016 -33.1543 16.0645 -34.1309 16.0645 -35.2539 C 16.0645 -36.4258 16.6504 -37.5 17.5293 -38.2812 L 67.9688 -85.5957 C 68.7012 -86.2793 69.5312 -86.7188 70.5566 -86.7188 C 72.6074 -86.7188 74.2188 -85.1074 74.2188 -83.0566 C 74.2188 -82.0801 73.8281 -81.1035 73.1934 -80.4199 L 25.0488 -35.3027 L 73.1934 9.91211 C 73.8281 10.5469 74.2188 11.4746 74.2188 12.4512 C 74.2188 14.5508 72.6074 16.1133 70.5566 16.1133 C 69.5312 16.1133 68.6523 15.625 67.9199 14.9414 Z"/>
  </g>
  <g id="Thin-L" transform="matrix(1 0 0 1 812.623 1556)">
   <path d="M 68.0176 12.8418 L 17.1387 -33.252 C 16.5039 -33.8867 16.0645 -34.4727 16.0645 -35.2539 C 16.0645 -36.084 16.5527 -36.7676 17.1875 -37.3535 L 68.0664 -83.4961 C 68.5547 -83.8867 68.8965 -84.1797 69.4824 -84.1797 C 70.6543 -84.1797 71.5332 -83.3008 71.5332 -82.1289 C 71.5332 -81.6406 71.3867 -81.0547 70.9961 -80.6641 L 21.0938 -35.3516 L 70.9961 10.1074 C 71.3867 10.4492 71.5332 11.0352 71.5332 11.5234 C 71.5332 12.6465 70.6543 13.5742 69.4824 13.5742 C 68.8965 13.5742 68.457 13.2324 68.0176 12.8418 Z"/>
  </g>
  <g id="Ultralight-L" transform="matrix(1 0 0 1 516.596 1556)">
   <path d="M 68.0176 11.7188 L 16.9434 -33.7402 C 16.4551 -34.2285 16.0645 -34.6191 16.0645 -35.2539 C 16.0645 -35.8887 16.5527 -36.377 17.041 -36.9141 L 68.1152 -82.4219 C 68.457 -82.7148 68.6035 -82.9102 68.9453 -82.9102 C 69.6289 -82.9102 70.166 -82.3242 70.166 -81.6895 C 70.166 -81.3965 70.166 -81.0059 69.873 -80.7617 L 19.043 -35.3516 L 69.873 10.2051 C 70.166 10.4004 70.166 10.791 70.166 11.084 C 70.166 11.7188 69.6289 12.2559 68.9453 12.2559 C 68.6035 12.2559 68.3594 11.9629 68.0176 11.7188 Z"/>
  </g>
  <g id="Black-M" transform="matrix(1 0 0 1 2891.19 1126)">
   <path d="M 51.9531 8.88672 L 17.1387 -25.0977 C 13.8184 -28.3691 12.4512 -31.3965 12.4512 -35.2539 C 12.5 -39.1602 13.916 -42.1387 17.1387 -45.459 L 51.9531 -79.3457 C 54.248 -81.6406 56.7871 -82.666 60.0098 -82.666 C 66.5527 -82.666 71.9727 -77.2949 71.9727 -70.8984 C 71.9727 -67.6758 70.6543 -64.6484 67.9688 -62.1094 L 39.7949 -35.3516 L 67.9688 -8.39844 C 70.5566 -5.85938 71.9727 -2.83203 71.9727 0.439453 C 71.9727 6.83594 66.5527 12.207 60.0098 12.207 C 56.8848 12.207 54.2969 11.1328 51.9531 8.88672 Z"/>
  </g>
  <g id="Heavy-M" transform="matrix(1 0 0 1 2595.87 1126)">
   <path d="M 52.0996 8.20312 L 16.3574 -26.709 C 13.623 -29.4434 12.4512 -32.0312 12.4512 -35.2539 C 12.5 -38.5742 13.6719 -41.1133 16.3574 -43.7988 L 52.0996 -78.6621 C 54.0527 -80.6152 56.25 -81.4941 59.0332 -81.4941 C 64.5996 -81.4941 69.1895 -76.9043 69.1895 -71.4355 C 69.1895 -68.7012 68.0664 -66.1133 65.8691 -64.0137 L 35.9375 -35.3516 L 65.8691 -6.54297 C 68.0176 -4.39453 69.1895 -1.80664 69.1895 0.976562 C 69.1895 6.44531 64.5996 10.9863 59.0332 10.9863 C 56.2988 10.9863 54.1016 10.0586 52.0996 8.20312 Z"/>
  </g>
  <g id="Bold-M" transform="matrix(1 0 0 1 2300.7 1126)">
   <path d="M 52.2461 7.37305 L 15.5273 -28.5156 C 13.3789 -30.6152 12.4512 -32.7148 12.4512 -35.2539 C 12.5 -37.8418 13.4277 -39.9414 15.5273 -41.9922 L 52.2461 -77.8809 C 53.8086 -79.4434 55.6641 -80.1758 57.9102 -80.1758 C 62.4023 -80.1758 66.1133 -76.5137 66.1133 -72.0703 C 66.1133 -69.873 65.1855 -67.7734 63.4766 -66.0645 L 31.5918 -35.3027 L 63.4766 -4.44336 C 65.1367 -2.7832 66.1133 -0.683594 66.1133 1.5625 C 66.1133 6.00586 62.4023 9.66797 57.9102 9.66797 C 55.6641 9.66797 53.8574 8.88672 52.2461 7.37305 Z"/>
  </g>
  <g id="Semibold-M" transform="matrix(1 0 0 1 2005.06 1126)">
   <path d="M 52.3926 6.78711 L 14.9414 -29.7852 C 13.2324 -31.4453 12.4512 -33.2031 12.4512 -35.2539 C 12.4512 -37.3535 13.2812 -39.1113 14.9414 -40.7227 L 52.3926 -77.3438 C 53.6621 -78.6133 55.2246 -79.248 57.1289 -79.248 C 60.8887 -79.248 63.9648 -76.2207 63.9648 -72.4609 C 63.9648 -70.6543 63.1836 -68.8965 61.8164 -67.5293 L 28.6133 -35.3027 L 61.8164 -2.97852 C 63.1836 -1.66016 63.9648 0.0976562 63.9648 1.95312 C 63.9648 5.71289 60.8887 8.74023 57.1289 8.74023 C 55.2734 8.74023 53.7109 8.05664 52.3926 6.78711 Z"/>
  </g>
  <g id="Medium-M" transform="matrix(1 0 0 1 1709.18 1126)">
   <path d="M 52.4414 6.39648 L 14.4531 -30.7617 C 13.1348 -32.0801 12.4512 -33.5449 12.4512 -35.2539 C 12.4512 -36.9629 13.1348 -38.5254 14.502 -39.7949 L 52.4902 -76.9043 C 53.5645 -77.9785 54.9316 -78.5645 56.4941 -78.5645 C 59.7656 -78.5645 62.3047 -76.0254 62.3047 -72.8027 C 62.3047 -71.2402 61.6699 -69.7266 60.5469 -68.6035 L 26.3672 -35.3027 L 60.5469 -1.9043 C 61.6699 -0.78125 62.3047 0.683594 62.3047 2.29492 C 62.3047 5.51758 59.7656 8.05664 56.4941 8.05664 C 54.9316 8.05664 53.5645 7.4707 52.4414 6.39648 Z"/>
  </g>
  <g id="Regular-M" transform="matrix(1 0 0 1 1413.52 1126)">
   <path d="M 52.5879 5.81055 L 13.8672 -31.9824 C 12.9395 -32.9102 12.4512 -34.0332 12.4512 -35.2539 C 12.4512 -36.5234 12.9883 -37.7441 13.916 -38.5254 L 52.5879 -76.3672 C 53.418 -77.1973 54.4922 -77.6855 55.7617 -77.6855 C 58.3008 -77.6855 60.2051 -75.7324 60.2051 -73.1934 C 60.2051 -72.0215 59.7168 -70.8496 58.9355 -70.0195 L 23.3887 -35.2539 L 58.9355 -0.488281 C 59.7168 0.341797 60.2051 1.46484 60.2051 2.68555 C 60.2051 5.22461 58.3008 7.12891 55.7617 7.12891 C 54.4922 7.12891 53.418 6.64062 52.5879 5.81055 Z"/>
  </g>
  <g id="Light-M" transform="matrix(1 0 0 1 1117.71 1126)">
   <path d="M 52.6367 4.39453 L 13.6719 -32.6172 C 12.8906 -33.3984 12.4512 -34.2285 12.4512 -35.2539 C 12.4512 -36.2793 12.9395 -37.207 13.6719 -37.9395 L 52.6367 -74.9512 C 53.3203 -75.5859 54.1016 -75.9766 55.0293 -75.9766 C 56.9336 -75.9766 58.3984 -74.5117 58.3984 -72.6074 C 58.3984 -71.7285 58.0566 -70.8008 57.4707 -70.166 L 20.752 -35.3027 L 57.4707 -0.341797 C 58.0566 0.244141 58.3984 1.12305 58.3984 2.05078 C 58.3984 3.95508 56.9336 5.41992 55.0293 5.41992 C 54.1016 5.41992 53.2715 5.0293 52.6367 4.39453 Z"/>
  </g>
  <g id="Thin-M" transform="matrix(1 0 0 1 822.194 1126)">
   <path d="M 52.6855 2.49023 L 13.3301 -33.4961 C 12.793 -34.0332 12.4512 -34.5703 12.4512 -35.2539 C 12.4512 -35.9863 12.8418 -36.5723 13.3789 -37.1094 L 52.7344 -73.0957 C 53.1738 -73.4863 53.5156 -73.7305 54.1016 -73.7305 C 55.1758 -73.7305 56.0059 -72.8516 56.0059 -71.7773 C 56.0059 -71.2891 55.8594 -70.752 55.5176 -70.3613 L 17.1875 -35.3027 L 55.5176 -0.146484 C 55.8594 0.195312 56.0059 0.732422 56.0059 1.2207 C 56.0059 2.29492 55.1758 3.125 54.1016 3.125 C 53.5156 3.125 53.125 2.83203 52.6855 2.49023 Z"/>
  </g>
  <g id="Ultralight-M" transform="matrix(1 0 0 1 526.093 1126)">
   <path d="M 52.7344 1.51367 L 13.1836 -33.9355 C 12.7441 -34.375 12.4512 -34.7168 12.4512 -35.2539 C 12.4512 -35.791 12.8418 -36.2305 13.2324 -36.6699 L 52.7832 -72.1191 C 53.0762 -72.3633 53.2715 -72.5586 53.6133 -72.5586 C 54.248 -72.5586 54.7852 -72.0215 54.7852 -71.3867 C 54.7852 -71.0938 54.7363 -70.7031 54.4922 -70.459 L 15.3809 -35.3027 L 54.4922 -0.0488281 C 54.7363 0.146484 54.7852 0.488281 54.7852 0.78125 C 54.7852 1.46484 54.248 1.95312 53.6133 1.95312 C 53.2715 1.95312 53.0273 1.70898 52.7344 1.51367 Z"/>
  </g>
  <g id="Black-S" transform="matrix(1 0 0 1 2900.42 696)">
   <path d="M 40.7227 -0.683594 L 13.3789 -27.3926 C 10.8398 -29.9316 9.76562 -32.2754 9.76562 -35.2539 C 9.81445 -38.2812 10.8887 -40.5762 13.3789 -43.1152 L 40.7227 -69.7754 C 42.4805 -71.5332 44.4824 -72.3145 46.9727 -72.3145 C 52.002 -72.3145 56.2012 -68.1641 56.2012 -63.2324 C 56.2012 -60.7422 55.1758 -58.3984 53.125 -56.4453 L 30.9082 -35.3027 L 53.125 -14.0625 C 55.127 -12.1094 56.2012 -9.76562 56.2012 -7.22656 C 56.2012 -2.29492 52.002 1.85547 46.9727 1.85547 C 44.5312 1.85547 42.5293 1.02539 40.7227 -0.683594 Z"/>
  </g>
  <g id="Heavy-S" transform="matrix(1 0 0 1 2604.66 696)">
   <path d="M 40.8203 -1.07422 L 12.793 -28.5645 C 10.6934 -30.7129 9.76562 -32.7148 9.76562 -35.2539 C 9.81445 -37.8418 10.7422 -39.8438 12.8418 -41.9434 L 40.8203 -69.3848 C 42.334 -70.8984 44.0918 -71.6309 46.2891 -71.6309 C 50.6836 -71.6309 54.2969 -68.0176 54.2969 -63.7207 C 54.2969 -61.5723 53.3691 -59.5215 51.6602 -57.8613 L 28.2715 -35.3027 L 51.6602 -12.6465 C 53.3691 -10.9863 54.2969 -8.93555 54.2969 -6.73828 C 54.2969 -2.44141 50.6836 1.12305 46.2891 1.12305 C 44.1406 1.12305 42.3828 0.390625 40.8203 -1.07422 Z"/>
  </g>
  <g id="Bold-S" transform="matrix(1 0 0 1 2309.02 696)">
   <path d="M 40.9668 -1.51367 L 12.207 -29.8828 C 10.498 -31.543 9.76562 -33.2031 9.76562 -35.2539 C 9.81445 -37.3047 10.5469 -39.0137 12.207 -40.625 L 40.9668 -68.9453 C 42.1875 -70.2148 43.7012 -70.8008 45.5078 -70.8008 C 49.1699 -70.8008 52.1484 -67.8711 52.1484 -64.2578 C 52.1484 -62.5 51.3672 -60.791 50 -59.4238 L 25.293 -35.3027 L 50 -11.084 C 51.3672 -9.7168 52.1484 -8.05664 52.1484 -6.25 C 52.1484 -2.63672 49.1699 0.341797 45.5078 0.341797 C 43.7012 0.341797 42.2363 -0.292969 40.9668 -1.51367 Z"/>
  </g>
  <g id="Semibold-S" transform="matrix(1 0 0 1 2013.07 696)">
   <path d="M 41.0156 -1.85547 L 11.7676 -30.8105 C 10.4004 -32.1289 9.76562 -33.5449 9.76562 -35.2539 C 9.76562 -36.9629 10.4004 -38.4277 11.7676 -39.6973 L 41.0156 -68.6523 C 42.0898 -69.7266 43.4082 -70.2637 44.9707 -70.2637 C 48.1445 -70.2637 50.6348 -67.7734 50.6348 -64.6484 C 50.6348 -63.0859 50 -61.6699 48.877 -60.5469 L 23.1934 -35.2539 L 48.877 -9.96094 C 50 -8.83789 50.6348 -7.42188 50.6348 -5.85938 C 50.6348 -2.73438 48.1445 -0.244141 44.9707 -0.244141 C 43.4082 -0.244141 42.1387 -0.78125 41.0156 -1.85547 Z"/>
  </g>
  <g id="Medium-S" transform="matrix(1 0 0 1 1716.92 696)">
   <path d="M 41.1133 -2.05078 L 11.4258 -31.4941 C 10.3027 -32.6172 9.76562 -33.8379 9.76562 -35.2539 C 9.76562 -36.6699 10.3027 -37.9883 11.4258 -39.0137 L 41.1133 -68.457 C 42.041 -69.3848 43.2129 -69.873 44.5801 -69.873 C 47.3633 -69.873 49.5117 -67.6758 49.5117 -64.8926 C 49.5117 -63.5742 48.9746 -62.3047 47.998 -61.3281 L 21.6309 -35.2539 L 47.998 -9.17969 C 48.9746 -8.20312 49.5117 -6.98242 49.5117 -5.56641 C 49.5117 -2.83203 47.3633 -0.634766 44.5801 -0.634766 C 43.2129 -0.634766 42.041 -1.12305 41.1133 -2.05078 Z"/>
  </g>
  <g id="Regular-S" transform="matrix(1 0 0 1 1420.94 696)">
   <path d="M 41.1621 -2.39258 L 10.9863 -32.373 C 10.2051 -33.2031 9.76562 -34.1797 9.76562 -35.2539 C 9.76562 -36.3281 10.2051 -37.4023 10.9863 -38.1348 L 41.1621 -68.1641 C 41.9434 -68.8965 42.9199 -69.3359 44.043 -69.3359 C 46.3379 -69.3359 48.0469 -67.5781 48.0469 -65.2832 C 48.0469 -64.209 47.6074 -63.1836 46.875 -62.4023 L 19.6289 -35.2539 L 46.875 -8.10547 C 47.6074 -7.32422 48.0469 -6.34766 48.0469 -5.22461 C 48.0469 -2.92969 46.3379 -1.17188 44.043 -1.17188 C 42.9199 -1.17188 41.9434 -1.61133 41.1621 -2.39258 Z"/>
  </g>
  <g id="Light-S" transform="matrix(1 0 0 1 1125.01 696)">
   <path d="M 41.2109 -3.66211 L 10.791 -32.959 C 10.1562 -33.5938 9.76562 -34.375 9.76562 -35.2539 C 9.76562 -36.1328 10.1562 -36.9629 10.791 -37.5977 L 41.2109 -66.8945 C 41.8457 -67.4805 42.5293 -67.8223 43.4082 -67.8223 C 45.1172 -67.8223 46.4844 -66.5039 46.4844 -64.7461 C 46.4844 -63.916 46.1426 -63.1348 45.6055 -62.5488 L 17.2852 -35.2539 L 45.6055 -7.95898 C 46.1426 -7.37305 46.4844 -6.64062 46.4844 -5.76172 C 46.4844 -4.05273 45.1172 -2.73438 43.4082 -2.73438 C 42.5293 -2.73438 41.7969 -3.07617 41.2109 -3.66211 Z"/>
  </g>
  <g id="Thin-S" transform="matrix(1 0 0 1 829.371 696)">
   <path d="M 41.2598 -5.32227 L 10.5469 -33.6914 C 10.0586 -34.1797 9.76562 -34.6191 9.76562 -35.2539 C 9.76562 -35.8887 10.1074 -36.4258 10.5469 -36.8652 L 41.3086 -65.2344 C 41.6992 -65.5762 42.041 -65.8203 42.5781 -65.8203 C 43.5547 -65.8203 44.3359 -65.0391 44.3359 -64.0137 C 44.3359 -63.5742 44.1895 -63.0859 43.8477 -62.7441 L 14.1602 -35.3027 L 43.8477 -7.76367 C 44.1895 -7.4707 44.3359 -6.98242 44.3359 -6.49414 C 44.3359 -5.51758 43.5547 -4.73633 42.5781 -4.73633 C 42.041 -4.73633 41.6504 -4.98047 41.2598 -5.32227 Z"/>
  </g>
  <g id="Ultralight-S" transform="matrix(1 0 0 1 533.197 696)">
   <path d="M 41.3086 -6.20117 L 10.4004 -34.082 C 10.0098 -34.4727 9.76562 -34.7656 9.76562 -35.2539 C 9.76562 -35.7422 10.0586 -36.084 10.4492 -36.4746 L 41.3574 -64.4043 C 41.6016 -64.6484 41.7969 -64.7949 42.1387 -64.7949 C 42.7734 -64.7949 43.2617 -64.3066 43.2617 -63.6719 C 43.2617 -63.3789 43.2129 -63.0371 42.9688 -62.8418 L 12.5488 -35.3027 L 42.9688 -7.66602 C 43.2129 -7.51953 43.2617 -7.17773 43.2617 -6.88477 C 43.2617 -6.25 42.7734 -5.76172 42.1387 -5.76172 C 41.7969 -5.76172 41.5527 -5.95703 41.3086 -6.20117 Z"/>
  </g>
 </g>
</svg>
