<?xml version="1.0" encoding="UTF-8"?>
<!--Generator: Apple Native CoreSVG 129-->
<!DOCTYPE svg
PUBLIC "-//W3C//DTD SVG 1.1//EN"
       "http://www.w3.org/Graphics/SVG/1.1/DTD/svg11.dtd">
<svg version="1.1" xmlns="http://www.w3.org/2000/svg" xmlns:xlink="http://www.w3.org/1999/xlink" width="3300" height="2200">
 <!--glyph: "uni1002B5.medium", point size: 100.000000, font version: "Version 16.0d9e1", template writer version: "8"-->
 <g id="Notes">
  <rect height="2200" id="artboard" style="fill:white;opacity:1" width="3300" x="0" y="0"/>
  <line id="" style="fill:none;stroke:black;opacity:1;stroke-width:0.5;" x1="263" x2="3036" y1="292" y2="292"/>
  <text style="stroke:none;fill:black;font-family:-apple-system,&quot;SF Pro Display&quot;,&quot;SF Pro Text&quot;,Helvetica,sans-serif;font-weight:bold;" transform="matrix(1 0 0 1 263 322)">Weight/Scale Variations</text>
  <text style="stroke:none;fill:black;font-family:-apple-system,&quot;SF Pro Display&quot;,&quot;SF Pro Text&quot;,Helvetica,sans-serif;text-anchor:middle;" transform="matrix(1 0 0 1 559.711 322)">Ultralight</text>
  <text style="stroke:none;fill:black;font-family:-apple-system,&quot;SF Pro Display&quot;,&quot;SF Pro Text&quot;,Helvetica,sans-serif;text-anchor:middle;" transform="matrix(1 0 0 1 856.422 322)">Thin</text>
  <text style="stroke:none;fill:black;font-family:-apple-system,&quot;SF Pro Display&quot;,&quot;SF Pro Text&quot;,Helvetica,sans-serif;text-anchor:middle;" transform="matrix(1 0 0 1 1153.13 322)">Light</text>
  <text style="stroke:none;fill:black;font-family:-apple-system,&quot;SF Pro Display&quot;,&quot;SF Pro Text&quot;,Helvetica,sans-serif;text-anchor:middle;" transform="matrix(1 0 0 1 1449.84 322)">Regular</text>
  <text style="stroke:none;fill:black;font-family:-apple-system,&quot;SF Pro Display&quot;,&quot;SF Pro Text&quot;,Helvetica,sans-serif;text-anchor:middle;" transform="matrix(1 0 0 1 1746.56 322)">Medium</text>
  <text style="stroke:none;fill:black;font-family:-apple-system,&quot;SF Pro Display&quot;,&quot;SF Pro Text&quot;,Helvetica,sans-serif;text-anchor:middle;" transform="matrix(1 0 0 1 2043.27 322)">Semibold</text>
  <text style="stroke:none;fill:black;font-family:-apple-system,&quot;SF Pro Display&quot;,&quot;SF Pro Text&quot;,Helvetica,sans-serif;text-anchor:middle;" transform="matrix(1 0 0 1 2339.98 322)">Bold</text>
  <text style="stroke:none;fill:black;font-family:-apple-system,&quot;SF Pro Display&quot;,&quot;SF Pro Text&quot;,Helvetica,sans-serif;text-anchor:middle;" transform="matrix(1 0 0 1 2636.69 322)">Heavy</text>
  <text style="stroke:none;fill:black;font-family:-apple-system,&quot;SF Pro Display&quot;,&quot;SF Pro Text&quot;,Helvetica,sans-serif;text-anchor:middle;" transform="matrix(1 0 0 1 2933.4 322)">Black</text>
  <line id="" style="fill:none;stroke:black;opacity:1;stroke-width:0.5;" x1="263" x2="3036" y1="1903" y2="1903"/>
  <g id="" transform="matrix(1 0 0 1 263 1933)">
   <path d="M 9.24805 0.830078 C 13.5547 0.830078 17.1387 -2.74414 17.1387 -7.05078 C 17.1387 -11.3574 13.5449 -14.9316 9.23828 -14.9316 C 4.94141 -14.9316 1.36719 -11.3574 1.36719 -7.05078 C 1.36719 -2.74414 4.95117 0.830078 9.24805 0.830078 Z M 9.24805 -0.654297 C 5.70312 -0.654297 2.87109 -3.49609 2.87109 -7.05078 C 2.87109 -10.6055 5.69336 -13.4473 9.23828 -13.4473 C 12.793 -13.4473 15.6348 -10.6055 15.6445 -7.05078 C 15.6543 -3.49609 12.8027 -0.654297 9.24805 -0.654297 Z M 9.22852 -3.62305 C 9.69727 -3.62305 9.9707 -3.93555 9.9707 -4.45312 L 9.9707 -6.31836 L 12.002 -6.31836 C 12.5 -6.31836 12.832 -6.57227 12.832 -7.04102 C 12.832 -7.51953 12.5195 -7.7832 12.002 -7.7832 L 9.9707 -7.7832 L 9.9707 -9.81445 C 9.9707 -10.332 9.69727 -10.6543 9.22852 -10.6543 C 8.75977 -10.6543 8.50586 -10.3125 8.50586 -9.81445 L 8.50586 -7.7832 L 6.49414 -7.7832 C 5.97656 -7.7832 5.64453 -7.51953 5.64453 -7.04102 C 5.64453 -6.57227 5.99609 -6.31836 6.49414 -6.31836 L 8.50586 -6.31836 L 8.50586 -4.45312 C 8.50586 -3.95508 8.75977 -3.62305 9.22852 -3.62305 Z"/>
  </g>
  <g id="" transform="matrix(1 0 0 1 281.506 1933)">
   <path d="M 11.709 2.91016 C 17.1582 2.91016 21.6699 -1.61133 21.6699 -7.05078 C 21.6699 -12.5 17.1484 -17.0117 11.6992 -17.0117 C 6.25977 -17.0117 1.74805 -12.5 1.74805 -7.05078 C 1.74805 -1.61133 6.26953 2.91016 11.709 2.91016 Z M 11.709 1.25 C 7.09961 1.25 3.41797 -2.44141 3.41797 -7.05078 C 3.41797 -11.6602 7.08984 -15.3516 11.6992 -15.3516 C 16.3086 -15.3516 20 -11.6602 20.0098 -7.05078 C 20.0195 -2.44141 16.3184 1.25 11.709 1.25 Z M 11.6797 -2.66602 C 12.207 -2.66602 12.5098 -3.01758 12.5098 -3.59375 L 12.5098 -6.23047 L 15.3223 -6.23047 C 15.8691 -6.23047 16.25 -6.51367 16.25 -7.03125 C 16.25 -7.55859 15.8887 -7.86133 15.3223 -7.86133 L 12.5098 -7.86133 L 12.5098 -10.6836 C 12.5098 -11.25 12.207 -11.6113 11.6797 -11.6113 C 11.1621 -11.6113 10.8789 -11.2305 10.8789 -10.6836 L 10.8789 -7.86133 L 8.07617 -7.86133 C 7.50977 -7.86133 7.13867 -7.55859 7.13867 -7.03125 C 7.13867 -6.51367 7.5293 -6.23047 8.07617 -6.23047 L 10.8789 -6.23047 L 10.8789 -3.59375 C 10.8789 -3.03711 11.1621 -2.66602 11.6797 -2.66602 Z"/>
  </g>
  <g id="" transform="matrix(1 0 0 1 304.924 1933)">
   <path d="M 14.9707 5.66406 C 21.9336 5.66406 27.6953 -0.0976562 27.6953 -7.05078 C 27.6953 -14.0137 21.9238 -19.7754 14.9609 -19.7754 C 8.00781 -19.7754 2.25586 -14.0137 2.25586 -7.05078 C 2.25586 -0.0976562 8.01758 5.66406 14.9707 5.66406 Z M 14.9707 3.84766 C 8.93555 3.84766 4.08203 -1.01562 4.08203 -7.05078 C 4.08203 -13.0957 8.92578 -17.9492 14.9609 -17.9492 C 21.0059 -17.9492 25.8594 -13.0957 25.8691 -7.05078 C 25.8789 -1.01562 21.0156 3.84766 14.9707 3.84766 Z M 14.9414 -1.38672 C 15.5176 -1.38672 15.8594 -1.77734 15.8594 -2.38281 L 15.8594 -6.13281 L 19.7754 -6.13281 C 20.3711 -6.13281 20.7812 -6.46484 20.7812 -7.02148 C 20.7812 -7.59766 20.3906 -7.93945 19.7754 -7.93945 L 15.8594 -7.93945 L 15.8594 -11.8652 C 15.8594 -12.4805 15.5176 -12.8711 14.9414 -12.8711 C 14.375 -12.8711 14.0527 -12.4609 14.0527 -11.8652 L 14.0527 -7.93945 L 10.1465 -7.93945 C 9.53125 -7.93945 9.13086 -7.59766 9.13086 -7.02148 C 9.13086 -6.46484 9.55078 -6.13281 10.1465 -6.13281 L 14.0527 -6.13281 L 14.0527 -2.38281 C 14.0527 -1.79688 14.375 -1.38672 14.9414 -1.38672 Z"/>
  </g>
  <text style="stroke:none;fill:black;font-family:-apple-system,&quot;SF Pro Display&quot;,&quot;SF Pro Text&quot;,Helvetica,sans-serif;font-weight:bold;" transform="matrix(1 0 0 1 263 1953)">Design Variations</text>
  <text style="stroke:none;fill:black;font-family:-apple-system,&quot;SF Pro Display&quot;,&quot;SF Pro Text&quot;,Helvetica,sans-serif;" transform="matrix(1 0 0 1 263 1971)">Symbols are supported in up to nine weights and three scales.</text>
  <text style="stroke:none;fill:black;font-family:-apple-system,&quot;SF Pro Display&quot;,&quot;SF Pro Text&quot;,Helvetica,sans-serif;" transform="matrix(1 0 0 1 263 1989)">For optimal layout with text and other symbols, vertically align</text>
  <text style="stroke:none;fill:black;font-family:-apple-system,&quot;SF Pro Display&quot;,&quot;SF Pro Text&quot;,Helvetica,sans-serif;" transform="matrix(1 0 0 1 263 2007)">symbols with the adjacent text.</text>
  <line id="" style="fill:none;stroke:#00AEEF;stroke-width:0.5;opacity:1.0;" x1="776" x2="776" y1="1919" y2="1933"/>
  <g id="" transform="matrix(1 0 0 1 776 1933)">
   <path d="M 3.31055 0.126953 C 3.82812 0.126953 4.08203 -0.0683594 4.26758 -0.605469 L 5.52734 -4.0625 L 11.2891 -4.0625 L 12.5488 -0.605469 C 12.7344 -0.0683594 12.9883 0.126953 13.4961 0.126953 C 14.0137 0.126953 14.3457 -0.185547 14.3457 -0.673828 C 14.3457 -0.839844 14.3164 -0.986328 14.2383 -1.20117 L 9.6582 -13.3887 C 9.43359 -13.9941 9.0332 -14.2871 8.4082 -14.2871 C 7.80273 -14.2871 7.39258 -13.9941 7.17773 -13.3984 L 2.59766 -1.19141 C 2.51953 -0.976562 2.49023 -0.830078 2.49023 -0.664062 C 2.49023 -0.175781 2.80273 0.126953 3.31055 0.126953 Z M 6.00586 -5.53711 L 8.37891 -12.1094 L 8.42773 -12.1094 L 10.8008 -5.53711 Z"/>
  </g>
  <line id="" style="fill:none;stroke:#00AEEF;stroke-width:0.5;opacity:1.0;" x1="792.836" x2="792.836" y1="1919" y2="1933"/>
  <text style="stroke:none;fill:black;font-family:-apple-system,&quot;SF Pro Display&quot;,&quot;SF Pro Text&quot;,Helvetica,sans-serif;font-weight:bold;" transform="matrix(1 0 0 1 776 1953)">Margins</text>
  <text style="stroke:none;fill:black;font-family:-apple-system,&quot;SF Pro Display&quot;,&quot;SF Pro Text&quot;,Helvetica,sans-serif;" transform="matrix(1 0 0 1 776 1971)">Leading and trailing margins on the left and right side of each symbol</text>
  <text style="stroke:none;fill:black;font-family:-apple-system,&quot;SF Pro Display&quot;,&quot;SF Pro Text&quot;,Helvetica,sans-serif;" transform="matrix(1 0 0 1 776 1989)">can be adjusted by modifying the x-location of the margin guidelines.</text>
  <text style="stroke:none;fill:black;font-family:-apple-system,&quot;SF Pro Display&quot;,&quot;SF Pro Text&quot;,Helvetica,sans-serif;" transform="matrix(1 0 0 1 776 2007)">Modifications are automatically applied proportionally to all</text>
  <text style="stroke:none;fill:black;font-family:-apple-system,&quot;SF Pro Display&quot;,&quot;SF Pro Text&quot;,Helvetica,sans-serif;" transform="matrix(1 0 0 1 776 2025)">scales and weights.</text>
  <g id="" transform="matrix(1 0 0 1 1289 1933)">
   <path d="M 2.8418 1.86523 L 4.54102 3.57422 C 5.40039 4.44336 6.38672 4.38477 7.31445 3.35938 L 17.4902 -7.85156 C 17.7539 -7.76367 18.0273 -7.7832 18.3398 -7.8418 L 19.4043 -8.03711 L 20.0684 -7.36328 L 20.0293 -6.80664 C 19.9902 -6.30859 20.1172 -5.92773 20.6055 -5.44922 L 21.3672 -4.70703 C 21.8457 -4.22852 22.4609 -4.19922 22.9297 -4.66797 L 25.8398 -7.58789 C 26.3086 -8.05664 26.2891 -8.65234 25.8105 -9.13086 L 25.0391 -9.89258 C 24.5605 -10.3711 24.1895 -10.5273 23.7109 -10.4883 L 23.1348 -10.4395 L 22.4902 -11.0742 L 22.7344 -12.1973 C 22.8613 -12.7637 22.7051 -13.2031 22.1191 -13.7891 L 19.9219 -15.9766 C 16.582 -19.2969 12.1484 -19.2188 9.25781 -16.3281 C 8.83789 -15.918 8.80859 -15.3418 9.04297 -14.9512 C 9.27734 -14.5898 9.73633 -14.3555 10.3809 -14.5215 C 11.8457 -14.8633 13.3691 -14.9219 14.7949 -13.9844 L 14.209 -12.5293 C 14.0137 -12.0508 13.9844 -11.6504 14.1113 -11.2891 L 3.04688 -0.898438 C 2.06055 0.0195312 1.98242 0.996094 2.8418 1.86523 Z M 10.752 -15.957 C 13.1836 -17.7344 16.4746 -17.4316 18.7012 -15.2051 L 21.1328 -12.793 C 21.3672 -12.5586 21.4062 -12.373 21.3379 -12.0312 L 21.0156 -10.5469 L 22.5195 -9.0625 L 23.5059 -9.12109 C 23.7598 -9.13086 23.8379 -9.11133 24.0332 -8.91602 L 24.6094 -8.33984 L 22.168 -5.89844 L 21.5918 -6.47461 C 21.3965 -6.66992 21.3672 -6.74805 21.377 -7.01172 L 21.4453 -7.98828 L 19.9512 -9.47266 L 18.4277 -9.21875 C 18.1055 -9.15039 17.959 -9.17969 17.7148 -9.41406 L 15.7129 -11.416 C 15.459 -11.6504 15.4297 -11.8164 15.5859 -12.1875 L 16.4648 -14.2773 C 14.9023 -15.7324 12.8711 -16.3574 10.8398 -15.7617 C 10.6836 -15.7227 10.625 -15.8496 10.752 -15.957 Z M 5.27344 2.30469 L 4.10156 1.14258 C 3.63281 0.683594 3.74023 0.341797 4.14062 -0.0195312 L 14.9512 -10.1953 L 16.416 -8.71094 L 6.42578 2.27539 C 6.07422 2.67578 5.74219 2.77344 5.27344 2.30469 Z"/>
  </g>
  <text style="stroke:none;fill:black;font-family:-apple-system,&quot;SF Pro Display&quot;,&quot;SF Pro Text&quot;,Helvetica,sans-serif;font-weight:bold;" transform="matrix(1 0 0 1 1289 1953)">Exporting</text>
  <text style="stroke:none;fill:black;font-family:-apple-system,&quot;SF Pro Display&quot;,&quot;SF Pro Text&quot;,Helvetica,sans-serif;" transform="matrix(1 0 0 1 1289 1971)">Symbols should be outlined when exporting to ensure the</text>
  <text style="stroke:none;fill:black;font-family:-apple-system,&quot;SF Pro Display&quot;,&quot;SF Pro Text&quot;,Helvetica,sans-serif;" transform="matrix(1 0 0 1 1289 1989)">design is preserved when submitting to Xcode.</text>
  <text id="template-version" style="stroke:none;fill:black;font-family:-apple-system,&quot;SF Pro Display&quot;,&quot;SF Pro Text&quot;,Helvetica,sans-serif;text-anchor:end;" transform="matrix(1 0 0 1 3036 1933)">Template v.2.0</text>
  <text style="stroke:none;fill:black;font-family:-apple-system,&quot;SF Pro Display&quot;,&quot;SF Pro Text&quot;,Helvetica,sans-serif;text-anchor:end;" transform="matrix(1 0 0 1 3036 1951)">Requires Xcode 12 or greater</text>
  <text style="stroke:none;fill:black;font-family:-apple-system,&quot;SF Pro Display&quot;,&quot;SF Pro Text&quot;,Helvetica,sans-serif;text-anchor:end;" transform="matrix(1 0 0 1 3036 1969)">Generated from heart.fill</text>
  <text style="stroke:none;fill:black;font-family:-apple-system,&quot;SF Pro Display&quot;,&quot;SF Pro Text&quot;,Helvetica,sans-serif;text-anchor:end;" transform="matrix(1 0 0 1 3036 1987)">Typeset at 100 points</text>
  <text style="stroke:none;fill:black;font-family:-apple-system,&quot;SF Pro Display&quot;,&quot;SF Pro Text&quot;,Helvetica,sans-serif;" transform="matrix(1 0 0 1 263 726)">Small</text>
  <text style="stroke:none;fill:black;font-family:-apple-system,&quot;SF Pro Display&quot;,&quot;SF Pro Text&quot;,Helvetica,sans-serif;" transform="matrix(1 0 0 1 263 1156)">Medium</text>
  <text style="stroke:none;fill:black;font-family:-apple-system,&quot;SF Pro Display&quot;,&quot;SF Pro Text&quot;,Helvetica,sans-serif;" transform="matrix(1 0 0 1 263 1586)">Large</text>
 </g>
 <g id="Guides">
  <g id="H-reference" style="fill:#27AAE1;stroke:none;" transform="matrix(1 0 0 1 339 696)">
   <path d="M 0.976562 0 L 3.66211 0 L 12.9883 -24.4629 L 45.7031 -24.4629 L 55.0781 0 L 57.7148 0 L 30.6152 -70.459 L 28.125 -70.459 Z M 29.2969 -67.1387 L 29.3945 -67.1387 L 44.873 -26.709 L 13.8672 -26.709 Z"/>
  </g>
  <line id="Baseline-S" style="fill:none;stroke:#27AAE1;opacity:1;stroke-width:0.5;" x1="263" x2="3036" y1="696" y2="696"/>
  <line id="Capline-S" style="fill:none;stroke:#27AAE1;opacity:1;stroke-width:0.5;" x1="263" x2="3036" y1="625.541" y2="625.541"/>
  <g id="H-reference" style="fill:#27AAE1;stroke:none;" transform="matrix(1 0 0 1 339 1126)">
   <path d="M 0.976562 0 L 3.66211 0 L 12.9883 -24.4629 L 45.7031 -24.4629 L 55.0781 0 L 57.7148 0 L 30.6152 -70.459 L 28.125 -70.459 Z M 29.2969 -67.1387 L 29.3945 -67.1387 L 44.873 -26.709 L 13.8672 -26.709 Z"/>
  </g>
  <line id="Baseline-M" style="fill:none;stroke:#27AAE1;opacity:1;stroke-width:0.5;" x1="263" x2="3036" y1="1126" y2="1126"/>
  <line id="Capline-M" style="fill:none;stroke:#27AAE1;opacity:1;stroke-width:0.5;" x1="263" x2="3036" y1="1055.54" y2="1055.54"/>
  <g id="H-reference" style="fill:#27AAE1;stroke:none;" transform="matrix(1 0 0 1 339 1556)">
   <path d="M 0.976562 0 L 3.66211 0 L 12.9883 -24.4629 L 45.7031 -24.4629 L 55.0781 0 L 57.7148 0 L 30.6152 -70.459 L 28.125 -70.459 Z M 29.2969 -67.1387 L 29.3945 -67.1387 L 44.873 -26.709 L 13.8672 -26.709 Z"/>
  </g>
  <line id="Baseline-L" style="fill:none;stroke:#27AAE1;opacity:1;stroke-width:0.5;" x1="263" x2="3036" y1="1556" y2="1556"/>
  <line id="Capline-L" style="fill:none;stroke:#27AAE1;opacity:1;stroke-width:0.5;" x1="263" x2="3036" y1="1485.54" y2="1485.54"/>
  <line id="left-margin" style="fill:none;stroke:#00AEEF;stroke-width:0.5;opacity:1.0;" x1="1389.3" x2="1389.3" y1="1030.79" y2="1150.12"/>
  <line id="right-margin" style="fill:none;stroke:#00AEEF;stroke-width:0.5;opacity:1.0;" x1="1510.39" x2="1510.39" y1="1030.79" y2="1150.12"/>
 </g>
 <g id="Symbols">
  <g id="Black-L" transform="matrix(1 0 0 1 2851.54 1556)">
   <path d="M 81.8359 29.5898 C 84.4727 29.5898 88.3789 27.2461 92.1875 24.707 C 126.562 2.00195 149.365 -25.293 149.365 -52.5879 C 149.365 -78.9062 130.957 -96.1426 109.766 -96.1426 C 96.4844 -96.1426 87.3535 -88.8672 81.8359 -78.6621 C 76.416 -88.8672 67.2363 -96.1426 53.9551 -96.1426 C 32.7637 -96.1426 14.3555 -78.9062 14.3555 -52.5879 C 14.3555 -25.293 37.1582 2.00195 71.5332 24.707 C 75.3418 27.2461 79.248 29.5898 81.8359 29.5898 Z"/>
  </g>
  <g id="Heavy-L" transform="matrix(1 0 0 1 2555.98 1556)">
   <path d="M 80.7129 28.125 C 83.0078 28.125 86.377 26.1719 89.5996 24.0234 C 124.072 1.36719 146.875 -25.6348 146.875 -52.7344 C 146.875 -77.9297 129.248 -94.8242 108.447 -94.8242 C 95.459 -94.8242 86.1816 -87.6465 80.7129 -77.3926 C 75.2441 -87.6465 65.918 -94.8242 52.9297 -94.8242 C 32.1777 -94.8242 14.5508 -77.9297 14.5508 -52.7344 C 14.5508 -25.6348 37.3535 1.36719 71.8262 24.0234 C 75 26.1719 78.418 28.125 80.7129 28.125 Z"/>
  </g>
  <g id="Bold-L" transform="matrix(1 0 0 1 2260.56 1556)">
   <path d="M 79.3945 26.5137 C 81.2988 26.5137 84.1309 24.9512 86.6211 23.291 C 121.289 0.683594 144.092 -25.9766 144.092 -52.8809 C 144.092 -76.9043 127.344 -93.3105 106.982 -93.3105 C 94.3359 -93.3105 84.9121 -86.2793 79.3945 -75.9766 C 73.9258 -86.2305 64.4531 -93.3105 51.8066 -93.3105 C 31.4453 -93.3105 14.7461 -76.9043 14.7461 -52.8809 C 14.7461 -25.9766 37.5488 0.683594 72.168 23.291 C 74.707 24.9512 77.4902 26.5137 79.3945 26.5137 Z"/>
  </g>
  <g id="Semibold-L" transform="matrix(1 0 0 1 1964.75 1556)">
   <path d="M 78.5156 25.3906 C 80.1758 25.3906 82.5684 24.1211 84.6191 22.8027 C 119.385 0.195312 142.139 -26.2207 142.139 -52.9785 C 142.139 -76.1719 126.074 -92.2363 106.006 -92.2363 C 93.5547 -92.2363 84.0332 -85.3516 78.5156 -75.0488 C 73.0469 -85.3027 63.4766 -92.2363 51.0742 -92.2363 C 30.957 -92.2363 14.8926 -76.1719 14.8926 -52.9785 C 14.8926 -26.2207 37.6465 0.195312 72.4121 22.8027 C 74.4629 24.1211 76.8555 25.3906 78.5156 25.3906 Z"/>
  </g>
  <g id="Medium-L" transform="matrix(1 0 0 1 1668.72 1556)">
   <path d="M 77.832 24.5117 C 79.2969 24.5117 81.3965 23.4863 83.1055 22.4121 C 117.92 -0.146484 140.674 -26.3672 140.674 -53.0273 C 140.674 -75.6348 125.098 -91.4551 105.225 -91.4551 C 92.9688 -91.4551 83.3496 -84.6191 77.832 -74.3164 C 72.3633 -84.5703 62.6953 -91.4551 50.4883 -91.4551 C 30.6152 -91.4551 14.9902 -75.6348 14.9902 -53.0273 C 14.9902 -26.3672 37.793 -0.146484 72.6074 22.4121 C 74.2676 23.4863 76.3672 24.5117 77.832 24.5117 Z"/>
  </g>
  <g id="Regular-L" transform="matrix(1 0 0 1 1372.89 1556)">
   <path d="M 76.9531 23.4375 C 78.1738 23.4375 79.8828 22.6562 81.1035 21.875 C 116.016 -0.634766 138.77 -26.6113 138.77 -53.125 C 138.77 -74.9023 123.779 -90.4297 104.199 -90.4297 C 92.2363 -90.4297 82.4707 -83.6914 76.9531 -73.3398 C 71.4844 -83.6426 61.7188 -90.4297 49.707 -90.4297 C 30.127 -90.4297 15.1367 -74.9023 15.1367 -53.125 C 15.1367 -26.6113 37.8906 -0.634766 72.8516 21.875 C 74.0723 22.6562 75.7812 23.4375 76.9531 23.4375 Z"/>
  </g>
  <g id="Light-L" transform="matrix(1 0 0 1 1077.74 1556)">
   <path d="M 75.3906 21.9238 C 76.4648 21.9238 77.8809 21.2891 78.9062 20.6543 C 113.037 -1.66016 136.23 -27.0996 136.23 -53.125 C 136.23 -74.2676 121.631 -89.4043 102.344 -89.4043 C 90.7715 -89.4043 80.6641 -82.7637 75.3906 -72.5586 C 70.166 -82.7637 60.0098 -89.4043 48.4375 -89.4043 C 29.1992 -89.4043 14.5996 -74.2676 14.5996 -53.125 C 14.5996 -27.0996 37.7441 -1.66016 71.875 20.6543 C 72.9004 21.2891 74.3652 21.9238 75.3906 21.9238 Z"/>
  </g>
  <g id="Thin-L" transform="matrix(1 0 0 1 783.082 1556)">
   <path d="M 73.3398 19.9219 C 74.1699 19.9219 75.2441 19.4824 76.0254 18.9941 C 109.131 -2.97852 132.812 -27.7832 132.812 -53.125 C 132.812 -73.4375 118.75 -88.0371 99.9023 -88.0371 C 88.916 -88.0371 78.2715 -81.5918 73.3398 -71.4844 C 68.4082 -81.5918 57.7637 -88.0371 46.7773 -88.0371 C 27.9297 -88.0371 13.8672 -73.4375 13.8672 -53.125 C 13.8672 -27.7832 37.5488 -2.97852 70.6055 18.9941 C 71.4355 19.4824 72.4609 19.9219 73.3398 19.9219 Z"/>
  </g>
  <g id="Ultralight-L" transform="matrix(1 0 0 1 487.421 1556)">
   <path d="M 72.2656 18.9453 C 73.0469 18.9453 73.9258 18.5547 74.5605 18.1152 C 107.129 -3.66211 131.055 -28.125 131.055 -53.125 C 131.055 -72.998 117.285 -87.3535 98.6328 -87.3535 C 87.9395 -87.3535 77.002 -80.957 72.2656 -70.9473 C 67.5293 -80.957 56.6406 -87.3535 45.8984 -87.3535 C 27.2949 -87.3535 13.5254 -72.998 13.5254 -53.125 C 13.5254 -28.125 37.4512 -3.66211 69.9707 18.1152 C 70.6543 18.5547 71.5332 18.9453 72.2656 18.9453 Z"/>
  </g>
  <g id="Black-M" transform="matrix(1 0 0 1 2869.26 1126)">
   <path d="M 64.1113 16.2109 C 66.5039 16.2109 70.1172 13.916 73.7793 11.4258 C 99.8047 -6.05469 117.725 -27.3926 117.725 -48.5352 C 117.725 -69.9707 102.539 -83.7402 85.8398 -83.7402 C 75.3418 -83.7402 68.2129 -77.9785 64.1113 -70.1172 C 60.0098 -77.9785 52.9297 -83.7402 42.4316 -83.7402 C 25.6836 -83.7402 10.5469 -69.9707 10.5469 -48.5352 C 10.5469 -27.3926 28.4668 -6.05469 54.4434 11.4258 C 58.1055 13.916 61.7188 16.2109 64.1113 16.2109 Z"/>
  </g>
  <g id="Heavy-M" transform="matrix(1 0 0 1 2573.41 1126)">
   <path d="M 63.2812 14.9902 C 65.332 14.9902 68.457 13.0859 71.4844 11.0352 C 97.8516 -6.49414 115.674 -27.5879 115.674 -48.6816 C 115.674 -69.1406 101.27 -82.5195 84.8633 -82.5195 C 74.6094 -82.5195 67.4805 -76.9043 63.2812 -68.9941 C 59.1309 -76.8555 51.9531 -82.5195 41.6992 -82.5195 C 25.293 -82.5195 10.8887 -69.1406 10.8887 -48.6816 C 10.8887 -27.5879 28.7109 -6.49414 55.0781 11.0352 C 58.1055 13.0859 61.2305 14.9902 63.2812 14.9902 Z"/>
  </g>
  <g id="Bold-M" transform="matrix(1 0 0 1 2277.65 1126)">
   <path d="M 62.3535 13.623 C 64.0625 13.623 66.6016 12.1582 68.9453 10.5957 C 95.7031 -6.93359 113.379 -27.832 113.379 -48.8281 C 113.379 -68.1641 99.8535 -81.1523 83.8379 -81.1523 C 73.8281 -81.1523 66.6016 -75.6348 62.3535 -67.6758 C 58.1055 -75.6348 50.8789 -81.1523 40.8691 -81.1523 C 24.8047 -81.1523 11.3281 -68.1641 11.3281 -48.8281 C 11.3281 -27.832 28.9551 -6.93359 55.7129 10.5957 C 58.1055 12.1582 60.6445 13.623 62.3535 13.623 Z"/>
  </g>
  <g id="Semibold-M" transform="matrix(1 0 0 1 1981.57 1126)">
   <path d="M 61.6699 12.6953 C 63.1348 12.6953 65.2832 11.5234 67.1875 10.3027 C 94.2383 -7.27539 111.816 -27.9785 111.816 -48.9258 C 111.816 -67.4805 98.877 -80.2246 83.1055 -80.2246 C 73.2422 -80.2246 66.0156 -74.8047 61.6699 -66.7969 C 57.4219 -74.7559 50.0977 -80.2246 40.2832 -80.2246 C 24.4629 -80.2246 11.5723 -67.4805 11.5723 -48.9258 C 11.5723 -27.9785 29.1504 -7.27539 56.2012 10.3027 C 58.0566 11.5234 60.2539 12.6953 61.6699 12.6953 Z"/>
  </g>
  <g id="Medium-M" transform="matrix(1 0 0 1 1685.35 1126)">
   <path d="M 61.1816 12.0117 C 62.4512 12.0117 64.3066 11.0352 65.8203 10.0586 C 93.1152 -7.51953 110.596 -28.125 110.596 -48.9746 C 110.596 -66.9922 98.1445 -79.4922 82.5684 -79.4922 C 72.8516 -79.4922 65.5762 -74.1211 61.1816 -66.1133 C 56.8848 -74.1211 49.5605 -79.4922 39.8438 -79.4922 C 24.2188 -79.4922 11.7676 -66.9922 11.7676 -48.9746 C 11.7676 -28.125 29.2969 -7.51953 56.543 10.0586 C 58.0566 11.0352 59.9121 12.0117 61.1816 12.0117 Z"/>
  </g>
  <g id="Regular-M" transform="matrix(1 0 0 1 1389.3 1126)">
   <path d="M 60.5469 11.084 C 61.5723 11.084 63.0371 10.4004 64.1113 9.76562 C 91.6016 -7.8125 109.033 -28.2715 109.033 -49.0723 C 109.033 -66.3574 97.168 -78.5645 81.8359 -78.5645 C 72.3145 -78.5645 64.9902 -73.291 60.5469 -65.2344 C 56.2012 -73.2422 48.7793 -78.5645 39.2578 -78.5645 C 23.9258 -78.5645 12.0605 -66.3574 12.0605 -49.0723 C 12.0605 -28.2715 29.4922 -7.8125 57.0312 9.76562 C 58.0566 10.4004 59.5215 11.084 60.5469 11.084 Z"/>
  </g>
  <g id="Light-M" transform="matrix(1 0 0 1 1094 1126)">
   <path d="M 59.1309 9.7168 C 60.0098 9.7168 61.2305 9.17969 62.1582 8.64258 C 88.9648 -8.74023 106.738 -28.7109 106.738 -49.0723 C 106.738 -65.7715 95.2148 -77.6855 80.1758 -77.6855 C 70.9961 -77.6855 63.3301 -72.5098 59.1309 -64.502 C 54.9805 -72.4609 47.2656 -77.6855 38.1348 -77.6855 C 23.0469 -77.6855 11.5723 -65.7715 11.5723 -49.0723 C 11.5723 -28.7109 29.3457 -8.74023 56.1523 8.64258 C 57.0312 9.17969 58.252 9.7168 59.1309 9.7168 Z"/>
  </g>
  <g id="Thin-M" transform="matrix(1 0 0 1 799.147 1126)">
   <path d="M 57.2754 7.95898 C 57.959 7.95898 58.8867 7.56836 59.5703 7.12891 C 85.4004 -9.96094 103.662 -29.2969 103.662 -49.0723 C 103.662 -65.0391 92.627 -76.4648 77.9297 -76.4648 C 69.2871 -76.4648 61.1816 -71.4355 57.2754 -63.5742 C 53.418 -71.3867 45.2637 -76.4648 36.6211 -76.4648 C 21.9238 -76.4648 10.8887 -65.0391 10.8887 -49.0723 C 10.8887 -29.2969 29.1504 -9.96094 54.9805 7.12891 C 55.6641 7.56836 56.5918 7.95898 57.2754 7.95898 Z"/>
  </g>
  <g id="Ultralight-M" transform="matrix(1 0 0 1 503.388 1126)">
   <path d="M 56.2988 7.03125 C 56.9336 7.03125 57.666 6.73828 58.2031 6.39648 C 83.5938 -10.5469 102.1 -29.5898 102.1 -49.0723 C 102.1 -64.6484 91.3086 -75.8301 76.8066 -75.8301 C 68.4082 -75.8301 60.0586 -70.8496 56.2988 -63.0859 C 52.5879 -70.8496 44.2383 -75.8301 35.8398 -75.8301 C 21.3379 -75.8301 10.5469 -64.6484 10.5469 -49.0723 C 10.5469 -29.5898 29.0527 -10.5469 54.3945 6.39648 C 54.9805 6.73828 55.7129 7.03125 56.2988 7.03125 Z"/>
  </g>
  <g id="Black-S" transform="matrix(1 0 0 1 2883.2 696)">
   <path d="M 50.1953 4.98047 C 52.0508 4.98047 54.834 3.22266 57.666 1.31836 C 78.0762 -12.4023 92.0898 -29.1016 92.0898 -45.6543 C 92.0898 -62.4023 80.2734 -73.1445 67.1875 -73.1445 C 58.9844 -73.1445 53.418 -68.6523 50.1953 -62.5 C 46.9727 -68.6523 41.4062 -73.1445 33.2031 -73.1445 C 20.1172 -73.1445 8.30078 -62.4023 8.30078 -45.6543 C 8.30078 -29.1016 22.3145 -12.4023 42.7246 1.31836 C 45.5566 3.22266 48.3398 4.98047 50.1953 4.98047 Z"/>
  </g>
  <g id="Heavy-S" transform="matrix(1 0 0 1 2586.98 696)">
   <path d="M 49.707 4.19922 C 51.3184 4.19922 53.7598 2.73438 56.1035 1.12305 C 76.9043 -12.5977 90.7715 -29.1992 90.7715 -45.752 C 90.7715 -61.8164 79.541 -72.3145 66.6504 -72.3145 C 58.5938 -72.3145 53.0273 -67.9199 49.707 -61.6699 C 46.3867 -67.8711 40.8203 -72.3145 32.7637 -72.3145 C 19.873 -72.3145 8.64258 -61.8164 8.64258 -45.752 C 8.64258 -29.1992 22.5098 -12.5977 43.2617 1.12305 C 45.6543 2.73438 48.0957 4.19922 49.707 4.19922 Z"/>
  </g>
  <g id="Bold-S" transform="matrix(1 0 0 1 2290.83 696)">
   <path d="M 49.1699 3.32031 C 50.4883 3.32031 52.5391 2.19727 54.3945 0.927734 C 75.5859 -12.8418 89.3066 -29.3457 89.3066 -45.8984 C 89.3066 -61.1328 78.6621 -71.3867 66.0645 -71.3867 C 58.1055 -71.3867 52.5391 -67.041 49.1699 -60.791 C 45.752 -67.041 40.1855 -71.3867 32.2266 -71.3867 C 19.6289 -71.3867 8.98438 -61.1328 8.98438 -45.8984 C 8.98438 -29.3457 22.7539 -12.8418 43.8965 0.927734 C 45.752 2.19727 47.8027 3.32031 49.1699 3.32031 Z"/>
  </g>
  <g id="Semibold-S" transform="matrix(1 0 0 1 1994.51 696)">
   <path d="M 48.7793 2.73438 C 49.9512 2.73438 51.709 1.80664 53.2227 0.78125 C 74.6582 -13.0371 88.2812 -29.3945 88.2812 -45.9473 C 88.2812 -60.6934 78.0762 -70.752 65.625 -70.752 C 57.8125 -70.752 52.2461 -66.4551 48.7793 -60.1562 C 45.3125 -66.4551 39.7461 -70.752 31.8848 -70.752 C 19.4336 -70.752 9.22852 -60.6934 9.22852 -45.9473 C 9.22852 -29.3945 22.9004 -13.0371 44.3359 0.78125 C 45.8496 1.80664 47.6074 2.73438 48.7793 2.73438 Z"/>
  </g>
  <g id="Medium-S" transform="matrix(1 0 0 1 1698.07 696)">
   <path d="M 48.4863 2.29492 C 49.5117 2.29492 51.0742 1.51367 52.2949 0.683594 C 73.9746 -13.1348 87.5488 -29.4922 87.5488 -45.9961 C 87.5488 -60.3516 77.6367 -70.2637 65.332 -70.2637 C 57.5684 -70.2637 52.002 -66.0156 48.4863 -59.668 C 45.0195 -65.9668 39.4043 -70.2637 31.6406 -70.2637 C 19.2871 -70.2637 9.42383 -60.3516 9.42383 -45.9961 C 9.42383 -29.4922 22.998 -13.1348 44.6289 0.683594 C 45.8984 1.51367 47.4609 2.29492 48.4863 2.29492 Z"/>
  </g>
  <g id="Regular-S" transform="matrix(1 0 0 1 1401.75 696)">
   <path d="M 48.0957 1.70898 C 48.9746 1.70898 50.2441 1.12305 51.123 0.537109 C 73.0469 -13.3301 86.5234 -29.541 86.5234 -46.0938 C 86.5234 -59.8633 77.0508 -69.6289 64.8926 -69.6289 C 57.2266 -69.6289 51.6602 -65.4297 48.0957 -59.082 C 44.5801 -65.3809 38.9648 -69.6289 31.2988 -69.6289 C 19.1406 -69.6289 9.66797 -59.8633 9.66797 -46.0938 C 9.66797 -29.541 23.1445 -13.3301 45.0684 0.537109 C 45.9473 1.12305 47.2656 1.70898 48.0957 1.70898 Z"/>
  </g>
  <g id="Light-S" transform="matrix(1 0 0 1 1106.28 696)">
   <path d="M 46.875 0.488281 C 47.6074 0.488281 48.6328 0.0488281 49.4141 -0.439453 C 70.7031 -14.1113 84.4727 -29.9805 84.4727 -46.0938 C 84.4727 -59.375 75.3418 -68.8477 63.4277 -68.8477 C 56.1035 -68.8477 50.2441 -64.7461 46.875 -58.4473 C 43.5059 -64.6973 37.5977 -68.8477 30.2734 -68.8477 C 18.3594 -68.8477 9.22852 -59.375 9.22852 -46.0938 C 9.22852 -29.9805 22.998 -14.1113 44.2871 -0.439453 C 45.0684 0.0488281 46.0938 0.488281 46.875 0.488281 Z"/>
  </g>
  <g id="Thin-S" transform="matrix(1 0 0 1 811.207 696)">
   <path d="M 45.2148 -1.07422 C 45.8008 -1.07422 46.582 -1.36719 47.1191 -1.75781 C 67.5781 -15.1855 81.7871 -30.4688 81.7871 -46.0938 C 81.7871 -58.7402 73.0469 -67.7734 61.4746 -67.7734 C 54.5898 -67.7734 48.291 -63.7695 45.2148 -57.6172 C 42.1387 -63.7695 35.8398 -67.7734 28.9551 -67.7734 C 17.3828 -67.7734 8.64258 -58.7402 8.64258 -46.0938 C 8.64258 -30.4688 22.8516 -15.1855 43.3105 -1.75781 C 43.8477 -1.36719 44.6289 -1.07422 45.2148 -1.07422 Z"/>
  </g>
  <g id="Ultralight-S" transform="matrix(1 0 0 1 515.351 696)">
   <path d="M 44.3848 -1.85547 C 44.873 -1.85547 45.5078 -2.14844 45.9473 -2.44141 C 65.9668 -15.7227 80.3711 -30.7617 80.3711 -46.0938 C 80.3711 -58.3984 71.875 -67.2363 60.4492 -67.2363 C 53.8086 -67.2363 47.3145 -63.2812 44.3848 -57.1777 C 41.4062 -63.2812 34.9121 -67.2363 28.2715 -67.2363 C 16.8457 -67.2363 8.34961 -58.3984 8.34961 -46.0938 C 8.34961 -30.7617 22.7539 -15.7227 42.7734 -2.44141 C 43.2617 -2.14844 43.8477 -1.85547 44.3848 -1.85547 Z"/>
  </g>
 </g>
</svg>
