<?xml version="1.0" encoding="UTF-8"?>
<!--Generator: Apple Native CoreSVG 129-->
<!DOCTYPE svg
PUBLIC "-//W3C//DTD SVG 1.1//EN"
       "http://www.w3.org/Graphics/SVG/1.1/DTD/svg11.dtd">
<svg version="1.1" xmlns="http://www.w3.org/2000/svg" xmlns:xlink="http://www.w3.org/1999/xlink" width="3300" height="2200">
 <!--glyph: "uni10039F.medium", point size: 100.000000, font version: "Version 16.0d9e1", template writer version: "8"-->
 <g id="Notes">
  <rect height="2200" id="artboard" style="fill:white;opacity:1" width="3300" x="0" y="0"/>
  <line id="" style="fill:none;stroke:black;opacity:1;stroke-width:0.5;" x1="263" x2="3036" y1="292" y2="292"/>
  <text style="stroke:none;fill:black;font-family:-apple-system,&quot;SF Pro Display&quot;,&quot;SF Pro Text&quot;,Helvetica,sans-serif;font-weight:bold;" transform="matrix(1 0 0 1 263 322)">Weight/Scale Variations</text>
  <text style="stroke:none;fill:black;font-family:-apple-system,&quot;SF Pro Display&quot;,&quot;SF Pro Text&quot;,Helvetica,sans-serif;text-anchor:middle;" transform="matrix(1 0 0 1 559.711 322)">Ultralight</text>
  <text style="stroke:none;fill:black;font-family:-apple-system,&quot;SF Pro Display&quot;,&quot;SF Pro Text&quot;,Helvetica,sans-serif;text-anchor:middle;" transform="matrix(1 0 0 1 856.422 322)">Thin</text>
  <text style="stroke:none;fill:black;font-family:-apple-system,&quot;SF Pro Display&quot;,&quot;SF Pro Text&quot;,Helvetica,sans-serif;text-anchor:middle;" transform="matrix(1 0 0 1 1153.13 322)">Light</text>
  <text style="stroke:none;fill:black;font-family:-apple-system,&quot;SF Pro Display&quot;,&quot;SF Pro Text&quot;,Helvetica,sans-serif;text-anchor:middle;" transform="matrix(1 0 0 1 1449.84 322)">Regular</text>
  <text style="stroke:none;fill:black;font-family:-apple-system,&quot;SF Pro Display&quot;,&quot;SF Pro Text&quot;,Helvetica,sans-serif;text-anchor:middle;" transform="matrix(1 0 0 1 1746.56 322)">Medium</text>
  <text style="stroke:none;fill:black;font-family:-apple-system,&quot;SF Pro Display&quot;,&quot;SF Pro Text&quot;,Helvetica,sans-serif;text-anchor:middle;" transform="matrix(1 0 0 1 2043.27 322)">Semibold</text>
  <text style="stroke:none;fill:black;font-family:-apple-system,&quot;SF Pro Display&quot;,&quot;SF Pro Text&quot;,Helvetica,sans-serif;text-anchor:middle;" transform="matrix(1 0 0 1 2339.98 322)">Bold</text>
  <text style="stroke:none;fill:black;font-family:-apple-system,&quot;SF Pro Display&quot;,&quot;SF Pro Text&quot;,Helvetica,sans-serif;text-anchor:middle;" transform="matrix(1 0 0 1 2636.69 322)">Heavy</text>
  <text style="stroke:none;fill:black;font-family:-apple-system,&quot;SF Pro Display&quot;,&quot;SF Pro Text&quot;,Helvetica,sans-serif;text-anchor:middle;" transform="matrix(1 0 0 1 2933.4 322)">Black</text>
  <line id="" style="fill:none;stroke:black;opacity:1;stroke-width:0.5;" x1="263" x2="3036" y1="1903" y2="1903"/>
  <g id="" transform="matrix(1 0 0 1 263 1933)">
   <path d="M 9.24805 0.830078 C 13.5547 0.830078 17.1387 -2.74414 17.1387 -7.05078 C 17.1387 -11.3574 13.5449 -14.9316 9.23828 -14.9316 C 4.94141 -14.9316 1.36719 -11.3574 1.36719 -7.05078 C 1.36719 -2.74414 4.95117 0.830078 9.24805 0.830078 Z M 9.24805 -0.654297 C 5.70312 -0.654297 2.87109 -3.49609 2.87109 -7.05078 C 2.87109 -10.6055 5.69336 -13.4473 9.23828 -13.4473 C 12.793 -13.4473 15.6348 -10.6055 15.6445 -7.05078 C 15.6543 -3.49609 12.8027 -0.654297 9.24805 -0.654297 Z M 9.22852 -3.62305 C 9.69727 -3.62305 9.9707 -3.93555 9.9707 -4.45312 L 9.9707 -6.31836 L 12.002 -6.31836 C 12.5 -6.31836 12.832 -6.57227 12.832 -7.04102 C 12.832 -7.51953 12.5195 -7.7832 12.002 -7.7832 L 9.9707 -7.7832 L 9.9707 -9.81445 C 9.9707 -10.332 9.69727 -10.6543 9.22852 -10.6543 C 8.75977 -10.6543 8.50586 -10.3125 8.50586 -9.81445 L 8.50586 -7.7832 L 6.49414 -7.7832 C 5.97656 -7.7832 5.64453 -7.51953 5.64453 -7.04102 C 5.64453 -6.57227 5.99609 -6.31836 6.49414 -6.31836 L 8.50586 -6.31836 L 8.50586 -4.45312 C 8.50586 -3.95508 8.75977 -3.62305 9.22852 -3.62305 Z"/>
  </g>
  <g id="" transform="matrix(1 0 0 1 281.506 1933)">
   <path d="M 11.709 2.91016 C 17.1582 2.91016 21.6699 -1.61133 21.6699 -7.05078 C 21.6699 -12.5 17.1484 -17.0117 11.6992 -17.0117 C 6.25977 -17.0117 1.74805 -12.5 1.74805 -7.05078 C 1.74805 -1.61133 6.26953 2.91016 11.709 2.91016 Z M 11.709 1.25 C 7.09961 1.25 3.41797 -2.44141 3.41797 -7.05078 C 3.41797 -11.6602 7.08984 -15.3516 11.6992 -15.3516 C 16.3086 -15.3516 20 -11.6602 20.0098 -7.05078 C 20.0195 -2.44141 16.3184 1.25 11.709 1.25 Z M 11.6797 -2.66602 C 12.207 -2.66602 12.5098 -3.01758 12.5098 -3.59375 L 12.5098 -6.23047 L 15.3223 -6.23047 C 15.8691 -6.23047 16.25 -6.51367 16.25 -7.03125 C 16.25 -7.55859 15.8887 -7.86133 15.3223 -7.86133 L 12.5098 -7.86133 L 12.5098 -10.6836 C 12.5098 -11.25 12.207 -11.6113 11.6797 -11.6113 C 11.1621 -11.6113 10.8789 -11.2305 10.8789 -10.6836 L 10.8789 -7.86133 L 8.07617 -7.86133 C 7.50977 -7.86133 7.13867 -7.55859 7.13867 -7.03125 C 7.13867 -6.51367 7.5293 -6.23047 8.07617 -6.23047 L 10.8789 -6.23047 L 10.8789 -3.59375 C 10.8789 -3.03711 11.1621 -2.66602 11.6797 -2.66602 Z"/>
  </g>
  <g id="" transform="matrix(1 0 0 1 304.924 1933)">
   <path d="M 14.9707 5.66406 C 21.9336 5.66406 27.6953 -0.0976562 27.6953 -7.05078 C 27.6953 -14.0137 21.9238 -19.7754 14.9609 -19.7754 C 8.00781 -19.7754 2.25586 -14.0137 2.25586 -7.05078 C 2.25586 -0.0976562 8.01758 5.66406 14.9707 5.66406 Z M 14.9707 3.84766 C 8.93555 3.84766 4.08203 -1.01562 4.08203 -7.05078 C 4.08203 -13.0957 8.92578 -17.9492 14.9609 -17.9492 C 21.0059 -17.9492 25.8594 -13.0957 25.8691 -7.05078 C 25.8789 -1.01562 21.0156 3.84766 14.9707 3.84766 Z M 14.9414 -1.38672 C 15.5176 -1.38672 15.8594 -1.77734 15.8594 -2.38281 L 15.8594 -6.13281 L 19.7754 -6.13281 C 20.3711 -6.13281 20.7812 -6.46484 20.7812 -7.02148 C 20.7812 -7.59766 20.3906 -7.93945 19.7754 -7.93945 L 15.8594 -7.93945 L 15.8594 -11.8652 C 15.8594 -12.4805 15.5176 -12.8711 14.9414 -12.8711 C 14.375 -12.8711 14.0527 -12.4609 14.0527 -11.8652 L 14.0527 -7.93945 L 10.1465 -7.93945 C 9.53125 -7.93945 9.13086 -7.59766 9.13086 -7.02148 C 9.13086 -6.46484 9.55078 -6.13281 10.1465 -6.13281 L 14.0527 -6.13281 L 14.0527 -2.38281 C 14.0527 -1.79688 14.375 -1.38672 14.9414 -1.38672 Z"/>
  </g>
  <text style="stroke:none;fill:black;font-family:-apple-system,&quot;SF Pro Display&quot;,&quot;SF Pro Text&quot;,Helvetica,sans-serif;font-weight:bold;" transform="matrix(1 0 0 1 263 1953)">Design Variations</text>
  <text style="stroke:none;fill:black;font-family:-apple-system,&quot;SF Pro Display&quot;,&quot;SF Pro Text&quot;,Helvetica,sans-serif;" transform="matrix(1 0 0 1 263 1971)">Symbols are supported in up to nine weights and three scales.</text>
  <text style="stroke:none;fill:black;font-family:-apple-system,&quot;SF Pro Display&quot;,&quot;SF Pro Text&quot;,Helvetica,sans-serif;" transform="matrix(1 0 0 1 263 1989)">For optimal layout with text and other symbols, vertically align</text>
  <text style="stroke:none;fill:black;font-family:-apple-system,&quot;SF Pro Display&quot;,&quot;SF Pro Text&quot;,Helvetica,sans-serif;" transform="matrix(1 0 0 1 263 2007)">symbols with the adjacent text.</text>
  <line id="" style="fill:none;stroke:#00AEEF;stroke-width:0.5;opacity:1.0;" x1="776" x2="776" y1="1919" y2="1933"/>
  <g id="" transform="matrix(1 0 0 1 776 1933)">
   <path d="M 3.31055 0.126953 C 3.82812 0.126953 4.08203 -0.0683594 4.26758 -0.605469 L 5.52734 -4.0625 L 11.2891 -4.0625 L 12.5488 -0.605469 C 12.7344 -0.0683594 12.9883 0.126953 13.4961 0.126953 C 14.0137 0.126953 14.3457 -0.185547 14.3457 -0.673828 C 14.3457 -0.839844 14.3164 -0.986328 14.2383 -1.20117 L 9.6582 -13.3887 C 9.43359 -13.9941 9.0332 -14.2871 8.4082 -14.2871 C 7.80273 -14.2871 7.39258 -13.9941 7.17773 -13.3984 L 2.59766 -1.19141 C 2.51953 -0.976562 2.49023 -0.830078 2.49023 -0.664062 C 2.49023 -0.175781 2.80273 0.126953 3.31055 0.126953 Z M 6.00586 -5.53711 L 8.37891 -12.1094 L 8.42773 -12.1094 L 10.8008 -5.53711 Z"/>
  </g>
  <line id="" style="fill:none;stroke:#00AEEF;stroke-width:0.5;opacity:1.0;" x1="792.836" x2="792.836" y1="1919" y2="1933"/>
  <text style="stroke:none;fill:black;font-family:-apple-system,&quot;SF Pro Display&quot;,&quot;SF Pro Text&quot;,Helvetica,sans-serif;font-weight:bold;" transform="matrix(1 0 0 1 776 1953)">Margins</text>
  <text style="stroke:none;fill:black;font-family:-apple-system,&quot;SF Pro Display&quot;,&quot;SF Pro Text&quot;,Helvetica,sans-serif;" transform="matrix(1 0 0 1 776 1971)">Leading and trailing margins on the left and right side of each symbol</text>
  <text style="stroke:none;fill:black;font-family:-apple-system,&quot;SF Pro Display&quot;,&quot;SF Pro Text&quot;,Helvetica,sans-serif;" transform="matrix(1 0 0 1 776 1989)">can be adjusted by modifying the x-location of the margin guidelines.</text>
  <text style="stroke:none;fill:black;font-family:-apple-system,&quot;SF Pro Display&quot;,&quot;SF Pro Text&quot;,Helvetica,sans-serif;" transform="matrix(1 0 0 1 776 2007)">Modifications are automatically applied proportionally to all</text>
  <text style="stroke:none;fill:black;font-family:-apple-system,&quot;SF Pro Display&quot;,&quot;SF Pro Text&quot;,Helvetica,sans-serif;" transform="matrix(1 0 0 1 776 2025)">scales and weights.</text>
  <g id="" transform="matrix(1 0 0 1 1289 1933)">
   <path d="M 2.8418 1.86523 L 4.54102 3.57422 C 5.40039 4.44336 6.38672 4.38477 7.31445 3.35938 L 17.4902 -7.85156 C 17.7539 -7.76367 18.0273 -7.7832 18.3398 -7.8418 L 19.4043 -8.03711 L 20.0684 -7.36328 L 20.0293 -6.80664 C 19.9902 -6.30859 20.1172 -5.92773 20.6055 -5.44922 L 21.3672 -4.70703 C 21.8457 -4.22852 22.4609 -4.19922 22.9297 -4.66797 L 25.8398 -7.58789 C 26.3086 -8.05664 26.2891 -8.65234 25.8105 -9.13086 L 25.0391 -9.89258 C 24.5605 -10.3711 24.1895 -10.5273 23.7109 -10.4883 L 23.1348 -10.4395 L 22.4902 -11.0742 L 22.7344 -12.1973 C 22.8613 -12.7637 22.7051 -13.2031 22.1191 -13.7891 L 19.9219 -15.9766 C 16.582 -19.2969 12.1484 -19.2188 9.25781 -16.3281 C 8.83789 -15.918 8.80859 -15.3418 9.04297 -14.9512 C 9.27734 -14.5898 9.73633 -14.3555 10.3809 -14.5215 C 11.8457 -14.8633 13.3691 -14.9219 14.7949 -13.9844 L 14.209 -12.5293 C 14.0137 -12.0508 13.9844 -11.6504 14.1113 -11.2891 L 3.04688 -0.898438 C 2.06055 0.0195312 1.98242 0.996094 2.8418 1.86523 Z M 10.752 -15.957 C 13.1836 -17.7344 16.4746 -17.4316 18.7012 -15.2051 L 21.1328 -12.793 C 21.3672 -12.5586 21.4062 -12.373 21.3379 -12.0312 L 21.0156 -10.5469 L 22.5195 -9.0625 L 23.5059 -9.12109 C 23.7598 -9.13086 23.8379 -9.11133 24.0332 -8.91602 L 24.6094 -8.33984 L 22.168 -5.89844 L 21.5918 -6.47461 C 21.3965 -6.66992 21.3672 -6.74805 21.377 -7.01172 L 21.4453 -7.98828 L 19.9512 -9.47266 L 18.4277 -9.21875 C 18.1055 -9.15039 17.959 -9.17969 17.7148 -9.41406 L 15.7129 -11.416 C 15.459 -11.6504 15.4297 -11.8164 15.5859 -12.1875 L 16.4648 -14.2773 C 14.9023 -15.7324 12.8711 -16.3574 10.8398 -15.7617 C 10.6836 -15.7227 10.625 -15.8496 10.752 -15.957 Z M 5.27344 2.30469 L 4.10156 1.14258 C 3.63281 0.683594 3.74023 0.341797 4.14062 -0.0195312 L 14.9512 -10.1953 L 16.416 -8.71094 L 6.42578 2.27539 C 6.07422 2.67578 5.74219 2.77344 5.27344 2.30469 Z"/>
  </g>
  <text style="stroke:none;fill:black;font-family:-apple-system,&quot;SF Pro Display&quot;,&quot;SF Pro Text&quot;,Helvetica,sans-serif;font-weight:bold;" transform="matrix(1 0 0 1 1289 1953)">Exporting</text>
  <text style="stroke:none;fill:black;font-family:-apple-system,&quot;SF Pro Display&quot;,&quot;SF Pro Text&quot;,Helvetica,sans-serif;" transform="matrix(1 0 0 1 1289 1971)">Symbols should be outlined when exporting to ensure the</text>
  <text style="stroke:none;fill:black;font-family:-apple-system,&quot;SF Pro Display&quot;,&quot;SF Pro Text&quot;,Helvetica,sans-serif;" transform="matrix(1 0 0 1 1289 1989)">design is preserved when submitting to Xcode.</text>
  <text id="template-version" style="stroke:none;fill:black;font-family:-apple-system,&quot;SF Pro Display&quot;,&quot;SF Pro Text&quot;,Helvetica,sans-serif;text-anchor:end;" transform="matrix(1 0 0 1 3036 1933)">Template v.2.0</text>
  <text style="stroke:none;fill:black;font-family:-apple-system,&quot;SF Pro Display&quot;,&quot;SF Pro Text&quot;,Helvetica,sans-serif;text-anchor:end;" transform="matrix(1 0 0 1 3036 1951)">Requires Xcode 12 or greater</text>
  <text style="stroke:none;fill:black;font-family:-apple-system,&quot;SF Pro Display&quot;,&quot;SF Pro Text&quot;,Helvetica,sans-serif;text-anchor:end;" transform="matrix(1 0 0 1 3036 1969)">Generated from house.fill</text>
  <text style="stroke:none;fill:black;font-family:-apple-system,&quot;SF Pro Display&quot;,&quot;SF Pro Text&quot;,Helvetica,sans-serif;text-anchor:end;" transform="matrix(1 0 0 1 3036 1987)">Typeset at 100 points</text>
  <text style="stroke:none;fill:black;font-family:-apple-system,&quot;SF Pro Display&quot;,&quot;SF Pro Text&quot;,Helvetica,sans-serif;" transform="matrix(1 0 0 1 263 726)">Small</text>
  <text style="stroke:none;fill:black;font-family:-apple-system,&quot;SF Pro Display&quot;,&quot;SF Pro Text&quot;,Helvetica,sans-serif;" transform="matrix(1 0 0 1 263 1156)">Medium</text>
  <text style="stroke:none;fill:black;font-family:-apple-system,&quot;SF Pro Display&quot;,&quot;SF Pro Text&quot;,Helvetica,sans-serif;" transform="matrix(1 0 0 1 263 1586)">Large</text>
 </g>
 <g id="Guides">
  <g id="H-reference" style="fill:#27AAE1;stroke:none;" transform="matrix(1 0 0 1 339 696)">
   <path d="M 0.976562 0 L 3.66211 0 L 12.9883 -24.4629 L 45.7031 -24.4629 L 55.0781 0 L 57.7148 0 L 30.6152 -70.459 L 28.125 -70.459 Z M 29.2969 -67.1387 L 29.3945 -67.1387 L 44.873 -26.709 L 13.8672 -26.709 Z"/>
  </g>
  <line id="Baseline-S" style="fill:none;stroke:#27AAE1;opacity:1;stroke-width:0.5;" x1="263" x2="3036" y1="696" y2="696"/>
  <line id="Capline-S" style="fill:none;stroke:#27AAE1;opacity:1;stroke-width:0.5;" x1="263" x2="3036" y1="625.541" y2="625.541"/>
  <g id="H-reference" style="fill:#27AAE1;stroke:none;" transform="matrix(1 0 0 1 339 1126)">
   <path d="M 0.976562 0 L 3.66211 0 L 12.9883 -24.4629 L 45.7031 -24.4629 L 55.0781 0 L 57.7148 0 L 30.6152 -70.459 L 28.125 -70.459 Z M 29.2969 -67.1387 L 29.3945 -67.1387 L 44.873 -26.709 L 13.8672 -26.709 Z"/>
  </g>
  <line id="Baseline-M" style="fill:none;stroke:#27AAE1;opacity:1;stroke-width:0.5;" x1="263" x2="3036" y1="1126" y2="1126"/>
  <line id="Capline-M" style="fill:none;stroke:#27AAE1;opacity:1;stroke-width:0.5;" x1="263" x2="3036" y1="1055.54" y2="1055.54"/>
  <g id="H-reference" style="fill:#27AAE1;stroke:none;" transform="matrix(1 0 0 1 339 1556)">
   <path d="M 0.976562 0 L 3.66211 0 L 12.9883 -24.4629 L 45.7031 -24.4629 L 55.0781 0 L 57.7148 0 L 30.6152 -70.459 L 28.125 -70.459 Z M 29.2969 -67.1387 L 29.3945 -67.1387 L 44.873 -26.709 L 13.8672 -26.709 Z"/>
  </g>
  <line id="Baseline-L" style="fill:none;stroke:#27AAE1;opacity:1;stroke-width:0.5;" x1="263" x2="3036" y1="1556" y2="1556"/>
  <line id="Capline-L" style="fill:none;stroke:#27AAE1;opacity:1;stroke-width:0.5;" x1="263" x2="3036" y1="1485.54" y2="1485.54"/>
  <line id="left-margin" style="fill:none;stroke:#00AEEF;stroke-width:0.5;opacity:1.0;" x1="1379.12" x2="1379.12" y1="1030.79" y2="1150.12"/>
  <line id="right-margin" style="fill:none;stroke:#00AEEF;stroke-width:0.5;opacity:1.0;" x1="1520.57" x2="1520.57" y1="1030.79" y2="1150.12"/>
 </g>
 <g id="Symbols">
  <g id="Black-L" transform="matrix(1 0 0 1 2834.28 1556)">
   <path d="M 16.0645 -37.207 C 16.0645 -31.5918 20.0684 -27.5879 26.2207 -27.5879 C 28.8574 -27.5879 31.6895 -28.8574 34.0332 -30.8594 L 95.0195 -81.9824 C 97.7051 -84.2773 100.635 -84.2285 103.369 -81.9824 L 164.258 -30.8594 C 166.602 -28.8574 169.385 -27.5879 172.07 -27.5879 C 178.076 -27.5879 182.178 -31.3477 182.178 -37.1582 C 182.178 -40.1367 180.713 -43.2129 178.125 -45.3613 L 159.961 -60.5957 L 159.961 -89.4531 C 159.961 -92.627 157.959 -94.6289 154.834 -94.6289 L 140.234 -94.6289 C 137.109 -94.6289 135.01 -92.627 135.01 -89.4531 L 135.01 -81.5918 L 112.402 -100.586 C 104.443 -107.227 93.9453 -107.227 86.0352 -100.586 L 20.166 -45.3125 C 17.5293 -43.0664 16.0645 -40.0391 16.0645 -37.207 Z M 39.1602 20.6543 C 39.1602 30.8105 46.2402 37.4023 57.1777 37.4023 L 141.016 37.4023 C 151.953 37.4023 159.033 30.8105 159.033 20.6543 L 159.033 -20.2637 L 103.369 -66.9922 C 100.732 -69.2383 97.5586 -69.2383 94.9707 -66.9922 L 39.1602 -20.2637 Z M 116.602 20.0684 L 81.6895 20.0684 L 81.6895 -16.3574 C 81.6895 -19.4824 83.7402 -21.5332 86.9141 -21.5332 L 111.475 -21.5332 C 114.6 -21.5332 116.602 -19.4824 116.602 -16.3574 Z"/>
  </g>
  <g id="Heavy-L" transform="matrix(1 0 0 1 2539.79 1556)">
   <path d="M 16.0645 -37.7441 C 16.0645 -32.9102 19.5312 -29.3945 24.9023 -29.3945 C 27.2949 -29.3945 29.7363 -30.5664 31.7871 -32.2754 L 93.2129 -83.7891 C 95.6055 -85.8398 98.291 -85.8398 100.732 -83.7891 L 162.061 -32.2754 C 164.111 -30.5664 166.504 -29.3945 168.896 -29.3945 C 174.121 -29.3945 177.734 -32.6172 177.734 -37.6465 C 177.734 -40.332 176.465 -42.9199 174.219 -44.8242 L 156.396 -59.8145 L 156.396 -87.8906 C 156.396 -90.8691 154.443 -92.7734 151.514 -92.7734 L 138.867 -92.7734 C 135.938 -92.7734 133.936 -90.8691 133.936 -87.8906 L 133.936 -78.6621 L 108.691 -99.8535 C 101.611 -105.811 92.334 -105.811 85.2051 -99.8535 L 19.5801 -44.7754 C 17.334 -42.8223 16.0645 -40.2344 16.0645 -37.7441 Z M 38.1348 19.873 C 38.1348 29.5898 44.7266 35.791 55.0293 35.791 L 138.721 35.791 C 149.072 35.791 155.664 29.5898 155.664 19.873 L 155.664 -23.7793 L 101.025 -69.6289 C 98.4375 -71.8262 95.3613 -71.7773 92.8223 -69.6289 L 38.1348 -23.7793 Z M 114.062 20.5078 L 79.7852 20.5078 L 79.7852 -17.2852 C 79.7852 -20.3613 81.7871 -22.3145 84.8145 -22.3145 L 109.082 -22.3145 C 112.109 -22.3145 114.062 -20.3613 114.062 -17.2852 Z"/>
  </g>
  <g id="Bold-L" transform="matrix(1 0 0 1 2245.59 1556)">
   <path d="M 16.0645 -38.3301 C 16.0645 -34.4238 18.9453 -31.3965 23.4375 -31.3965 C 25.5371 -31.3965 27.5391 -32.4707 29.248 -33.8867 L 91.1621 -85.8398 C 93.2617 -87.6465 95.6055 -87.6465 97.7539 -85.8398 L 159.57 -33.8867 C 161.279 -32.4707 163.281 -31.3965 165.381 -31.3965 C 169.629 -31.3965 172.705 -34.082 172.705 -38.2324 C 172.705 -40.5762 171.729 -42.627 169.824 -44.1895 L 152.344 -58.8867 L 152.344 -86.084 C 152.344 -88.8672 150.537 -90.6738 147.754 -90.6738 L 137.354 -90.6738 C 134.57 -90.6738 132.715 -88.8672 132.715 -86.084 L 132.715 -75.4395 L 104.59 -99.0234 C 98.4375 -104.248 90.5273 -104.248 84.3262 -99.0234 L 18.9941 -44.1895 C 17.0898 -42.5781 16.0645 -40.4297 16.0645 -38.3301 Z M 36.9629 18.9941 C 36.9629 28.2227 42.9688 33.9355 52.6367 33.9355 L 136.182 33.9355 C 145.85 33.9355 151.855 28.2227 151.855 18.9941 L 151.855 -27.6855 L 98.4375 -72.5098 C 95.8984 -74.707 92.9199 -74.6582 90.3809 -72.5098 L 36.9629 -27.7344 Z M 111.182 20.9961 L 77.6367 20.9961 L 77.6367 -18.3594 C 77.6367 -21.2891 79.5898 -23.1445 82.5195 -23.1445 L 106.348 -23.1445 C 109.326 -23.1445 111.182 -21.2891 111.182 -18.3594 Z"/>
  </g>
  <g id="Semibold-L" transform="matrix(1 0 0 1 1950.59 1556)">
   <path d="M 16.0645 -38.7695 C 16.0645 -35.498 18.5059 -32.8125 22.4609 -32.8125 C 24.3164 -32.8125 26.0254 -33.7402 27.4902 -35.0098 L 89.7949 -87.2559 C 91.6504 -88.8672 93.75 -88.916 95.7031 -87.2559 L 157.861 -35.0098 C 159.375 -33.7402 161.084 -32.8125 162.939 -32.8125 C 166.602 -32.8125 169.287 -35.0586 169.287 -38.623 C 169.287 -40.7227 168.457 -42.4316 166.797 -43.7988 L 149.561 -58.3008 L 149.561 -84.8633 C 149.561 -87.5 147.852 -89.209 145.166 -89.209 L 136.279 -89.209 C 133.643 -89.209 131.836 -87.5 131.836 -84.8633 L 131.836 -73.1934 L 101.758 -98.4863 C 96.2402 -103.125 89.3066 -103.125 83.7402 -98.4863 L 18.5547 -43.7988 C 16.8945 -42.3828 16.0645 -40.5273 16.0645 -38.7695 Z M 36.1328 18.4082 C 36.1328 27.2949 41.7969 32.7148 50.9766 32.7148 L 134.424 32.7148 C 143.604 32.7148 149.268 27.2949 149.268 18.4082 L 149.268 -30.4199 L 96.6797 -74.5605 C 94.1406 -76.709 91.2109 -76.6113 88.7207 -74.5605 L 36.1328 -30.4199 Z M 109.229 21.2891 L 76.1719 21.2891 L 76.1719 -19.043 C 76.1719 -21.9238 78.0762 -23.7793 80.9082 -23.7793 L 104.492 -23.7793 C 107.373 -23.7793 109.229 -21.9238 109.229 -19.043 Z"/>
  </g>
  <g id="Medium-L" transform="matrix(1 0 0 1 1655.2 1556)">
   <path d="M 16.0645 -39.0625 C 16.0645 -36.2793 18.2129 -33.8379 21.6797 -33.8379 C 23.3887 -33.8379 24.8535 -34.7168 26.1719 -35.8398 L 88.7207 -88.2812 C 90.4297 -89.7949 92.3828 -89.8438 94.1895 -88.2812 L 156.592 -35.8398 C 157.91 -34.7168 159.375 -33.8379 161.084 -33.8379 C 164.258 -33.8379 166.65 -35.8398 166.65 -38.9648 C 166.65 -40.8203 165.967 -42.2852 164.502 -43.5059 L 147.461 -57.8125 L 147.461 -83.9355 C 147.461 -86.4746 145.801 -88.1348 143.213 -88.1348 L 135.498 -88.1348 C 132.959 -88.1348 131.201 -86.4746 131.201 -83.9355 L 131.201 -71.4844 L 99.6094 -98.0469 C 94.5801 -102.295 88.3301 -102.295 83.252 -98.0469 L 18.2617 -43.457 C 16.748 -42.2363 16.0645 -40.625 16.0645 -39.0625 Z M 35.5469 17.9688 C 35.5469 26.5625 40.8691 31.7871 49.7559 31.7871 L 133.057 31.7871 C 141.943 31.7871 147.314 26.5625 147.314 17.9688 L 147.314 -32.4707 L 95.3125 -76.0742 C 92.7734 -78.1738 89.9414 -78.125 87.5 -76.0742 L 35.5469 -32.5195 Z M 107.715 21.5332 L 75.0488 21.5332 L 75.0488 -19.6289 C 75.0488 -22.4121 76.9043 -24.2188 79.7363 -24.2188 L 103.125 -24.2188 C 105.908 -24.2188 107.715 -22.4121 107.715 -19.6289 Z"/>
  </g>
  <g id="Regular-L" transform="matrix(1 0 0 1 1360.2 1556)">
   <path d="M 16.0645 -39.502 C 16.0645 -37.3047 17.7734 -35.2051 20.7031 -35.2051 C 22.168 -35.2051 23.3887 -36.0352 24.4629 -36.9629 L 87.3535 -89.6973 C 88.8184 -91.0156 90.5273 -91.0645 92.1387 -89.6973 L 154.883 -36.9629 C 156.006 -36.0352 157.178 -35.2051 158.691 -35.2051 C 161.23 -35.2051 163.232 -36.8164 163.232 -39.3555 C 163.232 -40.9668 162.695 -42.041 161.523 -43.0664 L 144.727 -57.2266 L 144.727 -82.7148 C 144.727 -85.1562 143.115 -86.7188 140.674 -86.7188 L 134.473 -86.7188 C 132.031 -86.7188 130.371 -85.1562 130.371 -82.7148 L 130.371 -69.2383 L 96.8262 -97.4609 C 92.4316 -101.221 87.1094 -101.221 82.666 -97.4609 L 17.8223 -43.0664 C 16.6016 -42.041 16.0645 -40.7715 16.0645 -39.502 Z M 34.7168 17.334 C 34.7168 25.6348 39.6973 30.5176 48.0957 30.5176 L 131.348 30.5176 C 139.746 30.5176 144.727 25.6348 144.727 17.334 L 144.727 -35.1074 L 93.5547 -78.0273 C 91.0645 -80.1758 88.2324 -80.0781 85.8398 -78.0273 L 34.7168 -35.2051 Z M 105.762 21.875 L 73.584 21.875 L 73.584 -20.3125 C 73.584 -23.0469 75.3906 -24.8047 78.125 -24.8047 L 101.27 -24.8047 C 104.004 -24.8047 105.762 -23.0469 105.762 -20.3125 Z"/>
  </g>
  <g id="Light-L" transform="matrix(1 0 0 1 1065.68 1556)">
   <path d="M 16.0645 -40.4785 C 16.0645 -38.8184 17.3828 -37.2559 19.5801 -37.2559 C 20.7031 -37.2559 21.5332 -37.8418 22.3633 -38.5254 L 84.9609 -91.0156 C 86.5723 -92.4316 88.3301 -92.627 90.1855 -91.0156 L 152.588 -38.5254 C 153.418 -37.8418 154.248 -37.2559 155.371 -37.2559 C 157.324 -37.2559 158.838 -38.4766 158.838 -40.3809 C 158.838 -41.6504 158.447 -42.4805 157.422 -43.3105 L 141.748 -56.4941 L 141.748 -82.3242 C 141.748 -84.375 140.381 -85.6934 138.428 -85.6934 L 132.91 -85.6934 C 130.908 -85.6934 129.492 -84.375 129.492 -82.3242 L 129.492 -66.8457 L 93.9453 -96.7285 C 89.9902 -100.146 85.2539 -100.146 81.2012 -96.7285 L 17.5293 -43.3105 C 16.5039 -42.4805 16.0645 -41.5039 16.0645 -40.4785 Z M 33.3496 17.2363 C 33.3496 24.9023 37.9395 29.4434 45.7031 29.4434 L 129.443 29.4434 C 137.158 29.4434 141.748 24.9023 141.748 17.2363 L 141.748 -38.7207 L 91.4551 -80.957 C 88.8184 -83.2031 86.1328 -83.1055 83.5449 -80.957 L 33.3496 -38.8184 Z M 103.369 22.8027 L 71.582 22.8027 L 71.582 -20.1172 C 71.582 -22.6074 73.2422 -24.2676 75.7324 -24.2676 L 99.2188 -24.2676 C 101.758 -24.2676 103.369 -22.6074 103.369 -20.1172 Z"/>
  </g>
  <g id="Thin-L" transform="matrix(1 0 0 1 771.876 1556)">
   <path d="M 16.0645 -41.748 C 16.0645 -40.7715 16.8457 -39.9414 18.0664 -39.9414 C 18.75 -39.9414 19.1406 -40.1855 19.6289 -40.5762 L 81.7871 -92.7734 C 83.5938 -94.3359 85.4492 -94.6289 87.5977 -92.7734 L 149.512 -40.5762 C 150 -40.1855 150.342 -39.9414 151.025 -39.9414 C 152.197 -39.9414 153.027 -40.7227 153.027 -41.748 C 153.027 -42.5293 152.734 -43.0176 152.051 -43.6523 L 137.891 -55.5664 L 137.891 -81.8848 C 137.891 -83.3984 136.816 -84.375 135.4 -84.375 L 130.811 -84.375 C 129.395 -84.375 128.32 -83.3984 128.32 -81.8848 L 128.32 -63.623 L 90.1855 -95.752 C 86.7188 -98.7793 82.8125 -98.7793 79.248 -95.752 L 17.0898 -43.6523 C 16.3574 -43.0176 16.0645 -42.4805 16.0645 -41.748 Z M 31.4941 17.041 C 31.4941 23.9258 35.5957 27.9785 42.4805 27.9785 L 126.904 27.9785 C 133.789 27.9785 137.891 23.9258 137.891 17.041 L 137.891 -43.5059 L 88.6719 -84.8145 C 85.8398 -87.207 83.3008 -87.1094 80.5664 -84.8145 L 31.4941 -43.6523 Z M 100.146 24.0723 L 68.9453 24.0723 L 68.9453 -19.873 C 68.9453 -22.0703 70.3613 -23.4863 72.5586 -23.4863 L 96.5332 -23.4863 C 98.7305 -23.4863 100.146 -22.0703 100.146 -19.873 Z"/>
  </g>
  <g id="Ultralight-L" transform="matrix(1 0 0 1 476.654 1556)">
   <path d="M 16.0645 -42.4316 C 16.0645 -41.7969 16.5527 -41.3086 17.2852 -41.3086 C 17.7734 -41.3086 17.8711 -41.4062 18.2129 -41.6504 L 80.1758 -93.7012 C 82.0801 -95.3125 83.9355 -95.7031 86.2793 -93.7012 L 147.9 -41.6504 C 148.242 -41.4062 148.34 -41.3086 148.828 -41.3086 C 149.561 -41.3086 150.049 -41.8457 150.049 -42.4316 C 150.049 -42.9688 149.854 -43.2617 149.268 -43.7988 L 135.889 -55.0781 L 135.889 -81.6406 C 135.889 -82.8613 135.01 -83.6914 133.838 -83.6914 L 129.736 -83.6914 C 128.613 -83.6914 127.734 -82.8613 127.734 -81.6406 L 127.734 -61.9629 L 88.2324 -95.2637 C 85.0586 -98.0469 81.543 -98.0469 78.2227 -95.2637 L 16.8457 -43.7988 C 16.2598 -43.2617 16.0645 -42.9688 16.0645 -42.4316 Z M 30.5664 16.9434 C 30.5664 23.4375 34.375 27.2461 40.8691 27.2461 L 125.635 27.2461 C 132.08 27.2461 135.889 23.4375 135.889 16.9434 L 135.889 -45.9473 L 87.2559 -86.8164 C 84.3262 -89.2578 81.8848 -89.1602 79.0039 -86.8164 L 30.5664 -46.0938 Z M 98.4863 24.707 L 67.627 24.707 L 67.627 -19.7754 C 67.627 -21.7773 68.8965 -23.0957 70.9473 -23.0957 L 95.166 -23.0957 C 97.168 -23.0957 98.4863 -21.7773 98.4863 -19.7754 Z"/>
  </g>
  <g id="Black-M" transform="matrix(1 0 0 1 2854.74 1126)">
   <path d="M 12.4512 -36.5723 C 12.4512 -31.3965 16.0645 -27.9785 21.4355 -27.9785 C 23.7305 -27.9785 26.2207 -29.0039 28.3203 -30.7617 L 74.8047 -69.7266 C 77.3438 -71.875 80.0293 -71.875 82.666 -69.7266 L 129.004 -30.7617 C 131.104 -29.0039 133.594 -27.9785 135.889 -27.9785 C 141.309 -27.9785 144.873 -31.3965 144.873 -36.5723 C 144.873 -39.1113 143.506 -41.9922 141.162 -43.9453 L 127.295 -55.6152 L 127.295 -79.248 C 127.295 -81.6895 125.732 -83.2031 123.291 -83.2031 L 109.717 -83.2031 C 107.275 -83.2031 105.664 -81.6895 105.664 -79.248 L 105.664 -73.7793 L 90.5273 -86.4746 C 83.4473 -92.3828 74.0234 -92.3828 66.9434 -86.4746 L 16.1621 -43.8477 C 13.8184 -41.8457 12.4512 -39.1602 12.4512 -36.5723 Z M 31.0059 9.08203 C 31.0059 17.1875 36.9629 22.6562 45.9473 22.6562 L 111.328 22.6562 C 120.312 22.6562 126.27 17.1875 126.27 9.08203 L 126.27 -20.8008 L 82.1289 -57.9102 C 79.9805 -59.7168 77.4414 -59.7168 75.293 -57.9102 L 31.0059 -20.8008 Z M 92.5293 7.56836 L 64.7949 7.56836 L 64.7949 -19.2383 C 64.7949 -21.6797 66.4062 -23.2422 68.8477 -23.2422 L 88.5254 -23.2422 C 90.9668 -23.2422 92.5293 -21.6797 92.5293 -19.2383 Z"/>
  </g>
  <g id="Heavy-M" transform="matrix(1 0 0 1 2559.91 1126)">
   <path d="M 12.4512 -36.8652 C 12.4512 -32.4707 15.5762 -29.4434 20.3125 -29.4434 C 22.3633 -29.4434 24.5605 -30.3711 26.3672 -31.8848 L 73.4375 -71.3379 C 75.6348 -73.2422 78.0273 -73.2422 80.2734 -71.3379 L 127.197 -31.8848 C 129.053 -30.3711 131.201 -29.4434 133.252 -29.4434 C 137.939 -29.4434 141.113 -32.373 141.113 -36.8652 C 141.113 -39.1602 139.941 -41.6016 137.939 -43.2617 L 124.121 -54.8828 L 124.121 -77.5879 C 124.121 -79.9316 122.559 -81.4453 120.215 -81.4453 L 108.594 -81.4453 C 106.25 -81.4453 104.688 -79.9316 104.688 -77.5879 L 104.688 -71.2402 L 87.2559 -85.8887 C 81.0059 -91.1133 72.7051 -91.1133 66.4551 -85.8887 L 15.6738 -43.2129 C 13.623 -41.5039 12.4512 -39.1113 12.4512 -36.8652 Z M 30.2246 8.25195 C 30.2246 16.0645 35.7422 21.1426 44.1895 21.1426 L 109.326 21.1426 C 117.822 21.1426 123.34 16.0645 123.34 8.25195 L 123.34 -23.7305 L 80.127 -60.0098 C 78.0762 -61.7676 75.5859 -61.7188 73.5352 -60.0098 L 30.2246 -23.7305 Z M 90.3809 7.76367 L 63.2324 7.76367 L 63.2324 -20.3125 C 63.2324 -22.7051 64.8438 -24.2676 67.2363 -24.2676 L 86.4258 -24.2676 C 88.8184 -24.2676 90.3809 -22.7051 90.3809 -20.3125 Z"/>
  </g>
  <g id="Bold-M" transform="matrix(1 0 0 1 2265.27 1126)">
   <path d="M 12.4512 -37.2559 C 12.4512 -33.6914 15.0391 -31.0059 19.043 -31.0059 C 20.8984 -31.0059 22.7051 -31.8848 24.2188 -33.2031 L 71.9238 -73.1934 C 73.7305 -74.7559 75.7324 -74.7559 77.5879 -73.1934 L 125.195 -33.2031 C 126.709 -31.8848 128.564 -31.0059 130.371 -31.0059 C 134.229 -31.0059 136.963 -33.4473 136.963 -37.207 C 136.963 -39.209 136.035 -41.1133 134.326 -42.5293 L 120.557 -54.1504 L 120.557 -75.7324 C 120.557 -78.0273 119.092 -79.4922 116.797 -79.4922 L 107.422 -79.4922 C 105.127 -79.4922 103.613 -78.0273 103.613 -75.7324 L 103.613 -68.3594 L 83.5938 -85.2051 C 78.2715 -89.6973 71.2891 -89.6973 65.918 -85.2051 L 15.0879 -42.5293 C 13.3789 -41.0645 12.4512 -39.1113 12.4512 -37.2559 Z M 29.3457 7.32422 C 29.3457 14.7949 34.375 19.4824 42.2852 19.4824 L 107.08 19.4824 C 115.039 19.4824 120.02 14.7949 120.02 7.32422 L 120.02 -26.9531 L 77.8809 -62.3535 C 75.9277 -64.0137 73.5352 -64.0137 71.5332 -62.3535 L 29.3457 -26.9531 Z M 87.9395 8.00781 L 61.4746 8.00781 L 61.4746 -21.5332 C 61.4746 -23.877 63.0371 -25.3906 65.3809 -25.3906 L 84.082 -25.3906 C 86.4258 -25.3906 87.9395 -23.877 87.9395 -21.5332 Z"/>
  </g>
  <g id="Semibold-M" transform="matrix(1 0 0 1 1970 1126)">
   <path d="M 12.4512 -37.5 C 12.4512 -34.5215 14.6484 -32.1289 18.2129 -32.1289 C 19.8242 -32.1289 21.3867 -32.959 22.7539 -34.082 L 70.8984 -74.4629 C 72.4121 -75.7812 74.1699 -75.7812 75.7324 -74.4629 L 123.779 -34.082 C 125.146 -32.959 126.709 -32.1289 128.369 -32.1289 C 131.641 -32.1289 134.082 -34.1797 134.082 -37.4023 C 134.082 -39.2578 133.301 -40.8203 131.836 -42.041 L 118.115 -53.6133 L 118.115 -74.4629 C 118.115 -76.6602 116.65 -78.125 114.453 -78.125 L 106.543 -78.125 C 104.346 -78.125 102.832 -76.6602 102.832 -74.4629 L 102.832 -66.4062 L 81.0547 -84.7168 C 76.3672 -88.6719 70.3125 -88.6719 65.5762 -84.7168 L 14.6973 -42.041 C 13.2324 -40.7715 12.4512 -39.1113 12.4512 -37.5 Z M 28.7598 6.68945 C 28.7598 13.916 33.4473 18.3594 40.9668 18.3594 L 105.566 18.3594 C 113.086 18.3594 117.773 13.916 117.773 6.68945 L 117.773 -29.1992 L 76.3672 -63.9648 C 74.4141 -65.5762 72.0703 -65.5273 70.2148 -63.9648 L 28.7598 -29.1992 Z M 86.2793 8.20312 L 60.3027 8.20312 L 60.3027 -22.3633 C 60.3027 -24.6582 61.8164 -26.123 64.1113 -26.123 L 82.4707 -26.123 C 84.7656 -26.123 86.2793 -24.6582 86.2793 -22.3633 Z"/>
  </g>
  <g id="Medium-M" transform="matrix(1 0 0 1 1674.39 1126)">
   <path d="M 12.4512 -37.6953 C 12.4512 -35.1562 14.4043 -32.959 17.5293 -32.959 C 19.043 -32.959 20.4102 -33.7891 21.6309 -34.7656 L 70.0684 -75.4395 C 71.4355 -76.6113 72.998 -76.6113 74.3652 -75.4395 L 122.754 -34.7656 C 123.926 -33.7891 125.293 -32.959 126.807 -32.959 C 129.688 -32.959 131.885 -34.7656 131.885 -37.5977 C 131.885 -39.2578 131.25 -40.5762 129.98 -41.6504 L 116.26 -53.1738 L 116.26 -73.4863 C 116.26 -75.6836 114.844 -77.0508 112.646 -77.0508 L 105.908 -77.0508 C 103.76 -77.0508 102.295 -75.6836 102.295 -73.4863 L 102.295 -64.9414 L 79.1504 -84.375 C 74.9023 -87.9395 69.5312 -87.9395 65.2832 -84.375 L 14.4043 -41.6504 C 13.0859 -40.5762 12.4512 -39.1113 12.4512 -37.6953 Z M 28.3203 6.20117 C 28.3203 13.2324 32.7148 17.4805 39.9902 17.4805 L 104.395 17.4805 C 111.621 17.4805 116.064 13.2324 116.064 6.20117 L 116.064 -30.9082 L 75.1953 -65.1367 C 73.291 -66.7969 70.9961 -66.748 69.1406 -65.1367 L 28.3203 -30.9082 Z M 85.0098 8.30078 L 59.375 8.30078 L 59.375 -22.9492 C 59.375 -25.2441 60.8887 -26.709 63.1836 -26.709 L 81.25 -26.709 C 83.5449 -26.709 85.0098 -25.2441 85.0098 -22.9492 Z"/>
  </g>
  <g id="Regular-M" transform="matrix(1 0 0 1 1379.12 1126)">
   <path d="M 12.4512 -37.9883 C 12.4512 -35.9863 14.0137 -34.082 16.6504 -34.082 C 18.0176 -34.082 19.1406 -34.8145 20.166 -35.6445 L 69.043 -76.6602 C 70.1172 -77.6367 71.4355 -77.6367 72.5098 -76.6602 L 121.387 -35.6445 C 122.363 -34.8145 123.486 -34.082 124.854 -34.082 C 127.148 -34.082 129.004 -35.498 129.004 -37.8418 C 129.004 -39.3066 128.516 -40.2832 127.49 -41.1621 L 113.818 -52.6855 L 113.818 -72.2168 C 113.818 -74.3652 112.451 -75.7324 110.303 -75.7324 L 105.078 -75.7324 C 102.979 -75.7324 101.562 -74.3652 101.562 -72.2168 L 101.562 -62.9883 L 76.6602 -83.8867 C 73.0469 -86.9629 68.5547 -86.9629 64.8926 -83.8867 L 14.0137 -41.1621 C 12.9395 -40.2832 12.4512 -39.1113 12.4512 -37.9883 Z M 27.6855 5.61523 C 27.6855 12.3535 31.7871 16.3574 38.6719 16.3574 L 102.881 16.3574 C 109.766 16.3574 113.818 12.3535 113.818 5.61523 L 113.818 -33.1055 L 73.6816 -66.748 C 71.8262 -68.3105 69.6289 -68.2617 67.8223 -66.748 L 27.6855 -33.1055 Z M 83.3496 8.49609 L 58.1543 8.49609 L 58.1543 -23.7793 C 58.1543 -26.0254 59.668 -27.4902 61.9141 -27.4902 L 79.6387 -27.4902 C 81.8848 -27.4902 83.3496 -26.0254 83.3496 -23.7793 Z"/>
  </g>
  <g id="Light-M" transform="matrix(1 0 0 1 1084.36 1126)">
   <path d="M 12.4512 -38.8672 C 12.4512 -37.3047 13.6719 -35.8887 15.6738 -35.8887 C 16.6992 -35.8887 17.5293 -36.4258 18.2617 -37.0605 L 66.8945 -77.8809 C 68.1152 -78.9062 69.4336 -79.0039 70.752 -77.8809 L 119.287 -37.0605 C 120.068 -36.4258 120.85 -35.8887 121.875 -35.8887 C 123.682 -35.8887 125.098 -37.0117 125.098 -38.7695 C 125.098 -39.8926 124.707 -40.6738 123.828 -41.4062 L 111.182 -52.0508 L 111.182 -71.875 C 111.182 -73.6816 110.01 -74.8047 108.301 -74.8047 L 103.711 -74.8047 C 101.953 -74.8047 100.732 -73.6816 100.732 -71.875 L 100.732 -60.791 L 74.1211 -83.252 C 70.8496 -86.0352 66.8945 -86.0352 63.5742 -83.252 L 13.7207 -41.4062 C 12.8418 -40.6738 12.4512 -39.7461 12.4512 -38.8672 Z M 26.4648 5.46875 C 26.4648 11.7188 30.1758 15.3809 36.4746 15.3809 L 101.172 15.3809 C 107.471 15.3809 111.182 11.7188 111.182 5.46875 L 111.182 -36.3281 L 71.8262 -69.3848 C 69.8242 -71.0449 67.6758 -70.9961 65.7715 -69.3848 L 26.4648 -36.377 Z M 81.2012 9.32617 L 56.3965 9.32617 L 56.3965 -23.6328 C 56.3965 -25.6348 57.7148 -26.9531 59.7656 -26.9531 L 77.832 -26.9531 C 79.8828 -26.9531 81.2012 -25.6348 81.2012 -23.6328 Z"/>
  </g>
  <g id="Thin-M" transform="matrix(1 0 0 1 790.26 1126)">
   <path d="M 12.4512 -39.9902 C 12.4512 -39.1113 13.1836 -38.2812 14.3066 -38.2812 C 14.9414 -38.2812 15.332 -38.5742 15.8203 -38.916 L 64.0625 -79.4434 C 65.4297 -80.6152 66.8457 -80.8594 68.457 -79.4434 L 116.504 -38.916 C 116.992 -38.5742 117.383 -38.2812 118.018 -38.2812 C 119.092 -38.2812 119.873 -39.0137 119.873 -39.9902 C 119.873 -40.6738 119.629 -41.1621 118.994 -41.6504 L 107.715 -51.1719 L 107.715 -71.4844 C 107.715 -72.7539 106.836 -73.584 105.566 -73.584 L 101.807 -73.584 C 100.586 -73.584 99.707 -72.7539 99.707 -71.4844 L 99.707 -57.9102 L 70.7031 -82.373 C 67.9199 -84.7656 64.6973 -84.7656 61.8164 -82.373 L 13.3301 -41.6504 C 12.6953 -41.1621 12.4512 -40.625 12.4512 -39.9902 Z M 24.8047 5.32227 C 24.8047 10.8398 28.0762 14.0625 33.6426 14.0625 L 98.877 14.0625 C 104.443 14.0625 107.715 10.8398 107.715 5.32227 L 107.715 -40.625 L 69.3359 -72.8516 C 67.1875 -74.6582 65.1855 -74.5605 63.0859 -72.8516 L 24.8047 -40.7227 Z M 78.3203 10.4492 L 54.0039 10.4492 L 54.0039 -23.3887 C 54.0039 -25.1465 55.1758 -26.3184 56.9336 -26.3184 L 75.3906 -26.3184 C 77.1484 -26.3184 78.3203 -25.1465 78.3203 -23.3887 Z"/>
  </g>
  <g id="Ultralight-M" transform="matrix(1 0 0 1 494.892 1126)">
   <path d="M 12.4512 -40.625 C 12.4512 -39.9902 12.9395 -39.5508 13.623 -39.5508 C 14.0625 -39.5508 14.209 -39.6484 14.5508 -39.8926 L 62.6465 -80.2734 C 64.0625 -81.4941 65.5273 -81.7871 67.2852 -80.2734 L 115.088 -39.8926 C 115.43 -39.6484 115.576 -39.5508 116.016 -39.5508 C 116.699 -39.5508 117.188 -40.0391 117.188 -40.625 C 117.188 -41.1133 116.992 -41.4062 116.504 -41.7969 L 105.908 -50.7324 L 105.908 -71.2891 C 105.908 -72.3145 105.176 -72.998 104.199 -72.998 L 100.879 -72.998 C 99.9023 -72.998 99.1699 -72.3145 99.1699 -71.2891 L 99.1699 -56.4453 L 68.9453 -81.8848 C 66.4062 -84.1309 63.5742 -84.1309 60.9375 -81.8848 L 13.1348 -41.7969 C 12.6465 -41.4062 12.4512 -41.1133 12.4512 -40.625 Z M 23.9746 5.22461 C 23.9746 10.4004 27.002 13.4277 32.1289 13.4277 L 97.7539 13.4277 C 102.881 13.4277 105.908 10.4004 105.908 5.22461 L 105.908 -42.7734 L 68.0664 -74.6094 C 65.8203 -76.4648 63.8672 -76.416 61.7188 -74.6094 L 23.9746 -42.9199 Z M 76.8555 11.0352 L 52.7832 11.0352 L 52.7832 -23.291 C 52.7832 -24.9023 53.8574 -25.9277 55.4688 -25.9277 L 74.1699 -25.9277 C 75.7812 -25.9277 76.8555 -24.9023 76.8555 -23.291 Z"/>
  </g>
  <g id="Black-S" transform="matrix(1 0 0 1 2871.88 696)">
   <path d="M 9.76562 -36.2793 C 9.76562 -32.2754 12.5488 -29.6387 16.748 -29.6387 C 18.5059 -29.6387 20.459 -30.4199 22.0703 -31.7871 L 58.5449 -62.3535 C 60.498 -64.0137 62.5977 -64.0137 64.5996 -62.3535 L 100.977 -31.7871 C 102.588 -30.4199 104.541 -29.6387 106.299 -29.6387 C 110.498 -29.6387 113.281 -32.2754 113.281 -36.2793 C 113.281 -38.2812 112.207 -40.4785 110.4 -41.9922 L 99.5117 -51.123 L 99.5117 -69.5801 C 99.5117 -71.4844 98.291 -72.7051 96.3867 -72.7051 L 85.8887 -72.7051 C 83.9844 -72.7051 82.7148 -71.4844 82.7148 -69.5801 L 82.7148 -65.2344 L 70.7031 -75.3418 C 65.2344 -79.9316 57.9102 -79.9316 52.4414 -75.3418 L 12.6465 -41.9434 C 10.8398 -40.3809 9.76562 -38.2812 9.76562 -36.2793 Z M 24.2676 -0.585938 C 24.2676 5.76172 28.9062 10.0098 35.8887 10.0098 L 87.1094 10.0098 C 94.0918 10.0098 98.7305 5.76172 98.7305 -0.585938 L 98.7305 -24.1211 L 64.209 -53.125 C 62.5488 -54.541 60.5469 -54.541 58.8867 -53.125 L 24.2676 -24.1211 Z M 72.3633 -1.70898 L 50.6836 -1.70898 L 50.6836 -22.8027 C 50.6836 -24.707 51.9531 -25.9277 53.8574 -25.9277 L 69.2383 -25.9277 C 71.1426 -25.9277 72.3633 -24.707 72.3633 -22.8027 Z"/>
  </g>
  <g id="Heavy-S" transform="matrix(1 0 0 1 2576.39 696)">
   <path d="M 9.76562 -36.4258 C 9.76562 -32.959 12.207 -30.5176 16.0156 -30.5176 C 17.627 -30.5176 19.3848 -31.2988 20.8008 -32.5195 L 57.7637 -63.4766 C 59.4238 -64.8926 61.2793 -64.8926 62.9883 -63.4766 L 99.8047 -32.5195 C 101.27 -31.2988 103.027 -30.5176 104.639 -30.5176 C 108.35 -30.5176 110.84 -32.8613 110.84 -36.4258 C 110.84 -38.2324 109.912 -40.1367 108.35 -41.4551 L 97.3633 -50.6836 L 97.3633 -68.3594 C 97.3633 -70.2148 96.1426 -71.4355 94.2871 -71.4355 L 85.2051 -71.4355 C 83.3008 -71.4355 82.0801 -70.2148 82.0801 -68.3594 L 82.0801 -63.5254 L 68.5059 -74.9512 C 63.5742 -79.0527 57.1289 -79.0527 52.1973 -74.9512 L 12.3047 -41.4551 C 10.6934 -40.0391 9.76562 -38.1836 9.76562 -36.4258 Z M 23.8281 -1.2207 C 23.8281 4.98047 28.125 8.98438 34.8145 8.98438 L 85.791 8.98438 C 92.4316 8.98438 96.7773 4.98047 96.7773 -1.2207 L 96.7773 -25.9766 L 62.8906 -54.4434 C 61.2793 -55.8105 59.3262 -55.7617 57.7637 -54.4434 L 23.8281 -25.9766 Z M 70.9473 -1.61133 L 49.707 -1.61133 L 49.707 -23.6328 C 49.707 -25.5371 50.9277 -26.7578 52.832 -26.7578 L 67.8223 -26.7578 C 69.7266 -26.7578 70.9473 -25.5371 70.9473 -23.6328 Z"/>
  </g>
  <g id="Bold-S" transform="matrix(1 0 0 1 2281.02 696)">
   <path d="M 9.76562 -36.6211 C 9.76562 -33.7402 11.8652 -31.543 15.1367 -31.543 C 16.6504 -31.543 18.1152 -32.2754 19.3848 -33.3496 L 56.8359 -64.7461 C 58.2031 -65.918 59.7656 -65.918 61.1328 -64.7461 L 98.5352 -33.3496 C 99.8047 -32.2754 101.27 -31.543 102.783 -31.543 C 105.908 -31.543 108.154 -33.4961 108.154 -36.5234 C 108.154 -38.1836 107.373 -39.7461 106.055 -40.8691 L 94.9707 -50.1465 L 94.9707 -66.9922 C 94.9707 -68.8477 93.7988 -70.0684 91.8945 -70.0684 L 84.4727 -70.0684 C 82.5684 -70.0684 81.3477 -68.8477 81.3477 -66.9922 L 81.3477 -61.6211 L 66.0156 -74.5117 C 61.7676 -78.0762 56.2012 -78.0762 51.9531 -74.5117 L 11.9141 -40.8691 C 10.498 -39.6973 9.76562 -38.1348 9.76562 -36.6211 Z M 23.291 -1.9043 C 23.291 4.05273 27.2949 7.8125 33.6426 7.8125 L 84.2773 7.8125 C 90.5762 7.8125 94.5801 4.05273 94.5801 -1.9043 L 94.5801 -28.0762 L 61.4258 -55.9082 C 59.9121 -57.1777 58.0078 -57.1777 56.4941 -55.9082 L 23.291 -28.0762 Z M 69.3848 -1.5625 L 48.584 -1.5625 L 48.584 -24.5605 C 48.584 -26.4648 49.8047 -27.6855 51.709 -27.6855 L 66.2598 -27.6855 C 68.1641 -27.6855 69.3848 -26.4648 69.3848 -24.5605 Z"/>
  </g>
  <g id="Semibold-S" transform="matrix(1 0 0 1 1985.26 696)">
   <path d="M 9.76562 -36.7188 C 9.76562 -34.2285 11.6211 -32.2266 14.5996 -32.2266 C 15.9668 -32.2266 17.2852 -32.959 18.4082 -33.8867 L 56.2012 -65.625 C 57.373 -66.6016 58.7402 -66.6016 59.8633 -65.625 L 97.6562 -33.8867 C 98.7793 -32.959 100.098 -32.2266 101.514 -32.2266 C 104.248 -32.2266 106.25 -33.9355 106.25 -36.6211 C 106.25 -38.1836 105.664 -39.502 104.443 -40.4785 L 93.3594 -49.8047 L 93.3594 -66.0156 C 93.3594 -67.8711 92.1387 -69.0918 90.2832 -69.0918 L 83.9355 -69.0918 C 82.0801 -69.0918 80.8105 -67.8711 80.8105 -66.0156 L 80.8105 -60.3027 L 64.3066 -74.2188 C 60.498 -77.3926 55.6152 -77.3926 51.8066 -74.2188 L 11.6211 -40.4785 C 10.4004 -39.4531 9.76562 -38.0371 9.76562 -36.7188 Z M 22.9492 -2.34375 C 22.9492 3.4668 26.709 7.03125 32.8125 7.03125 L 83.252 7.03125 C 89.3066 7.03125 93.0664 3.4668 93.0664 -2.34375 L 93.0664 -29.4922 L 60.4004 -56.8848 C 58.9355 -58.1543 57.0801 -58.1055 55.6641 -56.8848 L 22.9492 -29.4922 Z M 68.2617 -1.46484 L 47.8027 -1.46484 L 47.8027 -25.1953 C 47.8027 -27.0996 49.0723 -28.3203 50.9277 -28.3203 L 65.1855 -28.3203 C 67.041 -28.3203 68.2617 -27.0996 68.2617 -25.1953 Z"/>
  </g>
  <g id="Medium-S" transform="matrix(1 0 0 1 1689.26 696)">
   <path d="M 9.76562 -36.8164 C 9.76562 -34.668 11.4258 -32.7637 14.1602 -32.7637 C 15.4785 -32.7637 16.6504 -33.4473 17.6758 -34.3262 L 55.7617 -66.2598 C 56.7383 -67.1387 57.959 -67.0898 58.9355 -66.2598 L 96.9727 -34.3262 C 97.998 -33.4473 99.2188 -32.7637 100.537 -32.7637 C 102.979 -32.7637 104.834 -34.2773 104.834 -36.7188 C 104.834 -38.1348 104.297 -39.3066 103.271 -40.1855 L 92.0898 -49.5605 L 92.0898 -65.2832 C 92.0898 -67.1387 90.918 -68.3594 89.0625 -68.3594 L 83.5449 -68.3594 C 81.6895 -68.3594 80.4688 -67.1387 80.4688 -65.2832 L 80.4688 -59.3262 L 62.9883 -73.9746 C 59.5703 -76.9043 55.127 -76.9043 51.6602 -73.9746 L 11.4258 -40.1855 C 10.3027 -39.2578 9.76562 -37.9883 9.76562 -36.8164 Z M 22.6562 -2.73438 C 22.6562 2.97852 26.2695 6.44531 32.1777 6.44531 L 82.4707 6.44531 C 88.3789 6.44531 91.9434 2.97852 91.9434 -2.73438 L 91.9434 -30.5664 L 59.668 -57.666 C 58.2031 -58.8867 56.3965 -58.8379 54.9805 -57.666 L 22.6562 -30.5664 Z M 67.4316 -1.46484 L 47.2168 -1.46484 L 47.2168 -25.6836 C 47.2168 -27.5879 48.4863 -28.8086 50.3418 -28.8086 L 64.3555 -28.8086 C 66.2598 -28.8086 67.4316 -27.5879 67.4316 -25.6836 Z"/>
  </g>
  <g id="Regular-S" transform="matrix(1 0 0 1 1393.47 696)">
   <path d="M 9.76562 -36.9629 C 9.76562 -35.1562 11.1816 -33.4473 13.5742 -33.4473 C 14.7949 -33.4473 15.8203 -34.1309 16.6992 -34.8633 L 55.127 -67.1387 C 55.957 -67.8223 56.9336 -67.7734 57.666 -67.1387 L 96.0938 -34.8633 C 97.0215 -34.1309 98.0469 -33.4473 99.2676 -33.4473 C 101.318 -33.4473 102.979 -34.7168 102.979 -36.8164 C 102.979 -38.1348 102.588 -39.0137 101.66 -39.7949 L 90.4785 -49.2188 L 90.4785 -64.3555 C 90.4785 -66.2109 89.2578 -67.3828 87.4512 -67.3828 L 83.0566 -67.3828 C 81.2012 -67.3828 79.9316 -66.2109 79.9316 -64.3555 L 79.9316 -58.0078 L 61.3281 -73.6816 C 58.3008 -76.2207 54.541 -76.2207 51.5137 -73.6816 L 11.1328 -39.7949 C 10.2051 -39.0137 9.76562 -37.9395 9.76562 -36.9629 Z M 22.3145 -3.17383 C 22.3145 2.39258 25.6836 5.66406 31.3477 5.66406 L 81.4453 5.66406 C 87.1094 5.66406 90.4785 2.39258 90.4785 -3.17383 L 90.4785 -31.9824 L 58.6426 -58.6426 C 57.2754 -59.8633 55.4688 -59.8145 54.1504 -58.6426 L 22.3145 -31.9824 Z M 66.3574 -1.36719 L 46.4355 -1.36719 L 46.4355 -26.3184 C 46.4355 -28.2227 47.7051 -29.3945 49.5605 -29.3945 L 63.2812 -29.3945 C 65.1855 -29.3945 66.3574 -28.2227 66.3574 -26.3184 Z"/>
  </g>
  <g id="Light-S" transform="matrix(1 0 0 1 1098.49 696)">
   <path d="M 9.76562 -37.7441 C 9.76562 -36.377 10.8398 -35.0586 12.6465 -35.0586 C 13.623 -35.0586 14.3555 -35.5469 15.0391 -36.1328 L 53.2227 -68.1641 C 54.1504 -68.9941 55.1758 -68.9941 56.1523 -68.1641 L 94.2871 -36.1328 C 94.9707 -35.5469 95.7031 -35.0586 96.6309 -35.0586 C 98.2422 -35.0586 99.5117 -36.0352 99.5117 -37.6465 C 99.5117 -38.6719 99.1699 -39.3555 98.4375 -39.9902 L 88.1348 -48.6328 L 88.1348 -64.0625 C 88.1348 -65.625 87.1094 -66.6016 85.6445 -66.6016 L 81.7871 -66.6016 C 80.2734 -66.6016 79.248 -65.625 79.248 -64.0625 L 79.248 -56.1035 L 59.0332 -73.0957 C 56.3477 -75.3906 53.0762 -75.3906 50.3418 -73.0957 L 10.8887 -39.9902 C 10.1074 -39.3555 9.76562 -38.5254 9.76562 -37.7441 Z M 21.2402 -3.27148 C 21.2402 1.80664 24.2676 4.78516 29.4434 4.78516 L 79.9316 4.78516 C 85.0586 4.78516 88.1348 1.80664 88.1348 -3.27148 L 88.1348 -34.8633 L 56.9824 -60.9863 C 55.4688 -62.2559 53.7598 -62.207 52.3438 -60.9863 L 21.2402 -34.9121 Z M 64.4531 -0.634766 L 44.873 -0.634766 L 44.873 -26.1719 C 44.873 -27.8809 45.9961 -28.9551 47.6562 -28.9551 L 61.6699 -28.9551 C 63.3789 -28.9551 64.4531 -27.8809 64.4531 -26.1719 Z"/>
  </g>
  <g id="Thin-S" transform="matrix(1 0 0 1 804.078 696)">
   <path d="M 9.76562 -38.7695 C 9.76562 -37.9395 10.4492 -37.1582 11.4746 -37.1582 C 12.0605 -37.1582 12.4512 -37.4512 12.8418 -37.793 L 50.7324 -69.5801 C 51.8066 -70.459 52.8809 -70.6055 54.1016 -69.5801 L 91.8457 -37.793 C 92.2363 -37.4512 92.627 -37.1582 93.2129 -37.1582 C 94.1895 -37.1582 94.9219 -37.793 94.9219 -38.7207 C 94.9219 -39.3555 94.6777 -39.7461 94.1406 -40.2344 L 85.0586 -47.9004 L 85.0586 -63.7207 C 85.0586 -64.7949 84.3262 -65.5273 83.252 -65.5273 L 80.127 -65.5273 C 79.1016 -65.5273 78.3203 -64.7949 78.3203 -63.7207 L 78.3203 -53.5645 L 56.0547 -72.3145 C 53.7598 -74.2676 51.123 -74.2676 48.7793 -72.3145 L 10.5469 -40.2344 C 10.0098 -39.7461 9.76562 -39.3066 9.76562 -38.7695 Z M 19.7754 -3.41797 C 19.7754 1.02539 22.4121 3.66211 26.9043 3.66211 L 77.9297 3.66211 C 82.4219 3.66211 85.0586 1.02539 85.0586 -3.41797 L 85.0586 -38.623 L 54.7852 -64.0137 C 53.125 -65.4297 51.5625 -65.3809 49.9512 -64.0137 L 19.7754 -38.7207 Z M 61.9141 0.341797 L 42.7734 0.341797 L 42.7734 -26.0254 C 42.7734 -27.4414 43.7012 -28.3691 45.166 -28.3691 L 59.5703 -28.3691 C 60.9863 -28.3691 61.9141 -27.4414 61.9141 -26.0254 Z"/>
  </g>
  <g id="Ultralight-S" transform="matrix(1 0 0 1 508.564 696)">
   <path d="M 9.76562 -39.3066 C 9.76562 -38.7207 10.2051 -38.2812 10.8887 -38.2812 C 11.2793 -38.2812 11.4746 -38.3789 11.7188 -38.623 L 49.4629 -70.3125 C 50.5859 -71.2402 51.709 -71.4355 53.0273 -70.3125 L 90.5762 -38.623 C 90.8691 -38.3789 91.0156 -38.2812 91.4062 -38.2812 C 92.0898 -38.2812 92.5293 -38.7207 92.5293 -39.2578 C 92.5293 -39.6973 92.3828 -39.9902 91.9434 -40.332 L 83.4473 -47.5098 L 83.4473 -63.5254 C 83.4473 -64.4043 82.8613 -64.9902 82.0312 -64.9902 L 79.2969 -64.9902 C 78.4668 -64.9902 77.832 -64.4043 77.832 -63.5254 L 77.832 -52.2461 L 54.4922 -71.9238 C 52.4414 -73.7305 50.1465 -73.7305 47.998 -71.9238 L 10.3516 -40.332 C 9.91211 -39.9902 9.76562 -39.6973 9.76562 -39.3066 Z M 19.043 -3.51562 C 19.043 0.634766 21.4355 3.07617 25.5859 3.07617 L 76.9043 3.07617 C 81.0059 3.07617 83.4473 0.634766 83.4473 -3.51562 L 83.4473 -40.5762 L 53.6621 -65.625 C 51.9531 -67.041 50.3906 -66.9922 48.7305 -65.625 L 19.043 -40.6738 Z M 60.5957 0.878906 L 41.6992 0.878906 L 41.6992 -25.8789 C 41.6992 -27.1973 42.5293 -28.0273 43.8477 -28.0273 L 58.4473 -28.0273 C 59.7656 -28.0273 60.5957 -27.1973 60.5957 -25.8789 Z"/>
  </g>
 </g>
</svg>
